<?xml version="1.0" encoding="utf-8"?>
<!-- Generator: Adobe Illustrator 16.0.0, SVG Export Plug-In . SVG Version: 6.00 Build 0)  -->
<!DOCTYPE svg PUBLIC "-//W3C//DTD SVG 1.1//EN" "http://www.w3.org/Graphics/SVG/1.1/DTD/svg11.dtd">
<svg version="1.1" id="Layer_1" xmlns="http://www.w3.org/2000/svg" xmlns:xlink="http://www.w3.org/1999/xlink" x="0px" y="0px"
	 width="17.684px" height="17.684px" viewBox="0 0 17.684 17.684" enable-background="new 0 0 17.684 17.684" xml:space="preserve">
<g>
	<defs>
		<rect id="SVGID_1_" y="0" width="17.684" height="17.684"/>
	</defs>
	<clipPath id="SVGID_2_">
		<use xlink:href="#SVGID_1_"  overflow="visible"/>
	</clipPath>
	<path clip-path="url(#SVGID_2_)" fill="#727171" d="M10.354,12.326c-0.91,0.559-1.976,0.888-3.12,0.888
		c-3.296,0-5.978-2.682-5.978-5.979c0-3.297,2.682-5.978,5.978-5.978c3.297,0,5.979,2.681,5.979,5.978
		c0,1.143-0.328,2.21-0.888,3.119l0.913,0.913c0.777-1.153,1.231-2.541,1.231-4.032C14.471,3.246,11.225,0,7.234,0
		C3.246,0,0,3.246,0,7.235s3.245,7.236,7.234,7.236c1.493,0,2.88-0.455,4.033-1.231L10.354,12.326z"/>
	<path clip-path="url(#SVGID_2_)" fill="#727171" d="M11.237,9.265c0.312-0.61,0.49-1.298,0.49-2.029
		c0-2.478-2.016-4.492-4.492-4.492c-2.477,0-4.492,2.014-4.492,4.492c0,2.477,2.015,4.492,4.492,4.492
		c0.731,0,1.419-0.179,2.03-0.491l-0.962-0.962c-0.336,0.119-0.692,0.197-1.068,0.197C5.451,10.472,4,9.019,4,7.236
		C4,5.452,5.451,4,7.235,4s3.235,1.451,3.235,3.235c0,0.376-0.077,0.732-0.195,1.068L11.237,9.265z"/>
	<path clip-path="url(#SVGID_2_)" fill="#727171" d="M9.063,7.631c0.027,0,0.056,0.007,0.084,0.01
		C9.174,7.509,9.19,7.375,9.19,7.235c0-1.08-0.876-1.955-1.956-1.955c-1.079,0-1.954,0.875-1.954,1.955
		c0,1.079,0.875,1.955,1.954,1.955c0.14,0,0.275-0.017,0.407-0.043C7.64,9.118,7.632,9.09,7.632,9.063l-1.01-1.011
		C6.432,7.86,6.327,7.607,6.327,7.338s0.105-0.523,0.296-0.716c0.394-0.394,1.036-0.394,1.431,0L9.063,7.631z"/>
	<path clip-path="url(#SVGID_2_)" fill="#727171" d="M15.218,17.673c0.078-0.025,0.134-0.094,0.146-0.175l0.26-1.854l1.875-0.28
		c0.081-0.013,0.147-0.069,0.174-0.146c0.007-0.022,0.011-0.045,0.011-0.067c0-0.058-0.022-0.113-0.063-0.154l-1.997-1.998
		c-0.049-0.049-0.117-0.07-0.186-0.061l-1.329,0.194L9.856,8.88C9.678,8.701,9.428,8.652,9.199,8.711l-1.099-1.1
		c-0.135-0.134-0.353-0.134-0.488,0C7.545,7.679,7.511,7.769,7.511,7.856s0.034,0.177,0.102,0.244l1.099,1.099
		C8.695,9.26,8.688,9.321,8.688,9.383c0,0.172,0.062,0.343,0.193,0.473l4.251,4.252l-0.195,1.329
		c-0.001,0.01-0.002,0.021-0.002,0.031c0,0.058,0.023,0.112,0.064,0.153l1.998,1.997C15.055,17.678,15.14,17.698,15.218,17.673"/>
</g>
</svg>
