<?xml version="1.0" encoding="utf-8"?>
<!-- Generator: Adobe Illustrator 16.0.0, SVG Export Plug-In . SVG Version: 6.00 Build 0)  -->
<!DOCTYPE svg PUBLIC "-//W3C//DTD SVG 1.1//EN" "http://www.w3.org/Graphics/SVG/1.1/DTD/svg11.dtd">
<svg version="1.1" id="Layer_1" xmlns="http://www.w3.org/2000/svg" xmlns:xlink="http://www.w3.org/1999/xlink" x="0px" y="0px"
	 width="14.586px" height="18.226px" viewBox="0 0 14.586 18.226" enable-background="new 0 0 14.586 18.226" xml:space="preserve">
<g>
	<defs>
		<rect id="SVGID_1_" y="0" width="14.586" height="18.226"/>
	</defs>
	<clipPath id="SVGID_2_">
		<use xlink:href="#SVGID_1_"  overflow="visible"/>
	</clipPath>
	<path clip-path="url(#SVGID_2_)" fill-rule="evenodd" clip-rule="evenodd" fill="#727171" d="M6.962,18.07
		c-0.566-0.66-1.183-1.344-1.819-2.047c-1.367-1.514-2.818-3.121-3.814-4.534l-0.002-0.002c-0.436-0.626-0.769-1.297-0.992-2.003
		C0.114,8.784,0,8.051,0,7.293c0-2.014,0.816-3.838,2.136-5.157C3.457,0.816,5.279,0,7.293,0s3.837,0.816,5.157,2.136
		c1.319,1.319,2.136,3.143,2.136,5.157h-0.002c0,0.757-0.113,1.498-0.337,2.202c-0.223,0.705-0.556,1.378-0.99,1.994
		c-0.996,1.413-2.447,3.021-3.814,4.535c-0.636,0.704-1.254,1.388-1.821,2.05c-0.155,0.183-0.428,0.203-0.608,0.047
		C6.993,18.106,6.978,18.09,6.962,18.07 M7.293,4.408c-0.797,0-1.518,0.323-2.04,0.845s-0.845,1.243-0.845,2.04H4.407
		c0,0.795,0.323,1.516,0.846,2.039c0.522,0.522,1.243,0.846,2.04,0.846c0.796,0,1.518-0.323,2.039-0.846
		c0.522-0.521,0.846-1.243,0.846-2.039c0-0.797-0.323-1.518-0.846-2.04C8.812,4.731,8.09,4.408,7.293,4.408 M4.64,4.641
		C3.962,5.319,3.542,6.257,3.542,7.293h0.001C3.544,8.33,3.963,9.268,4.64,9.945c0.679,0.679,1.617,1.099,2.653,1.099
		c1.035,0,1.974-0.42,2.652-1.099s1.099-1.617,1.099-2.653s-0.42-1.973-1.099-2.652C9.267,3.962,8.329,3.542,7.293,3.542
		C6.257,3.542,5.319,3.962,4.64,4.641 M5.783,15.444c0.53,0.587,1.048,1.161,1.51,1.688c0.461-0.527,0.979-1.101,1.51-1.688
		c1.344-1.489,2.771-3.069,3.746-4.453c0.383-0.542,0.675-1.134,0.872-1.757c0.198-0.627,0.301-1.281,0.301-1.942H13.72
		c0-1.775-0.72-3.382-1.883-4.545c-1.163-1.162-2.769-1.882-4.544-1.882c-1.775,0-3.382,0.72-4.543,1.882
		c-1.163,1.163-1.883,2.77-1.883,4.545c0,0.67,0.101,1.316,0.295,1.931c0.197,0.622,0.491,1.214,0.877,1.769
		C3.013,12.377,4.439,13.956,5.783,15.444"/>
</g>
</svg>
