<?xml version="1.0" encoding="utf-8"?>
<!-- Generator: Adobe Illustrator 16.0.0, SVG Export Plug-In . SVG Version: 6.00 Build 0)  -->
<!DOCTYPE svg PUBLIC "-//W3C//DTD SVG 1.1//EN" "http://www.w3.org/Graphics/SVG/1.1/DTD/svg11.dtd">
<svg version="1.1" id="Layer_1" xmlns="http://www.w3.org/2000/svg" xmlns:xlink="http://www.w3.org/1999/xlink" x="0px" y="0px"
	 width="23.401px" height="24.955px" viewBox="0 0 23.401 24.955" enable-background="new 0 0 23.401 24.955" xml:space="preserve">
<g>
	<defs>
		<rect id="SVGID_1_" y="0" width="23.402" height="24.954"/>
	</defs>
	<clipPath id="SVGID_2_">
		<use xlink:href="#SVGID_1_"  overflow="visible"/>
	</clipPath>
	<path clip-path="url(#SVGID_2_)" fill="#727171" d="M19.628,11.353c0.228-0.269,0.366-0.603,0.366-0.957v-0.163
		c0-0.848-0.733-1.565-1.604-1.565l-2.113,0.009l-1.774-0.015v0.022H14.45l1.004-3.17c0.135-0.277,0.291-0.695,0.278-1.11
		c-0.017-0.474-0.25-0.843-0.694-1.055c-0.388-0.187-0.825-0.212-1.232-0.071c-0.406,0.142-0.733,0.434-0.907,0.797
		c-1.483,2.608-1.965,3.457-2.123,3.765l-0.013-0.008c-0.733,1.162-2.64,1.514-3.476,1.615V9.014H3.843v9.048h3.444v-0.36
		l4.476,1.247l5.729-0.121c0.919,0,1.514-0.479,1.514-1.221v-0.149c0-0.3-0.058-0.557-0.166-0.764c0.548-0.27,0.99-0.771,0.99-1.358
		v-0.167c0-0.321-0.088-0.612-0.242-0.854c0.584-0.223,1.066-0.742,1.066-1.428V12.72C20.654,12.059,20.21,11.596,19.628,11.353
		 M6.48,17.255H4.65V9.822h1.83V17.255z M19.846,12.887c0,0.424-0.473,0.742-0.896,0.742h-0.653h-3.486v0.807h3.486
		c0.427,0,0.726,0.301,0.726,0.732v0.167c0,0.394-0.595,0.766-1.055,0.766h-0.203h-2.954v0.807h2.954
		c0.229,0,0.434,0.042,0.434,0.55v0.149c0,0.36-0.442,0.414-0.714,0.414l-5.619,0.118l-4.561-1.271V10.26
		c0.916-0.102,3.198-0.502,4.152-2.015c0.03-0.052,2.143-3.771,2.156-3.795c0.093-0.193,0.256-0.338,0.46-0.409
		c0.203-0.071,0.422-0.058,0.649,0.051c0.102,0.048,0.196,0.123,0.203,0.338c0.006,0.196-0.063,0.457-0.219,0.787l-1.36,4.279
		l2.941-0.012l1.236,0.01V9.479l0.869-0.003c0.416,0,0.794,0.361,0.794,0.757v0.163c0,0.384-0.424,0.761-0.854,0.761h-3.521v0.807
		h3.521h0.288c0.384,0,1.226,0.191,1.226,0.756V12.887z"/>
	<path clip-path="url(#SVGID_2_)" fill="#727171" d="M1.622,8.967C2.307,7.101,3.623,5.517,5.25,4.52
		c1.414-0.865,3.052-1.289,4.652-1.253l-0.104,0.58l3.675-1.33L10.484,0l-0.11,0.619C8.078,0.695,5.854,1.487,4.086,2.85
		C2.212,4.296,0.881,6.347,0.325,8.566c-0.592,2.214-0.352,4.578,0.532,6.598c0.863,2.044,2.47,3.685,4.333,4.712
		c-1.748-1.224-3.101-2.971-3.698-4.953C0.872,12.959,0.904,10.823,1.622,8.967"/>
	<path clip-path="url(#SVGID_2_)" fill="#727171" d="M23.078,16.382c0.589-2.214,0.351-4.576-0.535-6.595
		c-0.862-2.043-2.469-3.682-4.333-4.709c1.748,1.222,3.102,2.968,3.699,4.95c0.62,1.963,0.588,4.099-0.128,5.954
		c-0.682,1.865-1.998,3.449-3.624,4.447c-1.412,0.867-3.049,1.292-4.647,1.257l0.103-0.579l-3.673,1.334l2.991,2.514l0.109-0.619
		c2.295-0.078,4.518-0.872,6.283-2.236C21.194,20.651,22.524,18.6,23.078,16.382"/>
</g>
</svg>
