<?xml version="1.0" encoding="utf-8"?>
<!-- Generator: Adobe Illustrator 16.0.0, SVG Export Plug-In . SVG Version: 6.00 Build 0)  -->
<!DOCTYPE svg PUBLIC "-//W3C//DTD SVG 1.1//EN" "http://www.w3.org/Graphics/SVG/1.1/DTD/svg11.dtd">
<svg version="1.1" id="Layer_1" xmlns="http://www.w3.org/2000/svg" xmlns:xlink="http://www.w3.org/1999/xlink" x="0px" y="0px"
	 width="18.469px" height="28.32px" viewBox="0 0 18.469 28.32" enable-background="new 0 0 18.469 28.32" xml:space="preserve">
<g>
	<defs>
		<rect id="SVGID_1_" width="18.469" height="28.32"/>
	</defs>
	<clipPath id="SVGID_2_">
		<use xlink:href="#SVGID_1_"  overflow="visible"/>
	</clipPath>
	<path clip-path="url(#SVGID_2_)" fill="#231815" d="M0.431,24.068L0.003,27.84c-0.043,0.379,0.393,0.622,0.693,0.386l2.984-2.347
		c0.241-0.19,0.211-0.564-0.057-0.713l-2.556-1.426C0.799,23.59,0.466,23.762,0.431,24.068"/>
	<path clip-path="url(#SVGID_2_)" fill="#231815" d="M13.979,5.489L5.05,20.83c-0.195,0.335-0.076,0.764,0.263,0.951l1.475,0.813
		c0.328,0.181,0.74,0.066,0.928-0.257l8.931-15.342c0.194-0.334,0.075-0.763-0.264-0.95l-1.475-0.813
		C14.58,5.052,14.168,5.166,13.979,5.489"/>
	<path clip-path="url(#SVGID_2_)" fill="#231815" d="M4.117,20.401L13.09,4.985c0.184-0.313,0.071-0.715-0.246-0.89l-1.55-0.854
		c-0.307-0.17-0.693-0.063-0.87,0.241L1.45,18.897c-0.183,0.313-0.072,0.715,0.246,0.89l1.551,0.855
		C3.554,20.811,3.941,20.704,4.117,20.401"/>
	<path clip-path="url(#SVGID_2_)" fill="#231815" d="M3.743,22.064L3.743,22.064c-0.002-0.001-0.002-0.001-0.003-0.002l-2.338-1.289
		c-0.305-0.167-0.682,0.028-0.721,0.373L0.554,22.26c-0.022,0.196,0.076,0.387,0.25,0.482l3.861,2.128
		c0.167,0.093,0.372,0.079,0.526-0.034l0.917-0.68c0.286-0.212,0.257-0.648-0.055-0.819L3.743,22.064z"/>
	<path clip-path="url(#SVGID_2_)" fill="#231815" d="M17.508,5.516l0.759-1.305c0.204-0.349,0.255-0.754,0.146-1.14
		c-0.11-0.386-0.368-0.708-0.728-0.905l-3.576-1.971c-0.358-0.198-0.775-0.245-1.172-0.14c-0.396,0.107-0.727,0.357-0.929,0.706
		l-0.76,1.305L17.508,5.516z"/>
</g>
</svg>
