<?xml version="1.0" encoding="utf-8"?>
<!-- Generator: Adobe Illustrator 16.0.0, SVG Export Plug-In . SVG Version: 6.00 Build 0)  -->
<!DOCTYPE svg PUBLIC "-//W3C//DTD SVG 1.1//EN" "http://www.w3.org/Graphics/SVG/1.1/DTD/svg11.dtd">
<svg version="1.1" id="Layer_1" xmlns="http://www.w3.org/2000/svg" xmlns:xlink="http://www.w3.org/1999/xlink" x="0px" y="0px"
	 width="16.756px" height="18.019px" viewBox="0 0 16.756 18.019" enable-background="new 0 0 16.756 18.019" xml:space="preserve">
<g>
	<defs>
		<rect id="SVGID_1_" y="0" width="16.756" height="18.019"/>
	</defs>
	<clipPath id="SVGID_2_">
		<use xlink:href="#SVGID_1_"  overflow="visible"/>
	</clipPath>
	<path clip-path="url(#SVGID_2_)" fill="#727171" d="M11.765,0.762c0.052,0.014,0.532,0.153,1.167,0.561
		c0.683,0.438,1.238,0.995,1.651,1.653c0.841,1.338,0.766,2.703,0.694,3.228c-0.014,0.102,0.012,0.204,0.075,0.287
		c0.062,0.083,0.153,0.136,0.257,0.149c0.02,0.003,0.041,0.003,0.061,0.004c0.192-0.005,0.35-0.146,0.374-0.336
		c0.063-0.454,0.066-0.947,0.011-1.423c-0.1-0.838-0.373-1.62-0.814-2.322c-1.234-1.963-3.188-2.526-3.271-2.548
		c-0.033-0.01-0.067-0.014-0.103-0.014c-0.066,0-0.132,0.016-0.191,0.05c-0.089,0.051-0.153,0.134-0.182,0.235
		C11.466,0.385,11.479,0.49,11.53,0.58C11.581,0.67,11.664,0.734,11.765,0.762"/>
	<path clip-path="url(#SVGID_2_)" fill="#727171" d="M1.084,6.644c0.021,0,0.043,0,0.063-0.003c0.103-0.014,0.194-0.067,0.256-0.15
		c0.063-0.083,0.09-0.184,0.076-0.287c-0.071-0.525-0.147-1.89,0.693-3.228c0.413-0.658,0.97-1.215,1.653-1.653
		c0.634-0.408,1.114-0.547,1.167-0.561c0.1-0.028,0.183-0.092,0.234-0.182c0.051-0.09,0.064-0.195,0.036-0.294
		c-0.027-0.1-0.092-0.184-0.182-0.235c-0.09-0.052-0.196-0.065-0.294-0.036C4.705,0.038,2.75,0.601,1.517,2.563
		C1.075,3.265,0.801,4.047,0.703,4.885C0.646,5.36,0.649,5.852,0.711,6.309C0.737,6.498,0.895,6.639,1.084,6.644"/>
	<path clip-path="url(#SVGID_2_)" fill="#727171" d="M16.321,13.161c-0.281-0.357-0.679-0.613-1.12-0.721
		c-0.648-0.157-1.107-0.734-1.115-1.402l-0.053-4.333c-0.002-2.607-1.951-4.82-4.531-5.149L9.397,1.543l-0.031-0.23
		c-0.063-0.496-0.488-0.87-0.988-0.87c-0.5,0-0.925,0.374-0.989,0.87l-0.03,0.23L7.254,1.556C4.673,1.885,2.725,4.098,2.722,6.704
		L2.67,11.038c-0.008,0.668-0.466,1.245-1.116,1.402c-0.441,0.107-0.838,0.363-1.12,0.721C0.155,13.518,0,13.966,0,14.419
		c0,0.324,0.126,0.628,0.355,0.857c0.229,0.229,0.533,0.354,0.857,0.354h3.525l0.037,0.08c0.646,1.401,2.061,2.308,3.604,2.308
		c1.542,0,2.958-0.906,3.605-2.308l0.036-0.08h3.524c0.668,0,1.212-0.543,1.212-1.212C16.756,13.966,16.602,13.518,16.321,13.161
		 M9.948,16.258c-0.461,0.328-1.004,0.501-1.57,0.501c-0.566,0-1.109-0.173-1.571-0.501l-0.351-0.249h3.843L9.948,16.258z
		 M1.24,14.372l0.053-0.178c0.027-0.092,0.072-0.178,0.133-0.255c0.108-0.139,0.256-0.233,0.427-0.275
		c1.208-0.294,2.061-1.368,2.076-2.611l0.053-4.336c0-2.033,1.578-3.755,3.593-3.928l0.176-0.014c0.404-0.027,0.855-0.027,1.245,0
		l0.152,0.011c2.042,0.168,3.626,1.891,3.626,3.923l0.052,4.344c0.015,1.243,0.869,2.317,2.078,2.611
		c0.17,0.042,0.318,0.138,0.427,0.275c0.061,0.077,0.105,0.163,0.132,0.255l0.054,0.178H1.24z"/>
</g>
</svg>
