<?xml version="1.0" encoding="utf-8"?>
<!-- Generator: Adobe Illustrator 16.0.0, SVG Export Plug-In . SVG Version: 6.00 Build 0)  -->
<!DOCTYPE svg PUBLIC "-//W3C//DTD SVG 1.1//EN" "http://www.w3.org/Graphics/SVG/1.1/DTD/svg11.dtd">
<svg version="1.1" id="Layer_1" xmlns="http://www.w3.org/2000/svg" xmlns:xlink="http://www.w3.org/1999/xlink" x="0px" y="0px"
	 width="20.895px" height="23.354px" viewBox="0 0 20.895 23.354" enable-background="new 0 0 20.895 23.354" xml:space="preserve">
<g>
	<defs>
		<rect id="SVGID_1_" y="0" width="20.895" height="23.354"/>
	</defs>
	<clipPath id="SVGID_2_">
		<use xlink:href="#SVGID_1_"  overflow="visible"/>
	</clipPath>
	<path clip-path="url(#SVGID_2_)" fill="#727171" d="M20.734,13.347l-1.613-3.042c-0.313-0.587-0.479-1.251-0.479-1.92
		c0-3.543-1.966-6.731-5.13-8.32C13.371-0.007,13.21-0.02,13.06,0.031c-0.15,0.05-0.272,0.156-0.344,0.297
		c-0.071,0.142-0.083,0.303-0.033,0.454c0.052,0.15,0.156,0.272,0.297,0.342c2.762,1.387,4.478,4.169,4.478,7.261
		c0,0.863,0.213,1.72,0.616,2.477l1.611,3.039c0.032,0.063,0.03,0.132-0.005,0.192c-0.035,0.059-0.094,0.094-0.164,0.095
		l-1.472,0.028c-0.322,0.006-0.583,0.271-0.583,0.593v3.211c0,0.686-0.558,1.243-1.243,1.243h-2.522
		c-0.327,0-0.594,0.266-0.594,0.593l-0.049,2.313L3.97,22.12v-2.325c0-2.67-0.646-5.34-1.869-7.721
		c-0.149-0.29-0.507-0.405-0.799-0.257c-0.291,0.15-0.405,0.508-0.256,0.798c1.137,2.214,1.738,4.696,1.738,7.18v2.325
		c0,0.681,0.556,1.234,1.239,1.234h9.03c0.682,0,1.235-0.554,1.235-1.234v-1.672h1.93c1.339,0,2.429-1.089,2.429-2.429v-2.629
		l0.892-0.017c0.481-0.009,0.917-0.261,1.163-0.677C20.947,14.28,20.96,13.776,20.734,13.347"/>
	<path clip-path="url(#SVGID_2_)" fill="#727171" d="M3.519,1.025h1.684l3.529,9.106H6.736L5.942,8.115H2.777l-0.782,2.016H0
		L3.519,1.025z M5.353,6.506L4.354,3.664L3.369,6.506H5.353z"/>
	<rect x="9.865" y="1.024" clip-path="url(#SVGID_2_)" fill="#727171" width="1.888" height="9.107"/>
</g>
</svg>
