<?xml version="1.0" encoding="utf-8"?>
<!-- Generator: Adobe Illustrator 16.0.0, SVG Export Plug-In . SVG Version: 6.00 Build 0)  -->
<!DOCTYPE svg PUBLIC "-//W3C//DTD SVG 1.1//EN" "http://www.w3.org/Graphics/SVG/1.1/DTD/svg11.dtd">
<svg version="1.1" id="Layer_1" xmlns="http://www.w3.org/2000/svg" xmlns:xlink="http://www.w3.org/1999/xlink" x="0px" y="0px"
	 width="17.523px" height="17.22px" viewBox="0 0 17.523 17.22" enable-background="new 0 0 17.523 17.22" xml:space="preserve">
<g>
	<defs>
		<rect id="SVGID_1_" width="17.524" height="17.22"/>
	</defs>
	<clipPath id="SVGID_2_">
		<use xlink:href="#SVGID_1_"  overflow="visible"/>
	</clipPath>
	<path clip-path="url(#SVGID_2_)" fill-rule="evenodd" clip-rule="evenodd" fill="#727171" d="M14.521,15
		c-0.74,0.668-1.596,1.211-2.534,1.591c-1,0.406-2.092,0.63-3.236,0.63c-1.141,0-2.23-0.223-3.229-0.627
		c-0.935-0.379-1.788-0.917-2.527-1.582c-0.12,0.008-0.243-0.034-0.334-0.126l-0.108-0.109c-0.405-0.409-0.769-0.856-1.087-1.336
		c-0.314-0.473-0.584-0.979-0.804-1.515C0.444,11.4,0.277,10.85,0.167,10.287C0.058,9.732,0,9.162,0,8.579
		c0-0.584,0.058-1.156,0.168-1.711c0.112-0.566,0.279-1.116,0.497-1.643C0.885,4.688,1.156,4.18,1.472,3.707
		c0.319-0.48,0.685-0.927,1.091-1.335l0.108-0.109c0.107-0.108,0.257-0.147,0.395-0.118C3.795,1.503,4.634,0.982,5.55,0.615
		C6.542,0.218,7.623,0,8.75,0c1.132,0,2.215,0.219,3.207,0.618c0.912,0.366,1.746,0.885,2.474,1.522
		c0.147-0.045,0.315-0.009,0.433,0.109l0.11,0.112c0.403,0.408,0.768,0.854,1.085,1.332c0.313,0.474,0.584,0.98,0.804,1.516
		c0.217,0.525,0.384,1.074,0.495,1.639c0.109,0.554,0.166,1.125,0.166,1.708s-0.058,1.156-0.167,1.71
		c-0.112,0.566-0.28,1.115-0.497,1.644c-0.221,0.536-0.493,1.044-0.808,1.517c-0.32,0.48-0.687,0.928-1.093,1.336l-0.106,0.109
		C14.762,14.963,14.64,15.005,14.521,15 M8.762,7.412c-0.384,0-0.732,0.151-0.992,0.397L7.742,7.833
		C7.48,8.094,7.319,8.456,7.319,8.854c0,0.396,0.161,0.756,0.422,1.018l0.002,0.002c0.263,0.261,0.622,0.423,1.019,0.423
		c0.383,0,0.732-0.151,0.991-0.396l0.028-0.026c0.261-0.261,0.423-0.622,0.423-1.02s-0.162-0.759-0.423-1.02
		C9.521,7.572,9.16,7.412,8.762,7.412 M9.168,8.446C9.064,8.342,8.92,8.277,8.762,8.277c-0.152,0-0.289,0.058-0.391,0.151
		L8.354,8.446C8.25,8.55,8.187,8.694,8.187,8.854c0,0.16,0.063,0.304,0.167,0.407l0.001,0.002c0.103,0.104,0.247,0.167,0.407,0.167
		c0.151,0,0.289-0.058,0.391-0.15L9.168,9.26c0.104-0.104,0.169-0.248,0.169-0.407C9.337,8.694,9.272,8.55,9.168,8.446 M13.779,2.72
		c-0.635-0.542-1.356-0.984-2.144-1.299c-0.89-0.358-1.864-0.555-2.886-0.555c-1.019,0-1.991,0.196-2.877,0.552
		C5.088,1.732,4.367,2.171,3.733,2.71l0.739,0.738c0.203-0.169,0.417-0.326,0.64-0.47c0.341-0.221,0.699-0.41,1.073-0.565h0.002
		c0.402-0.166,0.822-0.295,1.254-0.38C7.866,1.949,8.304,1.905,8.75,1.905s0.885,0.044,1.309,0.128
		c0.433,0.085,0.853,0.214,1.255,0.38c0.379,0.157,0.741,0.348,1.081,0.569c0.224,0.145,0.438,0.305,0.646,0.477L13.779,2.72z
		 M12.533,4.159c-0.191-0.162-0.395-0.314-0.609-0.452c-0.297-0.193-0.61-0.359-0.939-0.495c-0.345-0.143-0.711-0.254-1.091-0.33
		c-0.369-0.072-0.75-0.11-1.144-0.11c-0.393,0-0.774,0.038-1.143,0.11c-0.38,0.076-0.745,0.187-1.09,0.33
		c-0.33,0.137-0.642,0.301-0.934,0.49C5.38,3.833,5.187,3.978,5.001,4.132c0.007,0.119-0.034,0.24-0.125,0.331L4.77,4.572
		C4.638,4.704,4.516,4.84,4.398,4.983C4.288,5.12,4.177,5.27,4.069,5.432L4.053,5.454C3.995,5.542,3.938,5.631,3.886,5.72h9.764
		c-0.06-0.103-0.124-0.205-0.192-0.308c-0.103-0.155-0.211-0.303-0.325-0.443c-0.115-0.142-0.238-0.279-0.369-0.411L12.656,4.45
		C12.577,4.37,12.536,4.266,12.533,4.159 M14.73,5.947C14.739,5.964,14.747,5.982,14.755,6l0.032,0.082l0.003,0.009l0.003,0.007
		v0.002l0.005,0.008v0.001l0.011,0.027h0.001l0.003,0.009v0.001l0.008,0.019l0.003,0.007v0.002l0.003,0.007l0.001,0.003L14.83,6.19
		l0.001,0.003l0.002,0.006l0.001,0.004l0.002,0.005l0.003,0.004l0.002,0.005l0.005,0.014l0.002,0.004L14.85,6.24l0.002,0.004
		l0.002,0.006l0.001,0.003l0.002,0.006l0.001,0.003L14.86,6.27v0.002l0.003,0.007l0.001,0.002l0.003,0.008V6.29l0.003,0.008
		l0.001,0.001l0.003,0.009l0.003,0.009l0.008,0.019l0.003,0.007l0.001,0.002l0.002,0.007l0.001,0.003l0.003,0.006v0.003l0.002,0.006
		l0.001,0.004L14.9,6.378l0.001,0.004l0.002,0.005l0.001,0.004l0.004,0.01l0.001,0.004l0.002,0.005l0.001,0.004l0.002,0.006
		l0.001,0.003l0.002,0.006l0.001,0.003l0.004,0.006v0.003l0.003,0.007v0.001l0.003,0.008v0.001l0.003,0.008l0.001,0.001l0.003,0.009
		l0.002,0.009l0.003,0.009l0.003,0.009l0.001,0.001l0.002,0.007l0.001,0.002l0.002,0.008l0.001,0.002l0.002,0.006l0.001,0.003
		l0.002,0.006l0.001,0.003l0.002,0.006l0.001,0.003l0.002,0.006l0.001,0.004l0.001,0.005l0.003,0.004l0.001,0.004l0.002,0.005
		l0.001,0.004l0.002,0.006l0.001,0.003l0.002,0.006l0.001,0.003l0.002,0.006l0.001,0.003l0.001,0.006l0.001,0.002l0.002,0.008
		l0.001,0.001l0.002,0.008v0.001l0.001,0.002l0.005,0.015l0.003,0.01l0.003,0.009l0.003,0.01l0.002,0.01L15.005,6.7l0.003,0.009
		V6.71l0.003,0.009l0.002,0.009v0.001l0.003,0.009l0.003,0.009v0.001l0.002,0.009l0.003,0.01l0.003,0.009l0.003,0.01l0.002,0.009
		l0.003,0.01l0.003,0.01l0.002,0.009l0.003,0.01l0.002,0.009l0.004,0.01l0.003,0.009v0.001l0.002,0.009l0.003,0.01l0.002,0.01
		l0.003,0.009l0.002,0.01l0.002,0.01l0.003,0.009v0.001l0.002,0.009l0.003,0.01l0.002,0.01l0.003,0.009l0.002,0.01l0.003,0.01
		L15.084,7l0.002,0.009l0.004,0.01V7.02l0.002,0.009l0.002,0.01l0.003,0.01l0.002,0.01l0.002,0.009l0.003,0.01l0.002,0.01
		l0.002,0.01l0.002,0.01l0.003,0.01l0.002,0.01l0.002,0.01l0.002,0.01l0.005,0.02l0.001,0.009l0.002,0.01l0.004,0.01l0.002,0.01
		l0.002,0.01l0.002,0.01l0.002,0.01l0.002,0.01l0.002,0.01l0.002,0.01l0.002,0.01l0.002,0.01l0.005,0.027v0.001l0.004,0.017v0.002
		l0.001,0.007l0.005,0.022l0.001,0.006v0.003l0.001,0.007l0.008,0.041l0.001,0.005l0.001,0.005l0.001,0.004l0.002,0.015l0.001,0.004
		l0.001,0.006l0.001,0.004l0.001,0.006l0.003,0.019V7.49l0.002,0.007V7.5l0.001,0.007v0.002l0.001,0.008l0.001,0.002l0.001,0.007
		v0.002l0.003,0.018v0.001l0.001,0.009l0.001,0.001l0.001,0.009v0.001l0.002,0.009l0.001,0.01l0.003,0.017v0.002v0.001l0.001,0.008
		v0.002l0.002,0.008v0.002l0.001,0.008v0.002l0.001,0.007l0.001,0.003v0.007v0.002l0.001,0.008l0.001,0.003l0.001,0.006v0.004
		l0.001,0.006l0.001,0.004v0.006l0.002,0.004l0.001,0.006v0.004l0.001,0.006l0.001,0.004v0.006l0.001,0.005l0.001,0.005v0.005
		l0.001,0.004l0.001,0.006v0.004l0.001,0.006v0.004l0.001,0.006v0.004l0.001,0.006l0.001,0.004v0.007l0.001,0.003l0.001,0.007
		l0.002,0.021V7.82l0.002,0.019V7.84l0.003,0.031l0.001,0.01l0.001,0.01l0.002,0.019v0.002l0.002,0.017v0.004l0.003,0.031
		l0.001,0.003v0.008v0.001l0.002,0.019l0.001,0.01l0.001,0.009v0.002v0.008l0.001,0.002v0.007l0.001,0.003v0.007
		c0.015,0.176,0.021,0.347,0.021,0.513c0,0.206-0.011,0.421-0.033,0.643c-0.021,0.223-0.052,0.435-0.092,0.636
		c-0.042,0.214-0.094,0.422-0.155,0.624c-0.058,0.191-0.128,0.385-0.208,0.581l-0.009,0.021c-0.078,0.191-0.17,0.383-0.272,0.573
		c-0.105,0.198-0.215,0.381-0.325,0.549c-0.114,0.169-0.24,0.342-0.382,0.513c-0.075,0.094-0.153,0.184-0.234,0.272l0.981,0.982
		c0.289-0.312,0.554-0.646,0.789-1.001c0.287-0.431,0.532-0.89,0.73-1.369c0.194-0.469,0.344-0.965,0.446-1.48
		c0.098-0.499,0.149-1.015,0.149-1.544c0-0.529-0.051-1.045-0.148-1.542c-0.102-0.514-0.251-1.009-0.444-1.477
		c-0.197-0.479-0.441-0.936-0.727-1.366c-0.234-0.354-0.497-0.689-0.784-1L13.57,4.154c0.08,0.088,0.157,0.178,0.232,0.27
		c0.135,0.166,0.261,0.337,0.377,0.511c0.113,0.171,0.222,0.352,0.323,0.543C14.585,5.632,14.661,5.79,14.73,5.947 M14.383,9.068
		c-1.141,0.321-2.117,0.899-2.822,1.705c-0.751,0.86-1.194,1.99-1.194,3.357v0.075c0.372-0.106,0.729-0.249,1.065-0.424
		c0.393-0.203,0.76-0.451,1.095-0.735c-0.021-0.133,0.019-0.273,0.12-0.375l0.108-0.109c0.13-0.131,0.254-0.268,0.369-0.41
		c0.111-0.137,0.223-0.286,0.33-0.448c0.108-0.163,0.204-0.322,0.286-0.475c0.083-0.156,0.162-0.322,0.235-0.499l0.008-0.019
		c0.064-0.157,0.123-0.325,0.178-0.503c0.054-0.179,0.1-0.358,0.134-0.539c0.037-0.189,0.065-0.373,0.082-0.552L14.383,9.068z
		 M13.077,13.712c-0.383,0.324-0.802,0.605-1.25,0.838c-0.555,0.287-1.154,0.499-1.786,0.623c-0.034,0.009-0.07,0.013-0.107,0.013
		c-0.24,0-0.435-0.193-0.435-0.433V14.13c0-1.587,0.524-2.91,1.411-3.925c0.867-0.992,2.078-1.683,3.482-2.032l-0.005-0.068V8.103
		V8.1V8.096l-0.001-0.003V8.089V8.087V8.085l-0.001-0.001V8.081V8.078V8.076V8.074l-0.001-0.003V8.068V8.065V8.063l-0.001-0.006
		V8.052c-0.002-0.026-0.006-0.051-0.009-0.076c-0.008-0.084-0.018-0.169-0.03-0.254V7.72l-0.003-0.015V7.705l-0.001-0.008V7.695
		l-0.004-0.016V7.678L14.336,7.67l-0.003-0.017V7.652l-0.002-0.015V7.635l-0.007-0.035l-0.001-0.005V7.591L14.32,7.574l-0.001-0.005
		l-0.001-0.003l-0.001-0.009l-0.001-0.004l-0.001-0.005l-0.001-0.004V7.54l-0.001-0.003l-0.002-0.014L14.311,7.52L14.31,7.513V7.51
		l-0.002-0.006V7.502l-0.003-0.017l-0.002-0.007V7.477L14.3,7.46l-0.005-0.018l-0.001-0.008h-0.001l-0.001-0.009L14.29,7.417
		l-0.001-0.009L14.287,7.4l-0.005-0.025L14.274,7.34l-0.004-0.016L14.27,7.316V7.315l-0.002-0.008L14.26,7.273l-0.002-0.009
		l-0.005-0.016l-0.002-0.009l-0.004-0.017l-0.002-0.008l-0.002-0.008l-0.004-0.017L14.237,7.18L14.23,7.155l-0.002-0.008
		l-0.002-0.009L14.225,7.13l-0.004-0.017l-0.003-0.008l-0.002-0.009L14.211,7.08l-0.003-0.008l-0.002-0.008V7.063l-0.002-0.008
		l-0.002-0.008l-0.003-0.009l-0.002-0.008l-0.002-0.009l-0.003-0.008L14.19,7.004l-0.003-0.009l-0.002-0.008l-0.002-0.008V6.979
		L14.181,6.97l-0.002-0.008l-0.003-0.008V6.954l-0.002-0.008L14.17,6.938l-0.002-0.009L14.165,6.92l-0.002-0.008V6.912l-0.002-0.008
		l-0.002-0.005l-0.001-0.004V6.894l-0.002-0.005l-0.001-0.002l-0.001-0.004l-0.001-0.004V6.877l-0.002-0.004L14.15,6.869
		l-0.001-0.001l-0.001-0.005l-0.001-0.003l-0.001-0.002l-0.001-0.005l-0.001-0.001V6.848l-0.002-0.005l-0.002-0.005L14.14,6.834
		V6.833l-0.002-0.005l-0.001-0.002l-0.001-0.003l-0.001-0.005l-0.002-0.005l-0.001-0.004l-0.001-0.001L14.13,6.802l-0.002-0.003
		l-0.001-0.002l-0.001-0.005l-0.001-0.001l-0.001-0.004l-0.001-0.005l-0.002-0.005L14.12,6.774l-0.001-0.002l-0.001-0.005
		l-0.001-0.002l-0.001-0.003l-0.001-0.005h-0.001l-0.001-0.005l-0.002-0.004V6.748l-0.002-0.005V6.74l-0.001-0.003l-0.002-0.005
		l-0.002-0.005l-0.001-0.004V6.723l-0.002-0.005l-0.001-0.003V6.713l-0.002-0.005V6.707l-0.002-0.003l-0.001-0.005l-0.002-0.005
		L14.093,6.69l-0.001-0.002L14.09,6.684V6.682l-0.001-0.003l-0.003-0.005l-0.002-0.004l-0.001-0.004V6.665l-0.002-0.005L14.08,6.657
		V6.654L14.078,6.65V6.648l-0.002-0.003l-0.002-0.005l-0.001-0.005l-0.001-0.003L14.071,6.63l-0.002-0.005V6.625l-0.002-0.004
		l-0.001-0.004V6.615l-0.002-0.004l-0.001-0.003l-0.001-0.002l-0.001-0.005L14.061,6.6L14.06,6.598l-0.002-0.005V6.591l-0.001-0.004
		H3.477L3.476,6.589L3.475,6.592L3.472,6.598v0.001L3.47,6.603L3.469,6.606L3.466,6.612v0.002L3.464,6.619L3.463,6.623L3.462,6.624
		L3.46,6.628V6.63L3.459,6.633L3.458,6.638L3.456,6.644L3.455,6.647L3.454,6.649L3.451,6.653v0.002L3.45,6.659L3.448,6.664v0.001
		L3.446,6.669L3.445,6.671L3.444,6.674L3.442,6.679L3.44,6.686L3.439,6.688L3.438,6.69L3.438,6.695L3.437,6.696L3.436,6.7
		L3.435,6.705L3.434,6.707L3.432,6.713L3.43,6.716L3.428,6.721L3.426,6.728L3.425,6.729L3.424,6.732L3.422,6.737L3.421,6.742
		L3.419,6.747v0.002L3.417,6.753L3.417,6.754L3.416,6.758L3.413,6.77L3.412,6.771L3.41,6.774L3.403,6.796L3.401,6.801L3.4,6.805
		L3.399,6.807L3.398,6.813L3.397,6.814L3.396,6.817L3.395,6.822L3.394,6.829L3.393,6.832L3.392,6.833L3.389,6.838v0.001L3.388,6.844
		L3.386,6.849V6.85L3.382,6.86L3.381,6.865H3.38L3.379,6.872L3.378,6.875L3.377,6.877L3.375,6.882L3.374,6.892L3.373,6.894
		l-0.01,0.033L3.36,6.935H3.359L3.354,6.951L3.353,6.959L3.351,6.967L3.347,6.977L3.345,6.984L3.342,6.994L3.34,7.001L3.337,7.009
		L3.335,7.019L3.333,7.026H3.333L3.332,7.036L3.329,7.043L3.326,7.051L3.319,7.078L3.316,7.085L3.314,7.093L3.311,7.11L3.309,7.12
		L3.305,7.127L3.303,7.135L3.301,7.145L3.299,7.152L3.296,7.162L3.292,7.177L3.291,7.187L3.289,7.194L3.287,7.204L3.284,7.211
		L3.282,7.22L3.28,7.229L3.277,7.236L3.275,7.246L3.273,7.254L3.271,7.262L3.27,7.271L3.269,7.279L3.267,7.288L3.264,7.296
		L3.262,7.304L3.26,7.313L3.258,7.321L3.256,7.331L3.254,7.338L3.252,7.346L3.25,7.355L3.249,7.363L3.248,7.373L3.246,7.38
		L3.243,7.39L3.241,7.397L3.239,7.406L3.238,7.415L3.236,7.422L3.234,7.432L3.232,7.44L3.23,7.448L3.229,7.458L3.229,7.465
		L3.227,7.474v0.001L3.225,7.482v0.001L3.224,7.489L3.222,7.491L3.221,7.499V7.5L3.22,7.506L3.219,7.509L3.218,7.515L3.217,7.519
		L3.216,7.522v0.005L3.215,7.53L3.214,7.537L3.213,7.539L3.212,7.545v0.001L3.21,7.553v0.002L3.209,7.563v0.001L3.208,7.571
		L3.207,7.58L3.206,7.587L3.205,7.588L3.204,7.595v0.002L3.203,7.604L3.201,7.606L3.2,7.611v0.003L3.199,7.62L3.198,7.624v0.005
		L3.197,7.632L3.196,7.636L3.195,7.642v0.003L3.194,7.649L3.193,7.652L3.192,7.658v0.002L3.191,7.667v0.001L3.189,7.675v0.001
		L3.188,7.685L3.188,7.692L3.187,7.7v0.001L3.186,7.708L3.184,7.716v0.002L3.183,7.725L3.182,7.728L3.18,7.74L3.179,7.746
		c-0.012,0.078-0.021,0.156-0.03,0.233L3.134,8.147v0.001c1.428,0.337,2.668,1.022,3.555,2.02c0.904,1.017,1.44,2.35,1.44,3.962
		v0.646c-0.002,0.023-0.004,0.047-0.007,0.07c-0.04,0.236-0.263,0.396-0.498,0.356c-0.666-0.113-1.299-0.324-1.883-0.618
		c-0.47-0.236-0.909-0.527-1.307-0.862L3.688,14.47c0.637,0.551,1.365,0.999,2.159,1.321c0.896,0.362,1.876,0.562,2.904,0.562
		c1.031,0,2.015-0.2,2.912-0.564c0.795-0.324,1.525-0.775,2.163-1.328L13.077,13.712z M3.136,9.041
		c0.003,0.033,0.006,0.067,0.009,0.1C3.164,9.319,3.19,9.503,3.229,9.693c0.035,0.18,0.081,0.359,0.134,0.538
		c0.056,0.187,0.119,0.361,0.186,0.524c0.071,0.17,0.149,0.335,0.234,0.495c0.084,0.157,0.178,0.314,0.283,0.471
		c0.102,0.155,0.211,0.304,0.325,0.443c0.116,0.142,0.239,0.279,0.37,0.411l0.107,0.108c0.099,0.103,0.139,0.24,0.118,0.371
		c0.349,0.296,0.734,0.551,1.146,0.758c0.357,0.181,0.736,0.324,1.132,0.429V14.13c0-1.386-0.455-2.525-1.221-3.387
		C5.316,9.927,4.309,9.35,3.136,9.041 M2.187,12.963c0.235,0.354,0.498,0.688,0.784,0.999l0.983-0.982
		c-0.08-0.088-0.158-0.178-0.233-0.271c-0.135-0.165-0.261-0.336-0.376-0.51c-0.114-0.171-0.222-0.353-0.324-0.543
		c-0.1-0.188-0.19-0.379-0.271-0.573c-0.084-0.203-0.157-0.405-0.216-0.603c-0.061-0.2-0.113-0.409-0.156-0.624
		c-0.039-0.199-0.07-0.411-0.092-0.636C2.264,9,2.252,8.786,2.252,8.579c0-0.152,0.007-0.308,0.018-0.468l0.001-0.009V8.101
		l0.001-0.008V8.09V8.083L2.273,8.08V8.074V8.069l0.001-0.003V8.06c0.005-0.057,0.01-0.113,0.016-0.169
		c0.011-0.109,0.024-0.216,0.041-0.321l0.001-0.009V7.56l0.001-0.01l0.002-0.007V7.54l0.001-0.006l0.001-0.004V7.524l0.001-0.004
		l0.001-0.006L2.34,7.51V7.505L2.341,7.5l0.001-0.004L2.343,7.49V7.487l0.002-0.006V7.479l0.001-0.007l0.001-0.002l0.001-0.008V7.46
		l0.002-0.009l0.001-0.009l0.002-0.009V7.433l0.001-0.008V7.422l0.002-0.007V7.414l0.001-0.007l0.001-0.003l0.001-0.006L2.36,7.395
		l0.001-0.006V7.384l0.001-0.005l0.001-0.004l0.001-0.005l0.001-0.005l0.001-0.004l0.001-0.005V7.353l0.001-0.006L2.37,7.343
		l0.001-0.006l0.001-0.002l0.001-0.008V7.326l0.002-0.008V7.317L2.375,7.31l0.001-0.001l0.001-0.009l0.002-0.01l0.002-0.01
		l0.003-0.01l0.002-0.01l0.002-0.01l0.002-0.01l0.002-0.01l0.002-0.01l0.002-0.01l0.002-0.01L2.4,7.19l0.002-0.011L2.404,7.17
		l0.003-0.011L2.409,7.15l0.002-0.01l0.002-0.01h0.001l0.001-0.01l0.003-0.01l0.002-0.01l0.002-0.01l0.003-0.009L2.427,7.07
		l0.002-0.009l0.003-0.01l0.002-0.01l0.002-0.01l0.002-0.009l0.003-0.01l0.002-0.01l0.003-0.01l0.002-0.009l0.003-0.01l0.002-0.01
		l0.003-0.01l0.002-0.01L2.46,6.935l0.003-0.01l0.002-0.01l0.003-0.01l0.003-0.009l0.002-0.01l0.003-0.009l0.002-0.01l0.003-0.009
		l0.002-0.01l0.003-0.01l0.003-0.009l0.002-0.01l0.003-0.01l0.003-0.009L2.5,6.79L2.502,6.78l0.003-0.01l0.003-0.009l0.002-0.01
		l0.003-0.009l0.003-0.01l0.003-0.01l0.002-0.009l0.003-0.009l0.003-0.01L2.53,6.686l0.003-0.01l0.003-0.009L2.54,6.657l0.002-0.009
		l0.003-0.01l0.003-0.009L2.55,6.621l0.003-0.01l0.003-0.009L2.56,6.592l0.002-0.009l0.003-0.01l0.003-0.009l0.004-0.01l0.003-0.009
		l0.003-0.009l0.003-0.01l0.003-0.009l0.003-0.009L2.589,6.5l0.003-0.01L2.596,6.48L2.6,6.47l0.003-0.009l0.003-0.009l0.003-0.01
		l0.004-0.009l0.003-0.01l0.003-0.009l0.004-0.009l0.003-0.01l0.003-0.009l0.004-0.009l0.003-0.01l0.004-0.009l0.003-0.01
		l0.003-0.009l0.004-0.009l0.003-0.01l0.004-0.009l0.003-0.01l0.004-0.009l0.003-0.01L2.67,6.273l0.004-0.01l0.003-0.009l0.004-0.01
		l0.004-0.009l0.003-0.009l0.004-0.01l0.003-0.009l0.004-0.01l0.004-0.009l0.004-0.01L2.71,6.169l0.004-0.01L2.718,6.15l0.004-0.01
		l0.004-0.01l0.003-0.009l0.004-0.01l0.004-0.009l0.004-0.01l0.004-0.009l0.004-0.01C2.831,5.878,2.921,5.688,3.021,5.5
		C3.12,5.316,3.224,5.142,3.333,4.977L3.349,4.95c0.113-0.17,0.24-0.341,0.38-0.512c0.076-0.094,0.155-0.184,0.235-0.273
		L2.981,3.184C2.693,3.495,2.429,3.83,2.193,4.185c-0.287,0.43-0.532,0.888-0.731,1.368C1.27,6.022,1.118,6.518,1.018,7.033
		C0.918,7.531,0.866,8.048,0.866,8.579c0,0.529,0.052,1.044,0.15,1.542c0.101,0.514,0.251,1.009,0.443,1.477
		C1.657,12.077,1.901,12.534,2.187,12.963"/>
</g>
</svg>
