<?xml version="1.0" encoding="utf-8"?>
<!-- Generator: Adobe Illustrator 16.0.0, SVG Export Plug-In . SVG Version: 6.00 Build 0)  -->
<!DOCTYPE svg PUBLIC "-//W3C//DTD SVG 1.1//EN" "http://www.w3.org/Graphics/SVG/1.1/DTD/svg11.dtd">
<svg version="1.1" id="Layer_1" xmlns="http://www.w3.org/2000/svg" xmlns:xlink="http://www.w3.org/1999/xlink" x="0px" y="0px"
	 width="16.611px" height="16.572px" viewBox="0 0 16.611 16.572" enable-background="new 0 0 16.611 16.572" xml:space="preserve">
<g>
	<defs>
		<rect id="SVGID_1_" y="0" width="16.611" height="16.572"/>
	</defs>
	<clipPath id="SVGID_2_">
		<use xlink:href="#SVGID_1_"  overflow="visible"/>
	</clipPath>
	<path clip-path="url(#SVGID_2_)" fill-rule="evenodd" clip-rule="evenodd" fill="#727171" d="M5.81,7.646L3.579,5.405L2.852,5.436
		C2.711,5.44,2.583,5.377,2.5,5.275L0.096,2.31C-0.045,2.136-0.029,1.885,0.127,1.73l1.611-1.605
		c0.159-0.158,0.409-0.167,0.579-0.028l2.955,2.417C5.39,2.611,5.444,2.757,5.428,2.899L5.395,3.597l2.226,2.235l1.617-1.618
		C9.188,3.708,9.24,3.194,9.398,2.708c0.174-0.539,0.475-1.048,0.902-1.476V1.23c0.523-0.523,1.166-0.857,1.842-1.001
		c0.695-0.148,1.426-0.094,2.096,0.162c0.223,0.085,0.335,0.336,0.25,0.559c-0.022,0.059-0.056,0.11-0.098,0.152l-1.529,1.529
		l0.296,0.971l0.971,0.296l1.528-1.529c0.169-0.169,0.444-0.169,0.613,0c0.05,0.05,0.085,0.109,0.104,0.171
		c0.251,0.665,0.302,1.387,0.156,2.077c-0.145,0.675-0.479,1.318-1.001,1.841l-0.024,0.023c-0.424,0.416-0.924,0.71-1.454,0.88
		c-0.51,0.164-1.048,0.215-1.574,0.152l-0.617,0.619l4.211,4.227l0.001-0.001l0.026,0.029c0.253,0.268,0.379,0.614,0.379,0.959
		c-0.001,0.356-0.138,0.715-0.409,0.986h0.001l-0.023,0.021l-1.737,1.731c-0.272,0.271-0.631,0.405-0.986,0.404
		c-0.358-0.001-0.716-0.137-0.987-0.408l-4.203-4.219l-0.643,0.644c0.051,0.505-0.002,1.019-0.16,1.506
		c-0.173,0.54-0.475,1.048-0.903,1.476l0.001,0.001c-0.524,0.524-1.167,0.857-1.842,1.001c-0.696,0.148-1.426,0.096-2.095-0.162
		c-0.224-0.085-0.336-0.335-0.251-0.559c0.022-0.059,0.056-0.11,0.098-0.152l1.529-1.528l-0.296-0.972l-0.971-0.296L1.07,14.351
		c-0.17,0.169-0.444,0.169-0.613,0c-0.05-0.049-0.085-0.108-0.105-0.171c-0.251-0.664-0.302-1.387-0.155-2.076
		c0.143-0.676,0.477-1.319,1-1.842l0.024-0.022c0.424-0.417,0.924-0.71,1.455-0.881C3.185,9.194,3.723,9.144,4.25,9.207L5.81,7.646z
		 M7.963,6.712C7.952,6.726,7.94,6.74,7.927,6.752C7.915,6.765,7.903,6.775,7.889,6.786L4.697,9.982
		c-0.134,0.144-0.349,0.178-0.521,0.085c-0.413-0.053-0.836-0.015-1.236,0.114c-0.405,0.13-0.787,0.354-1.111,0.672L1.81,10.875
		c-0.402,0.4-0.658,0.893-0.767,1.407c-0.064,0.302-0.079,0.61-0.044,0.914l1.169-1.17l0.002,0.001
		c0.109-0.107,0.272-0.154,0.43-0.106l1.44,0.438c0.134,0.04,0.245,0.145,0.288,0.287l0.428,1.403
		c0.063,0.157,0.031,0.343-0.096,0.469l-1.17,1.17c0.305,0.035,0.614,0.021,0.915-0.044c0.514-0.11,1.006-0.366,1.408-0.767h0.001
		c0.328-0.328,0.559-0.718,0.692-1.129c0.136-0.422,0.17-0.869,0.104-1.305c-0.036-0.161,0.024-0.321,0.142-0.423l5.277-5.283
		c0.134-0.144,0.349-0.178,0.521-0.087c0.413,0.054,0.836,0.017,1.236-0.112c0.405-0.131,0.786-0.355,1.111-0.673l0.019-0.021
		c0.402-0.402,0.658-0.893,0.768-1.408c0.063-0.3,0.078-0.609,0.044-0.914l-1.169,1.17l-0.001-0.001
		c-0.11,0.108-0.273,0.155-0.432,0.107l-1.439-0.438c-0.135-0.041-0.244-0.145-0.288-0.288L11.97,2.67
		c-0.063-0.157-0.03-0.342,0.097-0.469l1.17-1.17c-0.305-0.034-0.614-0.02-0.914,0.044c-0.516,0.11-1.007,0.366-1.409,0.767h-0.001
		c-0.328,0.329-0.559,0.717-0.692,1.129c-0.136,0.422-0.17,0.869-0.104,1.304c0.036,0.161-0.023,0.322-0.142,0.423L7.963,6.712z
		 M7.01,6.442L4.648,4.071c-0.081-0.082-0.13-0.197-0.125-0.323l0.033-0.7L2.071,1.014L1.013,2.067l2.021,2.495l0.693-0.029
		c0.119-0.007,0.24,0.035,0.331,0.127l2.363,2.373L7.01,6.442z M11.248,8.744l-0.939,0.941l4.575,4.606l0.552-0.55l0.02-0.021
		l0.002-0.001c0.104-0.103,0.156-0.238,0.156-0.373c0-0.13-0.046-0.259-0.139-0.36l-0.017-0.015
		C15.459,12.97,12.297,9.797,11.248,8.744 M9.697,10.297l-0.955,0.956l4.205,4.219c0.103,0.104,0.238,0.156,0.374,0.156
		s0.271-0.052,0.376-0.155l0.574-0.571L9.697,10.297z"/>
</g>
</svg>
