<?xml version="1.0" encoding="utf-8"?>
<!-- Generator: Adobe Illustrator 16.0.0, SVG Export Plug-In . SVG Version: 6.00 Build 0)  -->
<!DOCTYPE svg PUBLIC "-//W3C//DTD SVG 1.1//EN" "http://www.w3.org/Graphics/SVG/1.1/DTD/svg11.dtd">
<svg version="1.1" id="Layer_1" xmlns="http://www.w3.org/2000/svg" xmlns:xlink="http://www.w3.org/1999/xlink" x="0px" y="0px"
	 width="330.021px" height="279.676px" viewBox="0 0 330.021 279.676" enable-background="new 0 0 330.021 279.676"
	 xml:space="preserve">
<g>
	<defs>
		<rect id="SVGID_1_" width="330.021" height="279.676"/>
	</defs>
	<clipPath id="SVGID_2_">
		<use xlink:href="#SVGID_1_"  overflow="visible"/>
	</clipPath>
	<path clip-path="url(#SVGID_2_)" d="M291.643,199.771c-2.551,0-4.729-1.942-4.973-4.532c-0.257-2.75,1.762-5.188,4.512-5.446
		c14.517-1.362,24.623-5.612,27.731-11.66c2.088-4.065,1.155-9.546-2.776-16.285c-6.18-10.596-24.899-13.902-39.941-16.561
		c-6.438-1.137-12.519-2.211-17.384-3.754c-14.289-4.529-28.033-10.975-41.327-17.209c-18.715-8.776-38.066-17.85-58.888-21.465
		c-38.351-6.658-63.685,4.753-93.015,17.968c-9.338,4.208-18.996,8.56-29.691,12.657c-7.696,2.95-13.752,4.063-18.173,4.876
		c-4.558,0.839-6.465,1.277-6.957,2.24c-1.318,2.583-0.65,10.945,0.078,17.942c2.08,19.956,12.171,30.41,29.994,31.072
		c2.76,0.103,4.914,2.423,4.811,5.182c-0.102,2.76-2.403,4.921-5.182,4.812c-22.915-0.852-36.967-15.066-39.568-40.029
		c-1.419-13.606-1.185-19.323,0.962-23.526c2.785-5.454,8.007-6.414,14.053-7.527c4.263-0.784,9.569-1.759,16.404-4.378
		c10.427-3.996,19.951-8.287,29.162-12.437c30.829-13.892,57.455-25.887,98.833-18.704c22.143,3.845,42.11,13.208,61.421,22.265
		c13,6.096,26.442,12.399,40.104,16.73c4.235,1.342,9.998,2.36,16.101,3.438c17.076,3.018,38.327,6.772,46.843,21.371
		c5.763,9.882,6.781,18.593,3.03,25.894c-6.11,11.895-22.781,15.835-35.69,17.047C291.957,199.764,291.799,199.771,291.643,199.771"
		/>
	<path clip-path="url(#SVGID_2_)" d="M217.606,201.888H115.241c-2.762,0-5-2.239-5-5s2.238-5,5-5h102.366c2.763,0,5,2.239,5,5
		S220.369,201.888,217.606,201.888"/>
	<path clip-path="url(#SVGID_2_)" d="M307.164,170.44c-0.036,0-0.071,0-0.108-0.001c-1.647-0.036-3.536-0.174-4.829-0.284
		c-13.93-1.183-18.149-4.707-22.338-12.159c-1.354-2.407-0.499-5.456,1.908-6.809c2.407-1.354,5.454-0.498,6.808,1.908
		c2.378,4.23,3.464,6.161,14.468,7.096c1.626,0.138,3.117,0.227,4.197,0.25c2.761,0.06,4.952,2.346,4.892,5.106
		C312.103,168.272,309.876,170.44,307.164,170.44"/>
	<path clip-path="url(#SVGID_2_)" d="M78.177,219.73c-16.146,0-29.28-13.136-29.28-29.281s13.134-29.28,29.28-29.28
		s29.281,13.135,29.281,29.28S94.323,219.73,78.177,219.73 M78.177,171.169c-10.631,0-19.28,8.649-19.28,19.28
		c0,10.632,8.649,19.281,19.28,19.281c10.632,0,19.281-8.649,19.281-19.281C97.458,179.818,88.809,171.169,78.177,171.169"/>
	<path clip-path="url(#SVGID_2_)" d="M254.515,219.73c-16.146,0-29.279-13.136-29.279-29.281s13.134-29.28,29.279-29.28
		c16.146,0,29.281,13.135,29.281,29.28S270.661,219.73,254.515,219.73 M254.515,171.169c-10.631,0-19.279,8.649-19.279,19.28
		c0,10.632,8.648,19.281,19.279,19.281c10.632,0,19.281-8.649,19.281-19.281C273.796,179.818,265.146,171.169,254.515,171.169"/>
	<path clip-path="url(#SVGID_2_)" d="M26.198,166.212c-2.917,0-5.031-1.008-6.468-2.108c-2.752-2.107-5.737-6.671-4.33-16.445
		c0.475-3.316,3.375-5.821,6.745-5.821h16.789c2.074,0,3.987,0.943,5.247,2.588c1.258,1.641,1.672,3.728,1.134,5.726
		c-0.101,0.375-0.208,0.754-0.323,1.138c-1.606,5.369-6.719,11.099-11.895,13.327C30.42,165.77,28.132,166.212,26.198,166.212
		 M25.048,151.837c-0.087,2.923,0.546,4.157,0.761,4.326c0.154,0.075,1.202,0.186,3.331-0.73c0,0,0-0.001,0.001-0.001
		c1.461-0.629,3.086-2.026,4.34-3.595H25.048z"/>
	<path clip-path="url(#SVGID_2_)" d="M218.843,146.789c-0.159,0-0.319-0.006-0.479-0.017l-77.215-5.016
		c-2.308-0.149-4.211-1.862-4.604-4.141l-4.37-25.387c-0.244-1.417,0.134-2.87,1.038-3.989c0.904-1.119,2.245-1.794,3.682-1.854
		c1.624-0.071,15.975,0.818,22.815,2.427c20.558,4.836,33.671,10.284,49.375,18.062c2.828,1.4,7.103,3.43,12.708,6.033
		c3.211,1.49,4.835,4.961,3.947,8.44C224.907,144.608,222.11,146.789,218.843,146.789 M145.731,132.034l58.973,3.831
		c-0.021-0.01-0.039-0.019-0.06-0.029c-15.412-7.634-27.503-12.649-47.226-17.288c-3.473-0.817-9.679-1.445-14.321-1.81
		L145.731,132.034z"/>
	<path clip-path="url(#SVGID_2_)" d="M126.032,140.989c-0.102,0-0.204-0.003-0.307-0.009l-43.683-2.687
		c-4.045-0.249-7.256-3.094-7.991-7.08c-0.734-3.988,1.253-7.792,4.947-9.466c1.725-0.782,3.419-1.559,4.943-2.257
		c3.254-1.491,5.139-2.353,6.056-2.719c11.766-4.707,21.822-7.622,31.645-9.174c1.315-0.207,2.655,0.117,3.729,0.901
		c1.074,0.784,1.791,1.963,1.993,3.277l3.609,23.453c0.231,1.495-0.228,3.015-1.248,4.132
		C128.775,140.402,127.432,140.989,126.032,140.989 M87.98,128.64l32.166,1.979l-1.884-12.24
		c-7.558,1.567-15.489,4.053-24.553,7.678c-0.733,0.293-3.098,1.377-5.602,2.525C88.065,128.601,88.022,128.62,87.98,128.64"/>
	<path clip-path="url(#SVGID_2_)" d="M78.177,203.037c-6.94,0-12.587-5.647-12.587-12.588c0-6.941,5.647-12.588,12.587-12.588
		c6.941,0,12.588,5.646,12.588,12.588C90.765,197.39,85.118,203.037,78.177,203.037 M78.177,187.861
		c-1.427,0-2.587,1.161-2.587,2.588s1.16,2.588,2.587,2.588c1.427,0,2.588-1.161,2.588-2.588S79.604,187.861,78.177,187.861"/>
	<path clip-path="url(#SVGID_2_)" d="M254.515,203.037c-6.94,0-12.588-5.647-12.588-12.588c0-6.941,5.647-12.588,12.588-12.588
		c6.941,0,12.588,5.646,12.588,12.588C267.103,197.39,261.456,203.037,254.515,203.037 M254.515,187.861
		c-1.427,0-2.588,1.161-2.588,2.588s1.161,2.588,2.588,2.588c1.428,0,2.588-1.161,2.588-2.588S255.942,187.861,254.515,187.861"/>
	<path clip-path="url(#SVGID_2_)" d="M306.973,226.624h-288c-2.762,0-5-2.239-5-5c0-2.762,2.238-5,5-5h288c2.763,0,5,2.238,5,5
		C311.973,224.385,309.735,226.624,306.973,226.624"/>
	<path clip-path="url(#SVGID_2_)" d="M149.08,279.676H56.716c-2.762,0-5-2.238-5-5s2.238-5,5-5h92.363c2.762,0,5,2.238,5,5
		S151.841,279.676,149.08,279.676"/>
	<path clip-path="url(#SVGID_2_)" d="M30.489,279.676h-2.278c-2.762,0-5-2.238-5-5s2.238-5,5-5h2.278c2.762,0,5,2.238,5,5
		S33.251,279.676,30.489,279.676 M8.211,279.676H5.934c-2.762,0-5-2.238-5-5s2.238-5,5-5h2.277c2.762,0,5,2.238,5,5
		S10.973,279.676,8.211,279.676"/>
	<path clip-path="url(#SVGID_2_)" d="M251.882,279.676h-43.399c-2.763,0-5-2.238-5-5s2.237-5,5-5h43.399c2.763,0,5,2.238,5,5
		S254.645,279.676,251.882,279.676"/>
	<path clip-path="url(#SVGID_2_)" d="M182.256,279.676h-2.277c-2.763,0-5-2.238-5-5s2.237-5,5-5h2.277c2.763,0,5,2.238,5,5
		S185.019,279.676,182.256,279.676"/>
	<path clip-path="url(#SVGID_2_)" d="M280.136,258.624h-122.91c-2.762,0-5-2.238-5-5s2.238-5,5-5h122.91c2.763,0,5,2.238,5,5
		S282.898,258.624,280.136,258.624"/>
	<path clip-path="url(#SVGID_2_)" d="M85.765,258.624H45.81c-2.762,0-5-2.238-5-5s2.238-5,5-5h39.955c2.762,0,5,2.238,5,5
		S88.527,258.624,85.765,258.624"/>
	<path clip-path="url(#SVGID_2_)" d="M134.32,258.624h-2.277c-2.762,0-5-2.238-5-5s2.238-5,5-5h2.277c2.762,0,5,2.238,5,5
		S137.083,258.624,134.32,258.624 M112.043,258.624h-2.278c-2.762,0-5-2.238-5-5s2.238-5,5-5h2.278c2.762,0,5,2.238,5,5
		S114.805,258.624,112.043,258.624"/>
	<path clip-path="url(#SVGID_2_)" d="M62.298,89.516c-23.143,0-41.971-18.828-41.971-41.971S39.155,5.573,62.298,5.573
		c23.144,0,41.972,18.829,41.972,41.972S85.442,89.516,62.298,89.516 M62.298,15.573c-17.629,0-31.971,14.342-31.971,31.972
		c0,17.629,14.342,31.971,31.971,31.971S94.27,65.174,94.27,47.545C94.27,29.915,79.927,15.573,62.298,15.573"/>
	<path clip-path="url(#SVGID_2_)" d="M292.097,103.264h-58.708c-2.762,0-5-2.238-5-5V5c0-2.761,2.238-5,5-5h58.708
		c2.763,0,5,2.239,5,5v93.264C297.097,101.026,294.859,103.264,292.097,103.264 M238.389,93.264h48.708V9.999h-48.708V93.264z"/>
	<path clip-path="url(#SVGID_2_)" d="M268.688,84.286c0,3.284-2.661,5.945-5.944,5.945c-3.284,0-5.945-2.661-5.945-5.945
		c0-3.283,2.661-5.945,5.945-5.945C266.026,78.341,268.688,81.003,268.688,84.286"/>
	<path clip-path="url(#SVGID_2_)" d="M291.726,76.268h-58.337c-1.381,0-2.5-1.119-2.5-2.5s1.119-2.5,2.5-2.5h58.337
		c1.381,0,2.5,1.119,2.5,2.5S293.106,76.268,291.726,76.268"/>
	<path clip-path="url(#SVGID_2_)" d="M271.289,18.789h-16.721c-1.381,0-2.5-1.119-2.5-2.5s1.119-2.5,2.5-2.5h16.721
		c1.381,0,2.5,1.119,2.5,2.5S272.67,18.789,271.289,18.789"/>
	<path clip-path="url(#SVGID_2_)" d="M76.183,39.145c0,0.238-0.006,0.476-0.018,0.71c-0.012,0.236-0.03,0.47-0.053,0.702
		c-0.035,0.348-0.084,0.692-0.145,1.032c-0.066,0.371-0.148,0.736-0.243,1.096c-0.183,0.692-0.419,1.363-0.701,2.007
		c-0.041,0.094-0.083,0.185-0.126,0.277c-0.15,0.322-0.312,0.636-0.485,0.944c-0.052,0.092-0.105,0.184-0.159,0.274
		c-0.645,1.087-1.436,2.079-2.345,2.947c-0.086,0.083-0.174,0.164-0.263,0.244c-0.152,0.138-0.308,0.272-0.465,0.403
		c-0.103,0.086-0.208,0.17-0.314,0.253c-0.235,0.183-0.475,0.358-0.721,0.526c-0.035,0.024-0.071,0.048-0.107,0.072
		c-0.326,0.218-0.661,0.422-1.005,0.612c-0.311,0.172-0.629,0.331-0.954,0.479c-0.02,0.009-0.04,0.017-0.06,0.026
		c-0.643,0.289-1.313,0.529-2.003,0.717c-0.146,0.04-0.293,0.077-0.44,0.113c-0.695,0.164-1.408,0.277-2.137,0.333
		c-0.235,0.018-0.47,0.03-0.706,0.035c-0.118,0.004-0.238,0.005-0.357,0.005s-0.238-0.001-0.356-0.005
		c-0.237-0.005-0.472-0.017-0.706-0.035c-0.731-0.056-1.443-0.169-2.137-0.333c-0.147-0.036-0.295-0.073-0.44-0.113
		c-0.692-0.188-1.361-0.428-2.004-0.717c-0.02-0.009-0.039-0.017-0.059-0.026c-0.291-0.132-0.576-0.274-0.855-0.425
		c-0.379-0.205-0.748-0.427-1.105-0.666c-0.036-0.024-0.071-0.048-0.106-0.072c-0.247-0.168-0.487-0.343-0.722-0.526
		c-0.105-0.083-0.21-0.167-0.313-0.253c-0.159-0.131-0.314-0.265-0.465-0.403c-0.169-0.152-0.334-0.309-0.494-0.47
		c-0.814-0.812-1.525-1.727-2.116-2.721c-0.053-0.09-0.106-0.182-0.158-0.274c-0.174-0.308-0.335-0.622-0.484-0.944
		c-0.043-0.092-0.085-0.183-0.126-0.277c-0.283-0.644-0.519-1.315-0.702-2.007c-0.095-0.36-0.177-0.725-0.243-1.096
		c-0.061-0.34-0.109-0.684-0.144-1.032c-0.023-0.232-0.042-0.466-0.054-0.702c-0.012-0.234-0.017-0.472-0.017-0.71
		s-0.023-0.475-0.009-0.71c0.007-0.144,0.001-0.288,0.001-0.431V38c0-0.089,0.043-0.178,0.052-0.267
		c0.008-0.087,0.033-0.173,0.044-0.26c0.03-0.26,0.075-0.517,0.121-0.772c0.066-0.37,0.151-0.736,0.246-1.096
		c0.182-0.692,0.421-1.362,0.704-2.007c0.02-0.047,0.042-0.093,0.062-0.139c0.021-0.046,0.042-0.092,0.064-0.138
		c0.149-0.321,0.311-0.636,0.484-0.944c0.053-0.092,0.106-0.184,0.159-0.274c0.647-1.087,1.437-2.079,2.347-2.947
		c0.086-0.082,0.174-0.163,0.262-0.244c0.152-0.138,0.307-0.272,0.466-0.403c0.103-0.085,0.208-0.17,0.313-0.252
		c0.235-0.183,0.475-0.359,0.721-0.526c0.036-0.024,0.071-0.049,0.107-0.072c0.619-0.415,1.275-0.781,1.96-1.092
		c0.02-0.009,0.039-0.017,0.059-0.026c0.643-0.289,1.312-0.529,2.004-0.717c0.145-0.039,0.293-0.077,0.44-0.113
		c0.694-0.164,1.406-0.277,2.137-0.333c0.234-0.017,0.469-0.029,0.706-0.035c0.118-0.003,0.237-0.004,0.356-0.004
		s0.239,0.001,0.357,0.004c0.236,0.006,0.471,0.018,0.706,0.035c0.729,0.056,1.442,0.169,2.137,0.333
		c0.147,0.036,0.294,0.074,0.44,0.113c0.69,0.188,1.36,0.428,2.003,0.717c0.02,0.009,0.04,0.017,0.06,0.026
		c0.685,0.311,1.339,0.677,1.959,1.092c0.036,0.023,0.072,0.048,0.107,0.072c0.246,0.167,0.486,0.343,0.721,0.526
		c0.106,0.082,0.211,0.167,0.314,0.252c0.157,0.131,0.313,0.265,0.465,0.403c0.087,0.079,0.174,0.16,0.26,0.242
		c0.91,0.868,1.702,1.861,2.348,2.949c0.054,0.09,0.107,0.182,0.159,0.274c0.173,0.308,0.335,0.623,0.485,0.944
		c0.043,0.092,0.085,0.184,0.126,0.277c0.282,0.645,0.518,1.315,0.701,2.007c0.095,0.36,0.177,0.726,0.243,1.096
		c0.061,0.34,0.11,0.684,0.145,1.032c0.011,0.109,0.02,0.218,0.029,0.327c0.01,0.124,0.018,0.25,0.024,0.375
		C76.177,38.67,76.183,38.907,76.183,39.145"/>
	<path clip-path="url(#SVGID_2_)" d="M48.613,37.996c0.003,0.002,0.007,0.004,0.009,0.006c0.001,0,0.001,0.001,0.001,0.001V38
		C48.62,37.999,48.616,37.997,48.613,37.996 M48.364,37.869c0.013,0.006,0.025,0.013,0.037,0.02
		c0.064,0.035,0.113,0.071,0.212,0.107c-0.014-0.009-0.028-0.019-0.045-0.027C48.508,37.935,48.429,37.901,48.364,37.869"/>
	<path clip-path="url(#SVGID_2_)" d="M48.364,37.869c0.065,0.032,0.144,0.066,0.204,0.1c-0.05-0.027-0.111-0.054-0.167-0.08
		C48.389,37.882,48.376,37.875,48.364,37.869"/>
	<polyline clip-path="url(#SVGID_2_)" points="48.623,38 48.623,38.003 48.622,38.002 48.612,37.997 48.623,38 	"/>
	<path clip-path="url(#SVGID_2_)" d="M85.328,65.358v14.296c0,0.294-0.117,0.227-0.397,0.227H39.821
		c-0.28,0-0.553,0.067-0.553-0.227V65.358c0-0.23-0.001-0.459,0.01-0.687c0.164-3.404,1.53-6.493,3.663-8.809
		c0.064-0.068,0.126-0.136,0.191-0.203c1.064-1.11,2.308-2.032,3.679-2.713c0.083-0.041,0.166-0.082,0.25-0.121
		c0.378-0.177,0.766-0.337,1.162-0.477c0.088-0.032,0.176-0.062,0.265-0.091c0.356-0.117,0.716-0.218,1.083-0.304
		c0.448,0.431,0.916,0.837,1.402,1.217c1.24,0.972,2.594,1.782,4.03,2.417c0.269,0.12,0.542,0.233,0.815,0.338
		c1.058,0.41,2.142,0.717,3.245,0.921c1.083,0.199,2.185,0.3,3.301,0.3c1.276,0,2.53-0.173,3.759-0.434
		c0.152-0.032,2.328-0.559,2.909-0.79c0.231-0.09,0.46-0.291,0.688-0.392c1.123-0.497,2.181-0.9,3.176-1.91
		c0.111,0,0.221-0.077,0.329-0.158c0.655-0.486,1.281-0.976,1.879-1.549c5.661,1.318,9.922,6.508,10.216,12.738
		C85.332,64.879,85.328,65.128,85.328,65.358"/>
	<path clip-path="url(#SVGID_2_)" d="M55.003,55.587c-1.436-0.635-2.79-1.445-4.03-2.417c1.238,0.972,2.589,1.782,4.024,2.417
		c0.272,0.121,0.546,0.234,0.821,0.34c1.058,0.409,2.141,0.716,3.246,0.919"/>
	<path clip-path="url(#SVGID_2_)" d="M195.814,35.931h-53.791l15.183-12.351c1.59-1.294,1.831-3.632,0.537-5.223
		c-1.294-1.592-3.634-1.832-5.223-0.538l-23.288,18.944c-0.867,0.706-1.906,1.673-2.087,2.932c-0.261,1.829,0.209,3.292,2.457,3.606
		l12.421,0.056h53.791c2.052,0,3.713-1.662,3.713-3.713C199.527,37.593,197.866,35.931,195.814,35.931"/>
	<path clip-path="url(#SVGID_2_)" d="M130.794,58.504h53.791l-15.183,12.351c-1.59,1.295-1.831,3.632-0.537,5.223
		c1.294,1.592,3.634,1.832,5.223,0.538l23.288-18.944c0.867-0.706,1.906-1.673,2.086-2.932c0.263-1.829-0.209-3.292-2.456-3.606
		l-12.421-0.055h-53.791c-2.051,0-3.713,1.662-3.713,3.712C127.081,56.842,128.743,58.504,130.794,58.504"/>
</g>
</svg>
