<?xml version="1.0" encoding="utf-8"?>
<!-- Generator: Adobe Illustrator 16.0.0, SVG Export Plug-In . SVG Version: 6.00 Build 0)  -->
<!DOCTYPE svg PUBLIC "-//W3C//DTD SVG 1.1//EN" "http://www.w3.org/Graphics/SVG/1.1/DTD/svg11.dtd">
<svg version="1.1" id="Layer_1" xmlns="http://www.w3.org/2000/svg" xmlns:xlink="http://www.w3.org/1999/xlink" x="0px" y="0px"
	 width="638.02px" height="300.094px" viewBox="0 0 638.02 300.094" enable-background="new 0 0 638.02 300.094"
	 xml:space="preserve">
<g>
	<defs>
		<rect id="SVGID_1_" width="638.02" height="300.094"/>
	</defs>
	<clipPath id="SVGID_2_">
		<use xlink:href="#SVGID_1_"  overflow="visible"/>
	</clipPath>
	<path clip-path="url(#SVGID_2_)" fill="#EF7622" d="M360.394,250.614h-31.601v-17.65h27.29v-25.346
		c0-6.282-5.122-11.384-11.369-11.384h-31.385v10.843h27.26v15.029h-27.26v27.981c0,6.298,5.093,11.368,11.347,11.368h35.718
		V250.614z"/>
	<path clip-path="url(#SVGID_2_)" fill="#EF7622" d="M349.744,286.645v-19.476h-15.493v18.92c0,6.284,5.122,11.397,11.396,11.397
		h61.44v-10.842H349.744z"/>
	<rect x="389.649" y="196.206" clip-path="url(#SVGID_2_)" fill="#EF7622" width="15.137" height="72.089"/>
	<polygon clip-path="url(#SVGID_2_)" fill="#EF7622" points="383.374,196.206 368.215,196.206 368.215,222.18 360.071,222.18 
		360.071,233.005 368.215,233.005 368.215,268.295 383.374,268.295 	"/>
	<path clip-path="url(#SVGID_2_)" fill="#EF7622" d="M625.839,224.072v-27.767h-15.493v101.295h4.089
		c6.297,0,11.404-5.087,11.404-11.354v-51.331h12.181v-10.843H625.839z"/>
	<path clip-path="url(#SVGID_2_)" fill="#EF7622" d="M538.407,207.147h37.974v16.953h-37.917v10.843h37.383
		c-2.599,17.381-14.645,28.65-28.692,28.65h-13.812v10.841h14.104c25.21,0,44.386-19.931,44.386-45.39v-32.739h-53.425V207.147z"/>
	<path clip-path="url(#SVGID_2_)" fill="#EF7622" d="M500.967,196.334v27.768h-13.086v10.842h13.086v62.701h4.103
		c6.283,0,11.382-5.103,11.382-11.385v-89.926H500.967z"/>
	<path clip-path="url(#SVGID_2_)" fill="#EF7622" d="M425.409,207.688v49.267c0,6.282,5.112,11.368,11.383,11.368h50.14v-10.826
		h-46.038v-22.554h37.734v-10.843h-37.734v-16.938h46.038v-10.828h-50.14C430.521,196.335,425.409,201.421,425.409,207.688"/>
	<path clip-path="url(#SVGID_2_)" fill="#CF0A2C" d="M56.431,220.255c-10.643-5.001-19.397-9.033-19.397-17.196
		c0-6.211,4.972-10.728,14.817-10.728c3.597,0,6.589,0.428,9.652,0.983c1.595,0.256,3.291,0.499,4.716,0.499
		c8.597,0,13.477-5.13,16.69-14.874l1.339-3.96c-1.375-0.557-15.43-6.74-33.758-6.74c-29.163,0-44.564,18.707-44.529,38.11
		c0,9.773,3.042,16.868,7.843,22.453c6.191,7.181,15.002,11.882,23.251,15.886c12.01,5.911,22.831,10.258,22.831,18.99
		c0,7.75-8,12.152-18.7,12.152c-14.68,0-27.509-8.363-29.141-9.36L0,289.024c2.158,1.21,17.651,11.069,43.189,11.069
		c27.232-0.014,47.805-15.629,47.805-39.635C90.994,236.582,71.903,227.734,56.431,220.255"/>
	<path clip-path="url(#SVGID_2_)" fill="#CF0A2C" d="M162.869,231.396l49.33-60.491h-35.155l-39.349,52.215h-0.591v-52.215h-28.985
		v128.164h1.73c12.502,0,27.433-5.799,27.433-26.728v-29.433h0.591l40.141,54.563h36.87L162.869,231.396z"/>
	<path clip-path="url(#SVGID_2_)" fill="#CF0A2C" d="M213.857,33.593c-10.215,1.91-25.352,11.17-25.302,27.554
		c0.065,14.859,12.195,23.905,12.266,43.381c0.036,14.646-8.049,24.533-16.782,30.018c3.54-0.328,7.408-0.528,11.668-0.528
		c8.933-0.042,14.289,0.813,14.631,0.87l45.783-56.161C243.414,59.694,228.561,44.934,213.857,33.593"/>
	<path clip-path="url(#SVGID_2_)" fill="#CF0A2C" d="M252.289,185.265c5.791-8.961,6.518-23.265,6.988-37.825
		c0.556-13.578,3.369-23.792,21.555-23.835c4.025-0.028,7.872,0.527,14.803,0.499c26.641-0.114,43.986-9.289,54.821-15.316
		c-22.082-14.061-54.33-28.436-94.334-30.061c-2.608,7.338-22.881,63.712-24.427,68.257c0.257,0.271,3.819,4.26,8.22,12.01
		C246.462,169.65,249.959,178.683,252.289,185.265"/>
	<path clip-path="url(#SVGID_2_)" fill="#EF7622" d="M155.596,139.233c-2.293,0.029-3.455-1.539-3.754-4.188
		c-0.313-2.65-11.746-107.393-13.449-123.235c-0.271-2.322-0.827-6.582-0.827-8.078c0-2.45,1.575-3.732,3.441-3.732
		c5.435-0.015,34.99,6.909,66.362,28.906c-9.025,2.536-25.396,11.953-25.31,31.4c0.072,17.224,12.409,26.727,12.445,43.994
		C194.632,132.438,162.313,139.219,155.596,139.233"/>
	<path clip-path="url(#SVGID_2_)" fill="#EF7622" d="M254.917,192.759c0.491,1.296,0.955,2.395,1.446,3.177
		c0.706,1.211,1.653,1.767,2.8,1.738c0.748,0,1.624-0.214,2.614-0.685c2.429-1.097,98.011-45.618,112.422-52.242
		c2.093-1.011,6.053-2.793,7.364-3.548c1.368-0.783,1.974-1.895,1.974-3.048c0-0.642-0.185-1.282-0.541-1.867
		c-1.816-2.92-11.071-12.736-26.521-23.464c-12.288,6.753-31.442,17.224-59.972,17.31c-6.988,0.028-8.569-0.428-13.335-0.428
		c-13.926,0.057-17.409,6.012-17.9,18.207c-0.101,2.308-0.129,5.429-0.271,8.819C264.562,167.642,263.244,182.686,254.917,192.759"
		/>
</g>
</svg>
