<?xml version="1.0" encoding="utf-8"?>
<!-- Generator: Adobe Illustrator 16.0.0, SVG Export Plug-In . SVG Version: 6.00 Build 0)  -->
<!DOCTYPE svg PUBLIC "-//W3C//DTD SVG 1.1//EN" "http://www.w3.org/Graphics/SVG/1.1/DTD/svg11.dtd">
<svg version="1.1" id="Layer_1" xmlns="http://www.w3.org/2000/svg" xmlns:xlink="http://www.w3.org/1999/xlink" x="0px" y="0px"
	 width="43.925px" height="43.922px" viewBox="0 0 43.925 43.922" enable-background="new 0 0 43.925 43.922" xml:space="preserve">
<g>
	<defs>
		<path id="SVGID_1_" d="M21.243,0.011C9.743,0.378,0.378,9.744,0.013,21.244c-0.405,12.701,9.145,22.667,22.673,22.667
			c6.035,0,9.512-2.92,13.862-2.92s7.375,2.932,7.375,2.932l-0.011-21.247C44.307,10.22,34.327,0.001,21.961,0
			C21.722,0,21.484,0.003,21.243,0.011"/>
	</defs>
	<clipPath id="SVGID_2_">
		<use xlink:href="#SVGID_1_"  overflow="visible"/>
	</clipPath>
	
		<linearGradient id="SVGID_3_" gradientUnits="userSpaceOnUse" x1="0" y1="43.9224" x2="1" y2="43.9224" gradientTransform="matrix(21.6106 46.3441 46.3441 -21.6106 -2022.9154 951.2823)">
		<stop  offset="0" style="stop-color:#E94F12"/>
		<stop  offset="0.4333" style="stop-color:#E73312"/>
		<stop  offset="1" style="stop-color:#D1191B"/>
	</linearGradient>
	<polygon clip-path="url(#SVGID_2_)" fill="url(#SVGID_3_)" points="36.323,-17.12 61.13,36.078 7.591,61.043 -17.215,7.845 	"/>
</g>
<g>
	<defs>
		<rect id="SVGID_4_" y="0" width="43.924" height="43.922"/>
	</defs>
	<clipPath id="SVGID_5_">
		<use xlink:href="#SVGID_4_"  overflow="visible"/>
	</clipPath>
	<path clip-path="url(#SVGID_5_)" fill="#FFFFFF" d="M5.142,19.303c-0.495-0.272-0.883-0.65-1.165-1.133
		c-0.281-0.483-0.421-1.024-0.421-1.622c0-0.599,0.14-1.139,0.421-1.622c0.282-0.483,0.672-0.86,1.169-1.133
		c0.498-0.273,1.055-0.409,1.671-0.409c0.462,0,0.889,0.077,1.28,0.231c0.391,0.154,0.723,0.379,0.995,0.676l-0.417,0.417
		c-0.486-0.491-1.099-0.738-1.84-0.738c-0.492,0-0.939,0.113-1.342,0.338c-0.403,0.225-0.719,0.534-0.947,0.925
		s-0.341,0.829-0.341,1.315c0,0.486,0.113,0.924,0.341,1.316c0.228,0.39,0.544,0.699,0.947,0.923
		c0.403,0.226,0.85,0.338,1.342,0.338c0.746,0,1.36-0.249,1.84-0.746l0.417,0.418c-0.272,0.296-0.605,0.523-0.999,0.679
		c-0.395,0.158-0.823,0.236-1.284,0.236C6.191,19.712,5.637,19.575,5.142,19.303"/>
	<path clip-path="url(#SVGID_5_)" fill="#FFFFFF" d="M11.204,19.298c-0.501-0.275-0.892-0.653-1.174-1.133
		c-0.281-0.479-0.422-1.019-0.422-1.617c0-0.599,0.141-1.138,0.422-1.618c0.282-0.48,0.673-0.857,1.174-1.133
		c0.5-0.276,1.058-0.413,1.675-0.413c0.616,0,1.171,0.136,1.666,0.408c0.495,0.273,0.884,0.651,1.169,1.134
		c0.284,0.483,0.426,1.023,0.426,1.622c0,0.598-0.142,1.139-0.426,1.621c-0.285,0.484-0.674,0.861-1.169,1.134
		c-0.495,0.272-1.05,0.409-1.666,0.409C12.262,19.712,11.704,19.574,11.204,19.298 M14.212,18.792
		c0.397-0.222,0.708-0.53,0.933-0.924c0.225-0.394,0.338-0.834,0.338-1.32s-0.113-0.926-0.338-1.32
		c-0.225-0.394-0.536-0.702-0.933-0.924s-0.841-0.334-1.333-0.334c-0.492,0-0.938,0.112-1.338,0.334
		c-0.399,0.222-0.714,0.53-0.942,0.924c-0.228,0.394-0.342,0.834-0.342,1.32s0.114,0.926,0.342,1.32s0.543,0.702,0.942,0.924
		c0.4,0.222,0.846,0.333,1.338,0.333C13.371,19.125,13.815,19.014,14.212,18.792"/>
	<polygon clip-path="url(#SVGID_5_)" fill="#FFFFFF" points="23.886,13.438 23.886,19.658 23.255,19.658 23.255,14.682 
		20.811,18.867 20.5,18.867 18.056,14.708 18.056,19.658 17.425,19.658 17.425,13.438 17.967,13.438 20.668,18.05 23.344,13.438 	
		"/>
	<rect x="25.63" y="13.438" clip-path="url(#SVGID_5_)" fill="#FFFFFF" width="0.657" height="6.221"/>
	<polygon clip-path="url(#SVGID_5_)" fill="#FFFFFF" points="33.236,13.438 33.236,19.658 32.694,19.658 28.694,14.61 
		28.694,19.658 28.038,19.658 28.038,13.438 28.58,13.438 32.588,18.485 32.588,13.438 	"/>
	<path clip-path="url(#SVGID_5_)" fill="#FFFFFF" d="M39.473,16.548h0.631v2.373c-0.29,0.254-0.634,0.45-1.03,0.586
		c-0.397,0.137-0.815,0.205-1.254,0.205c-0.622,0-1.182-0.137-1.68-0.409c-0.498-0.273-0.888-0.65-1.173-1.133
		c-0.284-0.483-0.426-1.024-0.426-1.622c0-0.599,0.142-1.139,0.426-1.622c0.285-0.483,0.675-0.86,1.173-1.133
		s1.061-0.409,1.688-0.409c0.475,0,0.91,0.076,1.307,0.226c0.397,0.152,0.732,0.375,1.005,0.671l-0.409,0.418
		c-0.492-0.485-1.117-0.729-1.875-0.729c-0.504,0-0.959,0.112-1.364,0.334c-0.406,0.222-0.725,0.53-0.956,0.924
		c-0.23,0.394-0.347,0.834-0.347,1.32c0,0.486,0.116,0.924,0.347,1.315c0.231,0.391,0.549,0.7,0.951,0.924
		c0.403,0.226,0.856,0.338,1.36,0.338c0.64,0,1.182-0.16,1.626-0.48V16.548z"/>
	<path clip-path="url(#SVGID_5_)" fill="#FFFFFF" d="M5.436,30.142c-0.643-0.152-1.171-0.356-1.584-0.614l0.888-2.011
		c0.39,0.226,0.826,0.407,1.31,0.544c0.483,0.136,0.947,0.205,1.391,0.205c0.382,0,0.656-0.038,0.819-0.112
		c0.164-0.074,0.246-0.185,0.246-0.333c0-0.171-0.108-0.3-0.322-0.386c-0.214-0.085-0.567-0.179-1.058-0.281
		c-0.632-0.132-1.158-0.274-1.579-0.427c-0.421-0.151-0.787-0.401-1.099-0.748C4.136,25.632,3.98,25.163,3.98,24.57
		c0-0.514,0.144-0.982,0.433-1.403c0.288-0.42,0.719-0.752,1.292-0.994c0.573-0.242,1.269-0.363,2.087-0.363
		c0.561,0,1.113,0.061,1.655,0.182c0.542,0.121,1.019,0.298,1.432,0.532l-0.83,1.999c-0.803-0.405-1.563-0.608-2.28-0.608
		c-0.709,0-1.064,0.172-1.064,0.516c0,0.164,0.105,0.286,0.315,0.368c0.211,0.081,0.558,0.17,1.041,0.263
		c0.624,0.117,1.15,0.252,1.579,0.404c0.428,0.151,0.801,0.398,1.117,0.741c0.316,0.344,0.473,0.812,0.473,1.404
		c0,0.514-0.144,0.98-0.432,1.397c-0.289,0.417-0.719,0.748-1.293,0.993c-0.572,0.245-1.268,0.368-2.087,0.368
		C6.74,30.37,6.079,30.293,5.436,30.142"/>
	<path clip-path="url(#SVGID_5_)" fill="#FFFFFF" d="M13.875,29.821c-0.702-0.367-1.252-0.875-1.649-1.526
		c-0.398-0.65-0.596-1.387-0.596-2.204c0-0.818,0.198-1.554,0.596-2.204c0.397-0.651,0.947-1.16,1.649-1.526
		c0.701-0.367,1.492-0.55,2.374-0.55c0.881,0,1.672,0.183,2.373,0.55c0.702,0.366,1.252,0.875,1.649,1.526
		c0.398,0.65,0.597,1.386,0.597,2.204c0,0.817-0.199,1.554-0.597,2.204c-0.397,0.651-0.947,1.159-1.649,1.526
		c-0.701,0.366-1.492,0.549-2.373,0.549C15.368,30.37,14.577,30.187,13.875,29.821 M17.179,27.885
		c0.277-0.167,0.497-0.405,0.661-0.713c0.164-0.309,0.246-0.668,0.246-1.082c0-0.413-0.082-0.773-0.246-1.081
		c-0.164-0.31-0.384-0.546-0.661-0.714c-0.276-0.167-0.586-0.251-0.929-0.251c-0.343,0-0.654,0.084-0.93,0.251
		c-0.277,0.168-0.497,0.404-0.661,0.714c-0.164,0.308-0.245,0.668-0.245,1.081c0,0.414,0.081,0.773,0.245,1.082
		c0.164,0.308,0.384,0.546,0.661,0.713c0.276,0.168,0.587,0.251,0.93,0.251C16.593,28.136,16.903,28.053,17.179,27.885"/>
	<path clip-path="url(#SVGID_5_)" fill="#FFFFFF" d="M23.662,29.821c-0.702-0.367-1.252-0.875-1.648-1.526
		c-0.398-0.65-0.598-1.387-0.598-2.204c0-0.818,0.199-1.554,0.598-2.204c0.396-0.651,0.946-1.16,1.648-1.526
		c0.701-0.367,1.492-0.55,2.373-0.55s1.673,0.183,2.374,0.55c0.702,0.366,1.251,0.875,1.649,1.526
		c0.397,0.65,0.596,1.386,0.596,2.204c0,0.817-0.198,1.554-0.596,2.204c-0.398,0.651-0.947,1.159-1.649,1.526
		c-0.701,0.366-1.493,0.549-2.374,0.549S24.363,30.187,23.662,29.821 M26.965,27.885c0.277-0.167,0.497-0.405,0.661-0.713
		c0.163-0.309,0.245-0.668,0.245-1.082c0-0.413-0.082-0.773-0.245-1.081c-0.164-0.31-0.384-0.546-0.661-0.714
		c-0.276-0.167-0.586-0.251-0.93-0.251c-0.343,0-0.653,0.084-0.929,0.251c-0.277,0.168-0.497,0.404-0.661,0.714
		c-0.164,0.308-0.246,0.668-0.246,1.081c0,0.414,0.082,0.773,0.246,1.082c0.164,0.308,0.384,0.546,0.661,0.713
		c0.275,0.168,0.586,0.251,0.929,0.251C26.379,28.136,26.688,28.053,26.965,27.885"/>
	<polygon clip-path="url(#SVGID_5_)" fill="#FFFFFF" points="39.676,21.997 39.676,30.183 37.406,30.183 34.297,26.464 
		34.297,30.183 31.606,30.183 31.606,21.997 33.876,21.997 36.985,25.716 36.985,21.997 	"/>
</g>
</svg>
