<?xml version="1.0" encoding="utf-8"?>
<!-- Generator: Adobe Illustrator 16.0.0, SVG Export Plug-In . SVG Version: 6.00 Build 0)  -->
<!DOCTYPE svg PUBLIC "-//W3C//DTD SVG 1.1//EN" "http://www.w3.org/Graphics/SVG/1.1/DTD/svg11.dtd">
<svg version="1.1" id="Layer_1" xmlns="http://www.w3.org/2000/svg" xmlns:xlink="http://www.w3.org/1999/xlink" x="0px" y="0px"
	 width="45.066px" height="22.132px" viewBox="0 0 45.066 22.132" enable-background="new 0 0 45.066 22.132" xml:space="preserve">
<g>
	<defs>
		<rect id="SVGID_1_" width="45.066" height="22.132"/>
	</defs>
	<clipPath id="SVGID_2_">
		<use xlink:href="#SVGID_1_"  overflow="visible"/>
	</clipPath>
	<path clip-path="url(#SVGID_2_)" fill-rule="evenodd" clip-rule="evenodd" fill="#727171" d="M45.066,4.167
		c-0.029,0.151-0.057,0.304-0.097,0.448c-0.403,1.449-1.044,2.79-1.895,4.033c-1.986,2.875-3.966,5.761-5.951,8.642
		c0,0.004-0.005,0.009-0.008,0.011c-0.055,0.126-0.151,0.15-0.278,0.15h-8.715h-0.182c0.041-0.055,0.063-0.089,0.091-0.116
		c0.149-0.165,0.298-0.325,0.446-0.492c0.151-0.175,0.122-0.424-0.057-0.559c-0.067-0.052-0.136-0.066-0.22-0.061
		c-0.247,0.031-0.497,0.061-0.748,0.071c-0.944,0.037-1.847-0.156-2.706-0.553c-0.389-0.179-0.766-0.38-1.089-0.663
		c-0.791-0.68-1.241-1.535-1.362-2.566c-0.021-0.204,0.021-0.398,0.058-0.599c0.313-1.666,1.026-3.125,2.138-4.401
		c0.946-1.088,1.969-2.092,3.102-2.989c1.198-0.951,2.485-1.762,3.848-2.444c1.569-0.782,3.204-1.372,4.916-1.763
		c0.714-0.16,1.436-0.252,2.169-0.288c0.072,0,0.142-0.018,0.212-0.029h0.647c0.045,0.011,0.089,0.022,0.13,0.027
		c0.143,0.012,0.28,0.018,0.421,0.022c0.952,0.069,1.881,0.25,2.796,0.521c0.299,0.09,0.563,0.23,0.81,0.417
		c0.058,0.045,0.114,0.086,0.168,0.136c0.798,0.692,1.266,1.551,1.332,2.62c0.002,0.04,0.019,0.087,0.024,0.132V4.167z
		 M29.805,10.205c0,0.376,0.133,0.704,0.373,0.985c0.058,0.07,0.128,0.111,0.217,0.13c0.587,0.143,1.173,0.143,1.756,0.004
		c0.07-0.015,0.14-0.038,0.209-0.038c0.115-0.006,0.152,0.05,0.101,0.152c-0.014,0.024-0.026,0.049-0.044,0.07
		c-0.083,0.118-0.173,0.241-0.259,0.357c-0.076,0.102-0.071,0.199-0.022,0.305c0.094,0.191,0.377,0.284,0.56,0.067
		c0.856-1.013,1.719-2.016,2.584-3.018c0.375-0.435,0.604-0.936,0.72-1.491c0.14-0.641-0.35-1.15-0.907-1.16
		c-0.705-0.02-1.388,0.085-2.054,0.323c-1.361,0.477-2.374,1.35-3.057,2.617C29.861,9.723,29.798,9.957,29.805,10.205"/>
	<path clip-path="url(#SVGID_2_)" fill-rule="evenodd" clip-rule="evenodd" fill="#727171" d="M23.945,22.132
		c0.021-0.035,0.048-0.073,0.076-0.11c0.271-0.316,0.544-0.635,0.813-0.958c0.066-0.084,0.14-0.12,0.251-0.12
		c2.015,0.006,4.028,0,6.044,0h3.161h0.19c-0.04,0.065-0.063,0.098-0.09,0.13c-0.25,0.319-0.499,0.632-0.745,0.948
		c-0.025,0.037-0.05,0.073-0.073,0.11H23.945z"/>
	<path clip-path="url(#SVGID_2_)" fill-rule="evenodd" clip-rule="evenodd" fill="#727171" d="M9.333,22.132
		c0.014-0.035,0.021-0.071,0.037-0.102c0.153-0.325,0.31-0.647,0.465-0.975c0.034-0.082,0.083-0.112,0.175-0.112
		c2.14,0.006,4.277,0,6.418,0c0.032,0,0.069,0.013,0.126,0.019c-0.179,0.396-0.342,0.787-0.513,1.17H9.333z"/>
	<path clip-path="url(#SVGID_2_)" fill-rule="evenodd" clip-rule="evenodd" fill="#727171" d="M0,22.132
		c0.173-0.352,0.347-0.702,0.513-1.062c0.043-0.097,0.099-0.127,0.199-0.127c2.127,0.006,4.247,0,6.373,0
		c0.043,0,0.084,0.013,0.147,0.013c-0.02,0.053-0.033,0.097-0.052,0.132c-0.136,0.315-0.272,0.627-0.405,0.942
		c-0.016,0.03-0.026,0.066-0.04,0.102H0z"/>
	<path clip-path="url(#SVGID_2_)" fill-rule="evenodd" clip-rule="evenodd" fill="#727171" d="M12.787,10.335
		c0.055-0.102,0.092-0.171,0.134-0.244c0.172-0.303,0.345-0.609,0.512-0.918c0.05-0.096,0.109-0.13,0.218-0.13
		c1.672,0.002,3.337,0.002,5.004,0.002c0.837,0,1.673-0.002,2.519,0c0.416,0,0.721,0.332,0.68,0.745
		c-0.002,0.077-0.03,0.162-0.065,0.233c-0.622,1.312-1.241,2.62-1.863,3.928c-0.518,1.076-1.028,2.149-1.536,3.226
		c-0.046,0.104-0.101,0.141-0.221,0.141h-6.512h-0.158c0.032-0.067,0.048-0.108,0.071-0.157c1.036-2.102,2.076-4.218,3.118-6.326
		c0.018-0.039,0.04-0.08,0.057-0.121c0.075-0.172,0.006-0.317-0.18-0.36c-0.05-0.012-0.104-0.012-0.159-0.012
		c-0.479-0.004-0.966-0.004-1.446-0.006H12.787z"/>
	<path clip-path="url(#SVGID_2_)" fill-rule="evenodd" clip-rule="evenodd" fill="#727171" d="M9.007,17.315H2.202
		c0.01-0.041,0.018-0.076,0.033-0.106c0.87-1.767,1.74-3.534,2.612-5.301c0.182-0.377,0.366-0.753,0.554-1.128
		c0.007-0.02,0.022-0.038,0.031-0.061c0.077-0.181,0-0.337-0.194-0.372c-0.051-0.01-0.097-0.006-0.153-0.01
		c-0.474,0-0.95,0-1.43-0.002H3.492c0.022-0.049,0.031-0.078,0.049-0.106c0.198-0.362,0.401-0.718,0.596-1.078
		C4.184,9.067,4.241,9.043,4.33,9.043c1.248,0.002,2.497,0.002,3.746,0.002c1.264,0,2.526-0.002,3.789,0
		c0.329,0,0.59,0.206,0.668,0.525c0.04,0.153,0.021,0.297-0.049,0.442c-0.409,0.861-0.82,1.721-1.227,2.576
		c-0.727,1.522-1.446,3.047-2.171,4.568C9.064,17.207,9.031,17.261,9.007,17.315"/>
	<path clip-path="url(#SVGID_2_)" fill-rule="evenodd" clip-rule="evenodd" fill="#727171" d="M25.184,20.64
		c0.039-0.053,0.063-0.089,0.088-0.117c0.271-0.327,0.547-0.649,0.815-0.974c0.06-0.066,0.115-0.097,0.206-0.097h9.278
		c0.041,0,0.081,0.008,0.14,0.008c-0.027,0.036-0.036,0.063-0.052,0.089c-0.267,0.334-0.529,0.672-0.796,1.009
		c-0.047,0.064-0.093,0.089-0.173,0.082c-0.057-0.002-0.124,0-0.184,0h-9.144H25.184z"/>
	<path clip-path="url(#SVGID_2_)" fill-rule="evenodd" clip-rule="evenodd" fill="#727171" d="M37.021,17.827
		c-0.037,0.054-0.056,0.086-0.082,0.116c-0.245,0.316-0.498,0.631-0.738,0.948c-0.063,0.09-0.134,0.115-0.24,0.115
		c-1.476-0.005-2.953-0.005-4.434-0.005H26.7h-0.191c0.027-0.042,0.036-0.069,0.061-0.092c0.279-0.342,0.566-0.678,0.85-1.018
		c0.043-0.052,0.093-0.079,0.162-0.073c0.081,0.008,0.163,0,0.244,0h9.018C36.896,17.819,36.949,17.827,37.021,17.827"/>
	<path clip-path="url(#SVGID_2_)" fill-rule="evenodd" clip-rule="evenodd" fill="#727171" d="M8.693,17.838
		c-0.177,0.413-0.34,0.788-0.509,1.178H1.477c0.015-0.042,0.018-0.074,0.036-0.101c0.155-0.33,0.312-0.65,0.461-0.978
		c0.035-0.078,0.09-0.105,0.168-0.102c0.169,0.006,0.331,0.002,0.5,0.002h5.881H8.693z"/>
	<path clip-path="url(#SVGID_2_)" fill-rule="evenodd" clip-rule="evenodd" fill="#727171" d="M7.963,19.393
		c-0.032,0.077-0.051,0.124-0.073,0.175c-0.127,0.3-0.26,0.595-0.382,0.898C7.47,20.551,7.425,20.58,7.325,20.58
		c-0.907-0.003-1.818-0.003-2.732-0.003H0.919H0.74c0.023-0.049,0.036-0.086,0.05-0.121c0.145-0.309,0.302-0.615,0.444-0.934
		c0.041-0.099,0.092-0.134,0.203-0.134c0.74,0.006,1.477,0.004,2.218,0.004h4.108H7.963z"/>
	<path clip-path="url(#SVGID_2_)" fill-rule="evenodd" clip-rule="evenodd" fill="#727171" d="M10.777,19.017
		c0.19-0.399,0.372-0.783,0.558-1.171h6.641c-0.004,0.099-0.338,0.884-0.493,1.171H10.777z"/>
	<path clip-path="url(#SVGID_2_)" fill-rule="evenodd" clip-rule="evenodd" fill="#727171" d="M17.272,19.393
		c-0.022,0.06-0.035,0.102-0.049,0.132c-0.138,0.32-0.277,0.632-0.409,0.944c-0.035,0.088-0.085,0.111-0.174,0.111
		c-2.15-0.003-4.301-0.003-6.454-0.003c-0.034,0-0.069-0.002-0.12-0.005c0.012-0.036,0.018-0.063,0.022-0.091
		c0.161-0.334,0.324-0.668,0.478-1.001c0.03-0.067,0.076-0.096,0.147-0.088c0.035,0.002,0.073,0,0.108,0h6.232H17.272z"/>
</g>
</svg>
