<?xml version="1.0" encoding="utf-8"?>
<!-- Generator: Adobe Illustrator 16.0.0, SVG Export Plug-In . SVG Version: 6.00 Build 0)  -->
<!DOCTYPE svg PUBLIC "-//W3C//DTD SVG 1.1//EN" "http://www.w3.org/Graphics/SVG/1.1/DTD/svg11.dtd">
<svg version="1.1" id="Layer_1" xmlns="http://www.w3.org/2000/svg" xmlns:xlink="http://www.w3.org/1999/xlink" x="0px" y="0px"
	 width="14.832px" height="19.39px" viewBox="0 0 14.832 19.39" enable-background="new 0 0 14.832 19.39" xml:space="preserve">
<g>
	<defs>
		<rect id="SVGID_1_" width="14.832" height="19.39"/>
	</defs>
	<clipPath id="SVGID_2_">
		<use xlink:href="#SVGID_1_"  overflow="visible"/>
	</clipPath>
	<g clip-path="url(#SVGID_2_)">
		<defs>
			<rect id="SVGID_3_" y="0" width="14.832" height="19.39"/>
		</defs>
		<clipPath id="SVGID_4_">
			<use xlink:href="#SVGID_3_"  overflow="visible"/>
		</clipPath>
		<g opacity="0.9" clip-path="url(#SVGID_4_)">
			<g>
				<defs>
					<rect id="SVGID_5_" width="14.832" height="19.39"/>
				</defs>
				<clipPath id="SVGID_6_">
					<use xlink:href="#SVGID_5_"  overflow="visible"/>
				</clipPath>
				<path clip-path="url(#SVGID_6_)" fill="#727171" d="M13.242,19.39H1.591C0.714,19.39,0,18.676,0,17.799V7.811
					c0-0.877,0.714-1.59,1.591-1.59h11.651c0.877,0,1.591,0.713,1.591,1.59v9.988C14.833,18.676,14.119,19.39,13.242,19.39
					 M1.591,6.822c-0.546,0-0.989,0.444-0.989,0.989v9.988c0,0.545,0.443,0.989,0.989,0.989h11.651c0.545,0,0.989-0.444,0.989-0.989
					V7.811c0-0.545-0.444-0.989-0.989-0.989H1.591z"/>
				<path clip-path="url(#SVGID_6_)" fill="#727171" d="M11.916,6.682c-0.166,0-0.301-0.134-0.301-0.3V4.647
					c0-2.231-1.813-4.046-4.045-4.046c-2.231,0-4.046,1.815-4.046,4.046v1.735c0,0.166-0.134,0.3-0.3,0.3s-0.301-0.134-0.301-0.3
					V4.647C2.923,2.085,5.007,0,7.57,0c2.563,0,4.647,2.085,4.647,4.647v1.735C12.218,6.548,12.082,6.682,11.916,6.682"/>
				<path clip-path="url(#SVGID_6_)" fill="#727171" d="M7.416,13.407c-0.84,0-1.523-0.685-1.523-1.524s0.684-1.524,1.523-1.524
					c0.841,0,1.523,0.684,1.523,1.524S8.257,13.407,7.416,13.407 M7.416,11.003c-0.484,0-0.879,0.396-0.879,0.88
					c0,0.485,0.395,0.88,0.879,0.88c0.485,0,0.881-0.395,0.881-0.88C8.297,11.398,7.901,11.003,7.416,11.003"/>
				<rect x="7.009" y="12.764" clip-path="url(#SVGID_6_)" fill="#727171" width="0.816" height="3.002"/>
			</g>
		</g>
	</g>
</g>
</svg>
