<?xml version="1.0" encoding="utf-8"?>
<!-- Generator: Adobe Illustrator 16.0.0, SVG Export Plug-In . SVG Version: 6.00 Build 0)  -->
<!DOCTYPE svg PUBLIC "-//W3C//DTD SVG 1.1//EN" "http://www.w3.org/Graphics/SVG/1.1/DTD/svg11.dtd">
<svg version="1.1" id="Layer_1" xmlns="http://www.w3.org/2000/svg" xmlns:xlink="http://www.w3.org/1999/xlink" x="0px" y="0px"
	 width="15.582px" height="15.743px" viewBox="0 0 15.582 15.743" enable-background="new 0 0 15.582 15.743" xml:space="preserve">
<g>
	<defs>
		<rect id="SVGID_1_" y="0" width="15.582" height="15.743"/>
	</defs>
	<clipPath id="SVGID_2_">
		<use xlink:href="#SVGID_1_"  overflow="visible"/>
	</clipPath>
	<path clip-path="url(#SVGID_2_)" fill="#727171" d="M14.691,15.743h-13.8c-0.247,0-0.486-0.104-0.654-0.285
		c-0.167-0.18-0.253-0.422-0.235-0.666c0.296-4.056,3.717-7.233,7.789-7.233c4.072,0,7.493,3.178,7.789,7.233
		c0.019,0.243-0.067,0.486-0.233,0.665C15.178,15.639,14.939,15.743,14.691,15.743 M7.791,8.308c-3.681,0-6.773,2.872-7.041,6.539
		c-0.003,0.049,0.021,0.084,0.036,0.1c0.016,0.018,0.05,0.046,0.105,0.046h13.8c0.055,0,0.089-0.028,0.104-0.046
		c0.019-0.02,0.039-0.053,0.036-0.099C14.564,11.18,11.473,8.308,7.791,8.308"/>
	<path clip-path="url(#SVGID_2_)" fill="#727171" d="M7.791,8.293c-2.287,0-4.146-1.86-4.146-4.147C3.645,1.86,5.504,0,7.791,0
		c2.287,0,4.146,1.86,4.146,4.146C11.938,6.433,10.078,8.293,7.791,8.293 M7.791,0.75c-1.873,0-3.396,1.523-3.396,3.396
		c0,1.874,1.524,3.397,3.396,3.397c1.873,0,3.396-1.523,3.396-3.397C11.188,2.273,9.664,0.75,7.791,0.75"/>
</g>
</svg>
