<?xml version="1.0" encoding="utf-8"?>
<!-- Generator: Adobe Illustrator 16.0.0, SVG Export Plug-In . SVG Version: 6.00 Build 0)  -->
<!DOCTYPE svg PUBLIC "-//W3C//DTD SVG 1.1//EN" "http://www.w3.org/Graphics/SVG/1.1/DTD/svg11.dtd">
<svg version="1.1" id="Layer_1" xmlns="http://www.w3.org/2000/svg" xmlns:xlink="http://www.w3.org/1999/xlink" x="0px" y="0px"
	 width="43.659px" height="20.536px" viewBox="0 0 43.659 20.536" enable-background="new 0 0 43.659 20.536" xml:space="preserve">
<g>
	<defs>
		<rect id="SVGID_1_" width="43.659" height="20.536"/>
	</defs>
	<clipPath id="SVGID_2_">
		<use xlink:href="#SVGID_1_"  overflow="visible"/>
	</clipPath>
	<path clip-path="url(#SVGID_2_)" d="M24.662,17.148h-2.164V15.94h1.868v-1.732c0-0.429-0.351-0.779-0.778-0.779h-2.148v0.74h1.865
		v1.032h-1.865v1.912c0,0.433,0.349,0.776,0.777,0.776h2.445V17.148z"/>
	<path clip-path="url(#SVGID_2_)" d="M23.934,19.613v-1.33h-1.061v1.294c0,0.432,0.351,0.78,0.779,0.78h4.205v-0.744H23.934z"/>
	<rect x="26.663" y="13.427" clip-path="url(#SVGID_2_)" width="1.036" height="4.933"/>
	<polygon clip-path="url(#SVGID_2_)" points="26.232,13.428 25.197,13.428 25.197,15.205 24.638,15.205 24.638,15.945 
		25.197,15.945 25.197,18.359 26.232,18.359 	"/>
	<path clip-path="url(#SVGID_2_)" d="M42.824,15.334v-1.9h-1.061v6.932h0.28c0.43,0,0.78-0.348,0.78-0.777v-3.513h0.835v-0.741
		H42.824z"/>
	<path clip-path="url(#SVGID_2_)" d="M36.842,14.174h2.6v1.161h-2.595v0.743h2.557c-0.178,1.189-1.001,1.96-1.962,1.96h-0.945v0.741
		h0.965c1.725,0,3.036-1.363,3.036-3.105v-2.24h-3.655V14.174z"/>
	<path clip-path="url(#SVGID_2_)" d="M34.28,13.437v1.898h-0.896v0.743h0.896v4.287h0.281c0.429,0,0.777-0.346,0.777-0.777v-6.151
		H34.28z"/>
	<path clip-path="url(#SVGID_2_)" d="M29.111,14.211v3.373c0,0.429,0.349,0.775,0.775,0.775h3.432v-0.74h-3.149v-1.541h2.583v-0.743
		h-2.583v-1.159h3.149v-0.739h-3.432C29.46,13.437,29.111,13.783,29.111,14.211"/>
	<path clip-path="url(#SVGID_2_)" d="M3.861,15.072c-0.729-0.342-1.327-0.617-1.327-1.178c0-0.424,0.341-0.733,1.014-0.733
		c0.247,0,0.45,0.028,0.659,0.067c0.109,0.02,0.226,0.034,0.323,0.034c0.59,0,0.923-0.352,1.142-1.019l0.093-0.271
		c-0.094-0.038-1.055-0.459-2.309-0.459c-1.996,0-3.05,1.279-3.05,2.607c0,0.669,0.21,1.154,0.537,1.537
		c0.426,0.492,1.028,0.813,1.592,1.084c0.822,0.406,1.563,0.703,1.563,1.302c0,0.531-0.548,0.832-1.281,0.832
		c-1.003,0-1.883-0.574-1.992-0.642L0,19.777c0.147,0.084,1.209,0.759,2.956,0.759c1.863-0.001,3.271-1.069,3.271-2.712
		C6.228,16.189,4.922,15.585,3.861,15.072"/>
	<path clip-path="url(#SVGID_2_)" d="M11.144,15.834l3.376-4.141h-2.405l-2.692,3.575h-0.04v-3.575H7.397v8.771h0.118
		c0.856,0,1.877-0.395,1.877-1.828v-2.014h0.043l2.744,3.734h2.524L11.144,15.834z"/>
	<path clip-path="url(#SVGID_2_)" d="M14.633,2.301c-0.697,0.131-1.734,0.762-1.731,1.885c0.005,1.016,0.835,1.636,0.838,2.966
		c0.004,1.003-0.548,1.682-1.146,2.056c0.242-0.023,0.508-0.035,0.799-0.035c0.61-0.003,0.978,0.055,1,0.06l3.133-3.846
		C16.657,4.086,15.64,3.074,14.633,2.301"/>
	<path clip-path="url(#SVGID_2_)" d="M17.265,12.678c0.396-0.613,0.444-1.592,0.478-2.588c0.037-0.93,0.23-1.629,1.474-1.633
		c0.275,0,0.538,0.036,1.014,0.035c1.822-0.007,3.01-0.632,3.75-1.046c-1.51-0.963-3.718-1.946-6.455-2.059
		c-0.178,0.504-1.566,4.361-1.671,4.672c0.018,0.019,0.261,0.291,0.562,0.822C16.865,11.611,17.105,12.228,17.265,12.678"/>
	<path clip-path="url(#SVGID_2_)" d="M10.647,9.528c-0.156,0.003-0.236-0.104-0.259-0.287C10.37,9.061,9.585,1.893,9.47,0.808
		c-0.017-0.16-0.056-0.451-0.056-0.552C9.414,0.088,9.521,0,9.649,0c0.372,0,2.394,0.474,4.54,1.978
		c-0.618,0.173-1.738,0.817-1.73,2.151c0.001,1.177,0.849,1.827,0.851,3.008C13.318,9.062,11.106,9.528,10.647,9.528"/>
	<path clip-path="url(#SVGID_2_)" d="M17.444,13.189c0.033,0.09,0.063,0.166,0.098,0.217c0.049,0.084,0.113,0.123,0.191,0.121
		c0.053,0,0.112-0.014,0.18-0.046c0.166-0.077,6.706-3.121,7.692-3.577c0.143-0.068,0.415-0.192,0.503-0.242
		c0.096-0.055,0.136-0.128,0.136-0.209c0-0.043-0.013-0.086-0.038-0.127c-0.123-0.199-0.757-0.871-1.813-1.608
		c-0.842,0.465-2.152,1.18-4.103,1.188c-0.478,0-0.587-0.031-0.913-0.03c-0.953,0.002-1.192,0.412-1.225,1.247
		c-0.006,0.158-0.009,0.369-0.018,0.601C18.104,11.474,18.013,12.501,17.444,13.189"/>
</g>
</svg>
