<?xml version="1.0" standalone="no"?>
<!DOCTYPE svg PUBLIC "-//W3C//DTD SVG 1.1//EN" "http://www.w3.org/Graphics/SVG/1.1/DTD/svg11.dtd" >
<svg xmlns="http://www.w3.org/2000/svg" xmlns:xlink="http://www.w3.org/1999/xlink" version="1.1">
<metadata>
Created by FontForge 20190801 at Wed May 21 22:51:04 2008
 By Jimmy Wärting
Copyright (c) 2008 by Bourne Design. All rights reserved.
</metadata>
<defs>
<font id="Moebius-Bold" horiz-adv-x="2240" >
  <font-face 
    font-family="Moebius"
    font-weight="700"
    font-stretch="normal"
    units-per-em="4000"
    panose-1="2 8 8 3 4 3 0 2 0 4"
    ascent="3028"
    descent="-972"
    x-height="2076"
    cap-height="2728"
    bbox="-188 -1068 4749 4076"
    underline-thickness="200"
    underline-position="-400"
    unicode-range="U+0020-FB02"
  />
<missing-glyph horiz-adv-x="1994" 
d="M0 3028h399l-399 -399v399zM0 2230l798 798h398l-1196 -1196v398zM0 1433l1595 1595h399l-1994 -1994v399zM0 635l1994 1994v-399l-1994 -1994v399zM0 -162l1994 1994v-399l-1994 -1994v399zM0 -960l1994 1994v-399l-1595 -1595h-399zM798 -960l1196 1196v-398l-798 -798
h-398zM1595 -960l399 399v-399h-399z" />
    <glyph glyph-name=".notdef" horiz-adv-x="1994" 
d="M0 3028h399l-399 -399v399zM0 2230l798 798h398l-1196 -1196v398zM0 1433l1595 1595h399l-1994 -1994v399zM0 635l1994 1994v-399l-1994 -1994v399zM0 -162l1994 1994v-399l-1994 -1994v399zM0 -960l1994 1994v-399l-1595 -1595h-399zM798 -960l1196 1196v-398l-798 -798
h-398zM1595 -960l399 399v-399h-399z" />
    <glyph glyph-name=".null" horiz-adv-x="0" 
 />
    <glyph glyph-name="nonmarkingreturn" horiz-adv-x="1020" 
 />
    <glyph glyph-name="space" unicode=" " horiz-adv-x="1020" 
 />
    <glyph glyph-name="space" unicode="&#xa0;" horiz-adv-x="1020" 
 />
    <glyph glyph-name="g" unicode="g" horiz-adv-x="2376" 
d="M2136 2076v-1752q0 -99 -2.5 -197t-13.5 -207q-20 -195 -104 -347.5t-217 -257.5t-307.5 -160t-375.5 -55q-63 0 -139.5 4t-155 15t-154.5 31.5t-138 53.5q-35 18 -68 41.5t-59 52.5t-42 65.5t-16 80.5q0 51 20 90.5t54.5 66.5t79 41t94.5 14q67 0 150 -30
q84 -30 179 -52t195 -22q71 0 147.5 17t142.5 53.5t113.5 94.5t61.5 139q10 65 14.5 120t4.5 112v1216q0 103 -29 178.5t-81.5 125t-126 73t-163.5 23.5q-102 0 -193.5 -36t-160.5 -116.5t-109.5 -210.5t-40.5 -317q0 -164 34 -285.5t95 -202t144.5 -120.5t182.5 -40
q54 0 98 8t86 8q93 0 138.5 -52t45.5 -136q0 -39 -11 -70t-30 -55.5t-44 -43t-53 -32.5q-29 -14 -64.5 -24.5t-74 -17t-78.5 -10t-77 -3.5q-212 0 -386.5 65t-299 197t-193.5 332t-69 470q0 273 77.5 481.5t213 349.5t318.5 213t395 72q166 0 299 -42.5t245 -133.5l44 124
h404z" />
    <glyph glyph-name="h" unicode="h" horiz-adv-x="2300" 
d="M776 2960v-1052q34 34 88.5 73t128 71.5t165.5 54t202 21.5q162 0 291.5 -48.5t220.5 -146t139.5 -246t48.5 -347.5v-1116q0 -55 -14.5 -96t-37.5 -71t-52 -49.5t-59 -31t-57.5 -16t-47.5 -4.5q-21 0 -49 4.5t-58 16t-58.5 31t-51.5 49.5t-37 71t-14 96v1080
q0 103 -25 176t-68.5 119.5t-102.5 67.5t-128 21q-82 0 -152.5 -27t-125.5 -68t-92.5 -90.5t-53.5 -94.5v-1184q0 -55 -14.5 -96t-37.5 -71t-52 -49.5t-59 -31t-57.5 -16t-47.5 -4.5q-21 0 -49 4.5t-58 16t-58.5 31t-51.5 49.5t-37 71t-14 96v2736h536z" />
    <glyph glyph-name="i" unicode="i" horiz-adv-x="1016" 
d="M508 2956q61 0 116 -20t95.5 -57t64.5 -88.5t24 -114.5t-24 -114t-64.5 -87t-95.5 -55.5t-116 -19.5q-62 0 -116.5 19.5t-95 55.5t-64.5 87t-24 114t24 114.5t64.5 88.5t95 57t116.5 20zM776 2076v-1852q0 -55 -14.5 -96t-37.5 -71t-52 -49.5t-59 -31t-57.5 -16
t-47.5 -4.5q-21 0 -49 4.5t-58 16t-58.5 31t-51.5 49.5t-37 71t-14 96v1852h536z" />
    <glyph glyph-name="j" unicode="j" horiz-adv-x="1016" 
d="M508 2956q63 0 117.5 -20t95 -57t64 -88.5t23.5 -114.5t-23.5 -114t-64 -87t-95 -55.5t-117.5 -19.5q-62 0 -115.5 19.5t-94 55.5t-63.5 87t-23 114t23 114.5t63.5 88.5t94 57t115.5 20zM780 2076v-2180q0 -66 -5 -135.5t-11 -120.5q-15 -125 -64.5 -223.5t-126 -167
t-178 -105t-219.5 -36.5q-54 0 -101 15t-81.5 43t-54 67t-19.5 87t20.5 87.5t55.5 68.5q10 9 26.5 18t34.5 17.5t35.5 16.5t31.5 16q27 15 45 32t30 38.5t19.5 48t13.5 61.5q6 33 7 82t1 94v2176h540z" />
    <glyph glyph-name="k" unicode="k" horiz-adv-x="2144" 
d="M2144 2076l-800 -916l668 -776q16 -18 28.5 -41.5t21.5 -48t13.5 -48t4.5 -42.5q0 -57 -21 -103t-58 -78t-86.5 -49.5t-106.5 -17.5q-32 0 -63.5 8.5t-61 23.5t-55 35.5t-44.5 44.5l-704 908q-28 35 -42 77t-14 87t15.5 88t44.5 80l608 768h652zM776 2960v-2736
q0 -55 -14.5 -96t-37.5 -71t-52 -49.5t-59 -31t-57.5 -16t-47.5 -4.5q-21 0 -49 4.5t-58 16t-58.5 31t-51.5 49.5t-37 71t-14 96v2736h536z" />
    <glyph glyph-name="l" unicode="l" horiz-adv-x="1016" 
d="M776 2960v-2736q0 -55 -14.5 -96t-37.5 -71t-52 -49.5t-59 -31t-57.5 -16t-47.5 -4.5q-21 0 -49 4.5t-58 16t-58.5 31t-51.5 49.5t-37 71t-14 96v2736h536z" />
    <glyph glyph-name="m" unicode="m" horiz-adv-x="3414" 
d="M699 2076v-228q33 43 92.5 92t139.5 91t177 69.5t205 27.5q201 0 343.5 -69.5t223.5 -217.5q36 43 95 93.5t137.5 93.5t174.5 71.5t207 28.5q154 0 280 -42t214.5 -129.5t137 -221t48.5 -316.5v-1195q0 -81 -30 -134.5t-72 -82.5q-35 -25 -77 -38t-84 -13
q-46 0 -87.5 13.5t-75.5 37.5q-42 29 -71 82t-29 135v1125q0 92 -21 156.5t-58.5 105t-89 59t-112.5 18.5q-78 0 -145 -25.5t-118 -65.5t-85.5 -88t-48.5 -93v-1192q0 -81 -30 -134.5t-72 -82.5q-36 -25 -78 -38t-84 -13q-45 0 -86.5 13.5t-75.5 37.5q-42 29 -71.5 82
t-29.5 135v1125q0 92 -21 156.5t-58.5 105t-89 59t-112.5 18.5q-78 0 -144.5 -25.5t-118 -65.5t-86 -88t-48.5 -93v-1192q0 -81 -29.5 -134.5t-71.5 -82.5q-36 -25 -77.5 -38t-83.5 -13q-46 0 -87.5 13.5t-75.5 37.5q-42 29 -71 82t-29 135v1852h459z" />
    <glyph glyph-name="n" unicode="n" horiz-adv-x="2300" 
d="M708 2076v-224q36 40 92.5 88t135 90t181 70t231.5 28q162 0 293.5 -46t224.5 -142.5t143.5 -245.5t50.5 -354v-1116q0 -81 -30.5 -134.5t-73.5 -82.5q-36 -25 -78.5 -38t-85.5 -13q-48 0 -89.5 13.5t-76.5 37.5q-43 29 -72.5 82t-29.5 135v1080q0 103 -25 176
t-68.5 119.5t-102.5 67.5t-128 21q-82 0 -152.5 -27t-125.5 -68t-92.5 -90.5t-53.5 -94.5v-1184q0 -81 -30.5 -134.5t-73.5 -82.5q-36 -25 -78.5 -38t-85.5 -13q-48 0 -89.5 13.5t-76.5 37.5q-43 29 -72.5 82t-29.5 135v1852h468z" />
    <glyph glyph-name="o" unicode="o" horiz-adv-x="2348" 
d="M1176 2128q142 0 273.5 -30.5t246.5 -91.5t209 -152.5t161.5 -212.5t104.5 -272.5t37 -332.5q0 -180 -37 -331t-104.5 -272t-161.5 -213t-209 -153t-246.5 -92t-273.5 -31t-274 31t-247 92t-210 153t-162.5 213t-105 272t-37.5 331q0 181 37.5 332.5t105 272.5
t162.5 212.5t210 152.5t247 91.5t274 30.5zM1176 1712q-102 0 -190.5 -38.5t-153.5 -120.5t-102.5 -209t-37.5 -304q0 -176 37.5 -302.5t102.5 -209t153.5 -121.5t190.5 -39q103 0 192.5 39t155 121.5t103 209t37.5 302.5q0 177 -37.5 304t-103 209t-155 120.5t-192.5 38.5z
" />
    <glyph glyph-name="p" unicode="p" horiz-adv-x="2360" 
d="M708 2076v-224q36 40 91 88t132 90t177.5 70t227.5 28q212 0 376.5 -66t277.5 -197t171.5 -327.5t58.5 -457.5q0 -272 -69.5 -481t-194 -352t-298.5 -216.5t-382 -73.5q-73 0 -150 10t-146 44q-27 13 -51 32t-42 43.5t-28.5 55.5t-10.5 70q0 42 15 77t42.5 60.5t65.5 40
t85 14.5q42 0 86 -8t98 -8q97 0 176.5 36.5t135 116t86 205t30.5 302.5t-31.5 301.5t-89.5 203.5t-139 115t-180 36q-90 0 -167.5 -27.5t-136.5 -73t-97.5 -104t-50.5 -119.5v-2004q0 -81 -31 -134t-73 -82q-35 -23 -76 -37t-88 -14q-44 0 -86 12t-80 39q-42 29 -72 81.5
t-30 134.5v2700h468z" />
    <glyph glyph-name="q" unicode="q" horiz-adv-x="2380" 
d="M2140 2076v-2700q0 -81 -31 -134t-73 -82q-35 -23 -76 -37t-88 -14q-44 0 -86 12t-80 39q-42 29 -72 81.5t-30 134.5v1928q0 103 -30 178.5t-84 125t-129 73t-165 23.5q-102 0 -191.5 -36t-156.5 -116.5t-105.5 -210.5t-38.5 -317q0 -164 33.5 -285.5t93.5 -202
t143 -120.5t182 -40q50 0 99.5 8t84.5 8q93 0 138.5 -52t45.5 -136q0 -39 -11 -70t-30 -55.5t-44 -43.5t-53 -32q-65 -32 -139.5 -43.5t-154.5 -11.5q-212 0 -387 65t-300.5 197t-195 332t-69.5 470q0 273 77.5 481.5t213 349.5t318.5 213t395 72q167 0 301.5 -42.5
t246.5 -133.5l44 124h404z" />
    <glyph glyph-name="s" unicode="s" horiz-adv-x="1744" 
d="M1452 1556q-54 30 -112 56t-121 45.5t-131.5 31t-143.5 11.5q-50 0 -101 -6.5t-92.5 -24.5t-68 -49t-26.5 -80q0 -38 12.5 -66t37.5 -52t61 -45.5t84 -46.5q51 -26 109 -52t114 -50.5t108 -48.5t91 -46q87 -48 152.5 -103t109.5 -120.5t66.5 -142t22.5 -167.5
q0 -168 -66.5 -291.5t-178.5 -204.5t-258 -120.5t-305 -39.5q-164 0 -292 25t-207 57q-39 16 -75 37.5t-63 51t-43 66.5t-16 83q0 51 18.5 90.5t50 66.5t74.5 41t93 14q39 0 76 -10t72 -22q85 -31 168 -47.5t164 -16.5q51 0 101 7t90 26.5t64.5 54t24.5 88.5q0 43 -14.5 76
t-41.5 58.5t-65.5 47t-86.5 42.5q-45 19 -96 42t-104 48.5t-107 53t-105 56.5q-92 51 -157 108t-106.5 122t-61 140t-19.5 162q0 110 32 198.5t87.5 156t131 116t162 80t180.5 46t187 14.5q201 0 366.5 -35.5t305.5 -107.5z" />
    <glyph glyph-name="u" unicode="u" horiz-adv-x="2296" 
d="M776 2076v-1296q0 -104 25 -176.5t68.5 -119t102.5 -67.5t128 -21q82 0 152.5 27t125.5 68t92.5 90.5t53.5 94.5v1400h532v-1829q0 -57 -10.5 -108.5t-37 -91.5t-72.5 -63.5t-116 -23.5q-63 0 -106.5 24.5t-72 64.5t-43 90.5t-19.5 102.5q-39 -51 -93.5 -102.5t-130 -92
t-175 -66t-228.5 -25.5q-162 0 -293.5 46t-224.5 142.5t-143.5 245t-50.5 354.5v1332h536z" />
    <glyph glyph-name="v" unicode="v" horiz-adv-x="2048" 
d="M586 2078l346 -1166q25 -86 42.5 -147t29.5 -107.5t20.5 -84.5t17.5 -77h19q21 103 46 205t57 211l344 1164h560l-645 -1860q-21 -62 -59.5 -110.5t-89 -81.5t-110.5 -50.5t-124 -17.5q-67 0 -128 18.5t-112 52t-89.5 81.5t-59.5 108l-671 1860z" />
    <glyph glyph-name="w" unicode="w" horiz-adv-x="3185" 
d="M608 2076l216 -936q15 -66 31 -140t32 -153t31.5 -160.5t29.5 -160.5h26q45 307 120 614l228 936h566l228 -936q35 -143 65 -294t59 -320h25q23 155 54.5 307t70.5 307l240 936h535l-560 -1860q-42 -138 -137 -201t-239 -63q-73 0 -132 18.5t-103 53t-74.5 83
t-46.5 109.5l-160 600q-41 155 -68 313.5t-51 324.5h-22q-23 -160 -51 -319t-68 -319l-148 -600q-34 -137 -127 -200.5t-236 -63.5q-65 0 -123.5 15t-107 46.5t-85 81.5t-57.5 121l-544 1860h583z" />
    <glyph glyph-name="x" unicode="x" horiz-adv-x="1989" 
d="M622 2076l262 -456q35 -60 69.5 -125t59.5 -131h13q25 63 57.5 131t67.5 129l258 452h590l-678 -1000l545 -730q29 -39 41.5 -73t12.5 -77q0 -50 -22.5 -93.5t-60.5 -76t-88.5 -51.5t-106.5 -19q-36 0 -71.5 6t-68 21t-61 40t-51.5 62l-268 435q-38 60 -68 125.5
t-57 134.5h-13q-18 -46 -36.5 -87t-35.5 -74t-30.5 -57.5t-22.5 -37.5l-267 -428q-42 -66 -104 -103t-144 -37q-46 0 -93.5 15t-86.5 43.5t-63.5 70t-24.5 95.5q0 48 14 85.5t41 74.5l550 736l-691 1000h632z" />
    <glyph glyph-name="y" unicode="y" horiz-adv-x="2046" 
d="M572 2076l340 -988q44 -127 78.5 -258t69.5 -258h13l139 516q36 133 63.5 232t50.5 177.5t41.5 144t37.5 131t38.5 138t43.5 165.5h574l-720 -2144q-68 -201 -170.5 -355t-226 -258t-259.5 -157.5t-269 -53.5q-53 0 -99 14t-80 41.5t-53.5 69t-19.5 97.5q0 45 13.5 80
t37 61.5t55.5 46t70 34.5q79 31 157 76t139.5 103.5t99.5 129.5t38 155q0 25 -7 57.5t-17.5 66.5t-22.5 65.5t-21 54.5l-736 1816h602z" />
    <glyph glyph-name="z" unicode="z" horiz-adv-x="1896" 
d="M1735 2076v-344l-806 -1100q-42 -57 -82.5 -108t-80.5 -96h790q61 0 106 -11t81 -36q37 -25 59 -66.5t22 -102.5q0 -63 -24 -104t-62 -65t-82.5 -33.5t-99.5 -9.5h-1452v348l361 492l94 128t92 125t85.5 116t74 100.5t58 79t37.5 51.5q40 54 82 106.5t82 97.5h-890v432
h1555z" />
    <glyph glyph-name="dotlessi" unicode="&#x131;" horiz-adv-x="1016" 
d="M776 2076v-1852q0 -55 -14.5 -96t-37.5 -71t-52 -49.5t-59 -31t-57.5 -16t-47.5 -4.5q-21 0 -49 4.5t-58 16t-58.5 31t-51.5 49.5t-37 71t-14 96v1852h536z" />
    <glyph glyph-name="d" unicode="d" horiz-adv-x="2380" 
d="M2139 2960v-2698q0 -73 -16 -123.5t-49 -92.5q-32 -40 -83 -64.5t-120 -24.5t-120 24.5t-83 65.5q-32 40 -48 89t-16 119v1049q0 103 -30.5 178.5t-85.5 125t-130.5 73t-165.5 23.5q-102 0 -191 -36t-155 -116.5t-104 -210.5t-38 -317q0 -164 33.5 -285.5t93.5 -202
t143 -120.5t182 -40q54 0 98 8t86 8q93 0 140.5 -52t47.5 -136q0 -39 -12 -69.5t-31.5 -54.5t-44.5 -41.5t-52 -30.5q-30 -15 -66 -26.5t-74.5 -19t-78.5 -11t-77 -3.5q-212 0 -387 65t-300.5 197t-195 332t-69.5 470q0 273 77.5 481.5t213 349.5t318.5 213t395 72
q133 0 244.5 -27.5t211.5 -84.5v944h539z" />
    <glyph glyph-name="T" unicode="T" horiz-adv-x="1896" 
d="M1946 2728v-456h-720v-1996q0 -76 -16.5 -129t-50.5 -95t-86.5 -67t-124.5 -25t-124.5 25t-86.5 67t-50.5 95t-16.5 129v1996h-720v456h1996z" />
    <glyph glyph-name="O" unicode="O" horiz-adv-x="2748" 
d="M1384 2792q289 0 510.5 -96.5t371 -280t226 -449t76.5 -602.5q0 -344 -76.5 -610.5t-226 -449t-371 -277.5t-510.5 -95q-288 0 -512 99.5t-378 285t-234 450.5t-80 597q0 330 80 594.5t234 449.5t378 284.5t512 99.5zM1368 2344q-147 0 -260 -63.5t-189.5 -188
t-115.5 -307.5t-39 -421q0 -231 40.5 -413t120 -308t197 -192.5t270.5 -66.5q150 0 260.5 66.5t183.5 192.5t108.5 308t35.5 413t-39.5 413t-116.5 308t-191.5 192.5t-264.5 66.5z" />
    <glyph glyph-name="B" unicode="B" horiz-adv-x="2484" 
d="M992 2728q52 0 106.5 -1t112.5 -1q163 0 316.5 -19.5t296.5 -79.5q82 -35 153.5 -87.5t124.5 -125.5t83 -167.5t30 -214.5q0 -93 -29.5 -176t-81 -154t-121.5 -129t-151 -101q83 -32 167 -86t151.5 -133.5t110 -186t42.5 -242.5q0 -134 -30 -244.5t-84 -199t-128 -155.5
t-162 -114q-71 -38 -147.5 -63t-157 -39t-163.5 -19.5t-167 -5.5q-60 0 -101 3t-67 7q-42 6 -76 23.5t-58 44.5t-37 61t-13 73q0 67 26 108t64 63q48 27 97.5 32t100.5 5q63 0 125.5 6t119.5 21.5t105.5 44t84.5 73t56.5 108.5t20.5 151q0 83 -30 146t-76.5 107.5
t-104.5 71.5t-113 39q-35 7 -72 11t-70.5 6t-61.5 2.5t-44 0.5h-324v-942q0 -62 -19.5 -113.5t-55 -88t-85 -56.5t-108.5 -20q-38 0 -85 11t-87.5 40.5t-68 81.5t-27.5 135v2488h712zM816 1600h476q33 5 70.5 17t75 32t72 48.5t61 67t42 87t15.5 108.5q0 67 -24 122.5
t-62 97.5t-84 69t-89 37q-38 9 -74 14t-72.5 7t-74 2.5t-79.5 0.5h-253v-710z" />
    <glyph glyph-name="S" unicode="S" horiz-adv-x="2052" 
d="M1692 2164q-63 39 -135 71.5t-147.5 55.5t-151.5 36t-146 13q-93 0 -171.5 -16.5t-135.5 -50t-89 -84t-32 -117.5q0 -50 14.5 -89.5t39.5 -71t57.5 -56.5t68.5 -46q87 -50 182 -100.5t189.5 -101t183 -101.5t163.5 -101q100 -67 169 -140.5t112 -155t62 -171t19 -186.5
q0 -140 -39.5 -253.5t-110 -202.5t-167 -154t-210 -107t-239 -62.5t-254.5 -20.5q-124 0 -246.5 14t-244.5 49q-61 18 -117.5 39t-100 52.5t-69.5 78t-26 115.5q0 54 19.5 95t54 69t81 42t99.5 14q51 0 100.5 -13.5t97.5 -30.5q103 -35 203 -49.5t181 -14.5q78 0 155 12.5
t138 45t99 89t38 145.5q0 45 -13.5 82t-36 67.5t-52 55t-62.5 45.5q-41 26 -99.5 59t-124 68.5t-133.5 71.5t-128.5 68t-108.5 58.5t-74 42.5q-100 63 -181 131t-138 150.5t-88 185.5t-31 235q0 142 40 252.5t110.5 193.5t165.5 141t205.5 93.5t230.5 51.5t240 16
q121 0 235 -13.5t217.5 -38t194 -58.5t165.5 -74z" />
    <glyph glyph-name="A" unicode="A" horiz-adv-x="2477" 
d="M1536 2728l906 -2390q4 -12 10 -29t10.5 -35t8 -35t3.5 -30q0 -51 -14 -89.5t-37 -66.5t-52.5 -47t-59.5 -30t-58.5 -15.5t-50.5 -4.5q-35 0 -73.5 9t-75 32.5t-69.5 63t-56 100.5l-192 499h-1008l-206 -528q-18 -47 -47 -81t-63.5 -56t-72.5 -32.5t-75 -10.5
q-53 0 -100.5 16.5t-84 48t-58 75.5t-21.5 100q0 18 3.5 43t12.5 49l932 2444h588zM1584 1104l-220 636q-24 70 -44.5 141t-36 132t-25.5 106.5t-14 66.5h-12q-3 -21 -13.5 -67t-26.5 -107t-37.5 -132t-46.5 -140l-232 -636h708z" />
    <glyph glyph-name="H" unicode="H" horiz-adv-x="2668" 
d="M836 2728v-1080h1008v1080h544v-2459q0 -75 -16.5 -126t-49.5 -93t-84.5 -66t-121.5 -24q-72 0 -122.5 24t-84.5 66q-33 42 -49 93t-16 126v923h-1008v-916q0 -76 -16.5 -129t-50.5 -95t-86.5 -67t-124.5 -25t-124.5 25t-86.5 67t-50.5 95t-16.5 129v2452h556z" />
    <glyph glyph-name="P" unicode="P" horiz-adv-x="2280" 
d="M1080 2728q118 0 248.5 -8.5t257 -36.5t241.5 -81t202.5 -142.5t139 -220.5t51.5 -315q0 -174 -42.5 -307t-116 -230.5t-172.5 -163.5t-213.5 -105.5t-238 -56.5t-245.5 -17q-47 0 -96.5 9.5t-90 35t-67 70t-26.5 113.5t25.5 111.5t63 65.5t78.5 31t73 8q57 0 113.5 7.5
t108 25.5t96 49t77 78.5t51 113.5t18.5 154q0 75 -19 132t-52 99t-78.5 70t-98.5 45t-111 24t-117 7h-312v-2022q0 -75 -16.5 -126.5t-49.5 -93.5q-34 -42 -85 -66.5t-123 -24.5t-123 24.5t-85 66.5q-33 42 -49.5 93.5t-16.5 126.5v2457h800z" />
    <glyph glyph-name="R" unicode="R" horiz-adv-x="2422" 
d="M1060 2728q131 0 270 -7.5t271.5 -33.5t250.5 -78t207 -140t141 -219.5t52 -317.5q0 -130 -31.5 -233t-84.5 -183t-123.5 -139.5t-148.5 -102t-159.5 -70t-156.5 -44.5l644 -736q15 -17 29 -38t25.5 -46t18.5 -53t7 -59q0 -55 -14.5 -96t-38.5 -71t-53.5 -49.5t-60.5 -31
t-59.5 -16t-49.5 -4.5q-27 0 -55.5 3.5t-56 13t-53.5 27t-47 44.5l-740 956q-57 73 -80.5 136t-23.5 120q0 61 19.5 104t48.5 72q21 21 48 33.5t55.5 20t55.5 11t48 5.5q45 5 98 14.5t109 26.5q57 18 106 47.5t85.5 74.5t57.5 107t21 144q0 78 -21 136.5t-58 101t-88.5 70.5
t-112.5 44.5t-129 23t-139 6.5h-316v-2031q0 -66 -17.5 -123t-52 -99t-86 -65.5t-118.5 -23.5q-71 0 -122.5 25t-85.5 68t-50 99t-16 119v2457h780z" />
    <glyph glyph-name="U" unicode="U" horiz-adv-x="2640" 
d="M832 2728v-1612q0 -125 5.5 -221.5t21.5 -170.5t43 -128.5t71 -95.5q42 -40 90 -64.5t97.5 -37.5t98.5 -17.5t93 -4.5q40 0 87.5 8.5t95.5 26t94 45t84 65.5q40 40 63.5 93t36 126.5t16 170.5t3.5 225v1365q0 63 20.5 111.5t57.5 81.5t87 49.5t109 16.5q62 0 112.5 -18
t86.5 -51.5t55.5 -81.5t19.5 -108v-1353q0 -45 -0.5 -93t-1.5 -77q-3 -128 -23 -248t-66 -232q-66 -161 -168.5 -268t-227.5 -171.5t-266 -91.5t-283 -27q-111 0 -227.5 16.5t-228 55t-213 100.5t-182.5 153q-71 79 -115.5 162.5t-70 173.5t-35.5 187.5t-11 203.5
q-1 39 -1 77v75v1584h572z" />
    <glyph glyph-name="X" unicode="X" horiz-adv-x="2300" 
d="M612 2728l298 -508q36 -62 75 -129.5t74.5 -134.5t65 -129.5t47.5 -114.5h20q19 52 50.5 118t68 134.5t74.5 135t71 120.5l308 508h596l-876 -1340l704 -1032q29 -43 40.5 -80t11.5 -64q0 -59 -23.5 -106t-63 -80.5t-91 -51.5t-106.5 -18q-79 0 -140 27q-31 14 -60 42
t-56 73l-272 458q-31 52 -67.5 118.5t-71.5 135.5t-65 135t-48 119h-20q-20 -53 -50.5 -116t-66.5 -130t-75 -134.5t-76 -127.5l-285 -462q-26 -43 -56.5 -69t-58.5 -39q-57 -26 -124 -26q-57 0 -106 17.5t-85 49.5t-56.5 78t-20.5 103q0 22 2.5 40.5t8.5 36t15.5 34.5
t23.5 37l690 1032l-896 1340h672z" />
    <glyph glyph-name="I" unicode="I" horiz-adv-x="1116" 
d="M836 2728v-2452q0 -76 -16.5 -129t-50.5 -95t-86.5 -67t-124.5 -25t-124.5 25t-86.5 67t-50.5 95t-16.5 129v2452h556z" />
    <glyph glyph-name="K" unicode="K" horiz-adv-x="2364" 
d="M2464 2728l-1032 -1296l832 -1028q29 -35 48.5 -80.5t19.5 -87.5q0 -62 -22 -112.5t-60.5 -87t-91.5 -56.5t-114 -20q-27 0 -58 6.5t-60.5 19t-55.5 30t-42 40.5l-864 1168q-16 21 -27.5 45.5t-19 49t-11.5 48t-4 41.5q0 45 13 89t45 87l860 1144h644zM836 2728v-2452
q0 -76 -16.5 -129t-50.5 -95t-86.5 -67t-124.5 -25t-124.5 25t-86.5 67t-50.5 95t-16.5 129v2452h556z" />
    <glyph glyph-name="L" unicode="L" horiz-adv-x="1792" 
d="M836 2728v-2272h751q43 0 85 -6.5t78 -24.5q57 -29 89.5 -80t32.5 -117t-32.5 -117t-89.5 -80q-36 -18 -78 -24.5t-85 -6.5h-1307v2728h556z" />
    <glyph glyph-name="V" unicode="V" horiz-adv-x="2320" 
d="M572 2728l480 -1572q22 -71 42 -155t37 -163.5t31 -147t23 -104.5h14q7 37 20.5 102.5t30.5 144.5t37 163.5t41 159.5l432 1572h600l-780 -2500q-40 -130 -139 -199t-255 -69q-153 0 -253 65t-145 203l-828 2500h612z" />
    <glyph glyph-name="W" unicode="W" horiz-adv-x="3748" 
d="M604 2728l356 -1416q23 -91 43.5 -184t38 -183t32 -173.5t26.5 -153.5h9q11 71 27.5 166t34 193t34.5 187t31 148l328 1416h604l368 -1416q11 -42 23.5 -96.5t25 -115t25 -125t24 -128t21.5 -122t17 -107.5h8q25 147 60.5 324.5t83.5 369.5l356 1416h568l-687 -2504
q-40 -146 -137 -210q-48 -31 -110 -46.5t-134 -15.5q-76 0 -134 16t-109 49t-86 87t-54 126l-289 1082q-12 45 -25 101t-26.5 116t-26 121.5t-23.5 118.5t-20 105.5t-14 83.5h-9q-5 -35 -13 -84t-18.5 -106t-22.5 -118.5t-25 -121t-25.5 -114.5t-23.5 -98l-283 -1075
q-38 -144 -140 -212q-51 -34 -113 -51.5t-129 -17.5q-72 0 -132 14t-108 46q-94 62 -136 211l-695 2497h604z" />
    <glyph glyph-name="N" unicode="N" horiz-adv-x="2768" 
d="M956 2728l544 -1036q31 -60 70.5 -136.5t83.5 -164t91 -184t94 -195.5t92 -199t85 -195h16q-16 147 -28.5 288.5t-21.5 286.5t-13.5 298.5t-4.5 324.5v912h524v-2386q0 -118 -33 -187q-24 -50 -61.5 -86.5t-84 -60.5t-100 -36t-109.5 -12q-114 0 -212.5 58.5
t-171.5 192.5l-452 829q-58 106 -118 220.5t-123.5 245.5t-131 283t-139.5 333h-19q17 -155 30.5 -312t22.5 -309.5t13.5 -298t4.5 -278.5v-671q0 -72 -15.5 -121.5t-48.5 -89.5q-32 -39 -80.5 -62.5t-117.5 -23.5t-118 23.5t-81 62.5q-33 40 -48 89.5t-15 121.5v2475h676z
" />
    <glyph glyph-name="C" unicode="C" horiz-adv-x="2260" 
d="M1968 2232q-41 18 -92 34.5t-107.5 29t-116.5 20.5t-118 8q-191 0 -336.5 -65t-244 -187t-149 -298t-50.5 -398q0 -254 51 -438t142.5 -303.5t219.5 -177t283 -57.5q87 0 155 8t128 22q31 7 62.5 18.5t63.5 22t65 18t68 7.5q40 0 74.5 -12t60 -34.5t39.5 -56.5t14 -77
q0 -66 -31 -118q-31 -53 -96 -98.5t-146 -76.5q-60 -23 -123.5 -38t-127.5 -24t-126.5 -13t-119.5 -4q-100 0 -184 9t-159 26q-236 54 -405.5 175.5t-278.5 301t-161 411t-52 505.5q0 243 49.5 440.5t138.5 352.5t212.5 267.5t273 186.5t319.5 109.5t351 35.5
q100 0 188 -7.5t166.5 -21.5t148.5 -34t135 -45z" />
    <glyph glyph-name="D" unicode="D" horiz-adv-x="2716" 
d="M828 240q0 -55 -13.5 -96t-36 -71t-51.5 -49.5t-59 -31t-59.5 -16t-52.5 -4.5q-24 0 -53.5 4.5t-60 16t-59.5 31t-52 49.5t-37 71t-14 96v2488h716q55 0 121 -2t132 -6t127 -10t108 -13q152 -23 289 -70t254 -122.5t211 -181t160.5 -245t102 -315t35.5 -391.5
q0 -275 -61 -496t-176.5 -388.5t-281 -280.5t-373.5 -171q-97 -27 -200.5 -41.5t-227.5 -14.5q-57 0 -107.5 8t-92.5 29q-45 23 -74.5 65t-29.5 114q0 67 26.5 108t63.5 63q19 11 39.5 18.5t44 11.5t51.5 5.5t63 1.5q177 0 313.5 56.5t229.5 174t141 297.5t48 428
q0 212 -39.5 372t-117.5 273t-194 180t-269 93q-30 5 -73 8.5t-89 5.5t-91 3t-79 1h-152v-2056z" />
    <glyph glyph-name="Y" unicode="Y" horiz-adv-x="2112" 
d="M456 2728l316 -580q33 -62 71.5 -137.5t75.5 -154.5t69 -155t52 -137h20q19 60 49.5 135.5t66 155t72 155.5t68.5 138l296 580h620l-908 -1612v-860q0 -9 -0.5 -34.5t-2.5 -49.5q-5 -47 -28.5 -85.5t-60.5 -67t-84.5 -44t-99.5 -15.5q-57 0 -105.5 15.5t-85.5 44t-60 67
t-29 85.5q-3 24 -3.5 49.5t-0.5 34.5v868l-952 1604h644z" />
    <glyph glyph-name="Z" unicode="Z" horiz-adv-x="2312" 
d="M2192 2728v-324l-976 -1396q-57 -81 -112.5 -161t-106.5 -152.5t-96 -134t-81 -104.5h1135q43 0 82 -6t77 -26q57 -29 91.5 -79.5t34.5 -116.5q0 -45 -16 -82t-44 -66q-45 -47 -103.5 -63.5t-121.5 -16.5h-1847v308l1060 1520q51 73 98.5 140t89.5 124t77.5 102.5
t62.5 77.5h-1328v456h2024z" />
    <glyph glyph-name="period" unicode="." horiz-adv-x="1020" 
d="M488 596q73 0 137 -22t110.5 -62.5t73.5 -98t27 -129.5q0 -74 -27 -132.5t-73.5 -99t-110.5 -62.5t-137 -22q-71 0 -132.5 22t-108 62.5t-73 99t-26.5 132.5q0 72 26.5 129.5t73 98t108 62.5t132.5 22z" />
    <glyph glyph-name="colon" unicode=":" horiz-adv-x="1020" 
d="M488 596q73 0 137 -22t110.5 -62.5t73.5 -98t27 -129.5q0 -74 -27 -132.5t-73.5 -99t-110.5 -62.5t-137 -22q-71 0 -132.5 22t-108 62.5t-73 99t-26.5 132.5q0 72 26.5 129.5t73 98t108 62.5t132.5 22zM488 1780q73 0 137 -22.5t110.5 -63.5t73.5 -99.5t27 -130.5
t-27 -130.5t-73.5 -99.5t-110.5 -63.5t-137 -22.5q-71 0 -132.5 22.5t-108 63.5t-73 99.5t-26.5 130.5t26.5 130.5t73 99.5t108 63.5t132.5 22.5z" />
    <glyph glyph-name="semicolon" unicode=";" horiz-adv-x="1020" 
d="M56 -320q57 33 107.5 69.5t90.5 77t66.5 85t35.5 92.5q-45 15 -82.5 40.5t-64.5 60.5t-42 80t-15 99q0 73 25.5 130t70 95.5t105 58.5t131.5 20q100 0 172 -36.5t118.5 -97.5t69 -139.5t22.5 -162.5q0 -107 -40 -213t-118 -203.5t-192.5 -183.5t-263.5 -152zM488 1780
q72 0 135.5 -22.5t110.5 -63.5t74.5 -99.5t27.5 -130.5t-27.5 -130.5t-74.5 -99.5t-110.5 -63.5t-135.5 -22.5q-71 0 -132.5 22.5t-108 63.5t-73 99.5t-26.5 130.5t26.5 130.5t73 99.5t108 63.5t132.5 22.5z" />
    <glyph glyph-name="comma" unicode="," horiz-adv-x="1020" 
d="M56 -320q57 33 107.5 69.5t90.5 77t66.5 85t35.5 92.5q-45 15 -82.5 40.5t-64.5 60.5t-42 80t-15 99q0 73 25.5 130t70 95.5t105 58.5t131.5 20q100 0 172 -36.5t118.5 -97.5t69 -139.5t22.5 -162.5q0 -107 -40 -213t-118 -203.5t-192.5 -183.5t-263.5 -152z" />
    <glyph glyph-name="two" unicode="2" 
d="M168 404q22 79 72.5 166.5t119.5 178t153 182t174 178.5q65 63 139.5 128.5t146.5 127t136.5 115.5t108.5 94q54 49 99.5 96.5t78 99t50.5 109.5t18 129q0 66 -28.5 119t-80.5 90.5t-124 58t-159 20.5q-117 0 -215.5 -23t-180 -57.5t-146.5 -76.5t-114 -79l-260 380
q44 35 104 71.5t132 71.5t154.5 65.5t172.5 53.5t185 36.5t192 13.5q216 0 385 -46t285.5 -140t177.5 -236t61 -334q0 -122 -34 -227.5t-91 -197t-131 -171t-153 -148.5q-96 -84 -186 -158.5t-171 -142t-152 -130.5t-128 -124q-72 -76 -118.5 -138t-64.5 -107h1030
q62 0 121 -16t103 -63q27 -29 42.5 -66t15.5 -81t-15.5 -81t-42.5 -66q-44 -47 -103 -63t-121 -16h-1638v404z" />
    <glyph glyph-name="nine" unicode="9" 
d="M1064 2764q271 0 461.5 -90t310 -261t174 -418.5t54.5 -562.5q0 -207 -27.5 -396t-86.5 -352.5t-152 -296t-224 -227t-302.5 -145.5t-387.5 -51q-57 0 -116 4.5t-116 14.5q-57 9 -110.5 24t-91.5 32q-73 33 -115.5 83.5t-42.5 121.5q0 51 15.5 88.5t44 62.5t67 37
t85.5 12q51 0 87.5 -7t75.5 -15t89 -15t128 -7q135 0 234.5 41.5t170.5 114t115.5 171t70.5 212.5t35.5 239t9.5 250q0 90 -2.5 193.5t-15 206t-39.5 197.5t-76.5 167.5t-125 116t-185.5 43.5q-89 0 -166 -29t-134.5 -92.5t-90.5 -164t-33 -242.5q0 -131 25 -222.5t72 -150
t115.5 -85t155.5 -26.5q51 0 99.5 10t96.5 10q25 0 58.5 -6t63 -25.5t50 -58t20.5 -102.5q0 -51 -21 -89t-56 -66t-80 -45.5t-94 -28.5t-98 -15t-91 -4q-182 0 -335 49t-264.5 157t-174 280t-62.5 418q0 162 36.5 294.5t101 237t153 181.5t192 127.5t218 75t231.5 24.5z" />
    <glyph glyph-name="six" unicode="6" 
d="M1316 2752q57 0 116 -4t116 -13t110.5 -23t91.5 -31q72 -32 115 -84t43 -121q0 -51 -15.5 -88t-44 -61t-67.5 -35.5t-85 -11.5q-51 0 -87.5 6t-75.5 13.5t-89 14t-128 6.5q-127 0 -222.5 -40t-165 -110.5t-115 -167.5t-72.5 -211.5t-38 -242.5t-11 -260q0 -90 4.5 -193.5
t20.5 -206t46.5 -197.5t83 -167.5t130 -116t187.5 -43.5q88 0 161 27t125.5 88.5t81 159.5t28.5 241q0 130 -25 221.5t-72 149t-115.5 83.5t-155.5 26q-51 0 -99.5 -10t-96.5 -10q-26 0 -59 6t-62.5 25.5t-50 57.5t-20.5 101q0 52 21 89.5t55.5 64t80 43t94.5 25.5t98 12.5
t91 3.5q121 0 231 -20t204 -64t170.5 -114t130.5 -168.5t83 -228t29 -293.5q0 -162 -35 -293.5t-98.5 -235t-151 -178.5t-192.5 -124.5t-223.5 -73t-243.5 -23.5q-181 0 -324.5 42.5t-253.5 123t-187.5 197.5t-127 265t-72.5 325t-23 379q0 199 30 385t91 349t155.5 298.5
t222.5 232t292 150t365 53.5z" />
    <glyph glyph-name="seven" unicode="7" 
d="M2036 2348l-1071 -2247q-9 -18 -21.5 -37t-27.5 -36.5t-31.5 -31.5t-32.5 -23q-33 -17 -66.5 -25t-76.5 -8q-55 0 -104 16t-85.5 47.5t-58 78t-21.5 106.5q0 35 11 69t24 60l825 1679q13 26 32 63.5t40 77t41 76.5t35 63h-1063q-69 0 -117 13.5t-86 41.5q-37 28 -59.5 70
t-22.5 99q0 60 24 103t62 70q39 28 84.5 41.5t114.5 13.5h1651v-380z" />
    <glyph glyph-name="zero" unicode="0" 
d="M1126 2760q240 0 422.5 -98t305.5 -279.5t185.5 -441t62.5 -581.5q0 -324 -62.5 -583.5t-185.5 -441t-305.5 -278.5t-422.5 -97q-245 0 -429.5 97t-309 278.5t-187 441t-62.5 583.5q0 322 62.5 581.5t187 441t309 279.5t429.5 98zM1126 2336q-83 0 -149 -33.5t-116 -96
t-85.5 -150t-58 -196t-33 -235t-10.5 -265.5q0 -210 24 -388.5t77.5 -309t139.5 -204.5t211 -74q82 0 147 33.5t114 96t84 150t57 196t32 235t10 265.5t-10 265.5t-32 235t-57 196t-84 150t-114 96t-147 33.5z" />
    <glyph glyph-name="one" unicode="1" 
d="M1480 2728v-2276h422q62 0 121 -16t103 -63q27 -29 42.5 -66t15.5 -81t-15.5 -81t-42.5 -66q-44 -47 -103 -63t-121 -16h-1634v452h672v1568l-348 -220q-28 -17 -66.5 -34.5t-89.5 -17.5t-94.5 18t-75 48.5t-49 70t-17.5 83.5q0 63 38 118.5t98 93.5l860 548h284z" />
    <glyph glyph-name="three" unicode="3" 
d="M148 2452q90 63 196 119t223 98t242.5 66.5t254.5 24.5q116 0 227.5 -16t211 -51t183.5 -90t144.5 -133.5t94.5 -181t34 -232.5q0 -113 -40 -206.5t-103.5 -165.5t-143.5 -122.5t-160 -77.5q60 -19 122 -46.5t119.5 -66.5t108.5 -90t88.5 -117t59.5 -148.5t22 -183.5
q0 -151 -44.5 -274.5t-122 -220t-181.5 -168t-224 -118t-250 -69t-258 -22.5q-137 0 -259.5 15t-227.5 47q-60 19 -115 42t-96 54.5t-65.5 74t-24.5 99.5q0 54 18 94t50 66t77 39t99 13q39 0 77.5 -7t76 -17.5t73.5 -23t72 -22.5q80 -23 143 -34.5t126 -11.5q51 0 107 6
t110 21.5t103.5 43t86.5 70t59 102.5t22 141q0 72 -23 130t-64.5 103.5t-99 78.5t-126 54.5t-145.5 31.5t-158 10q-15 0 -41 -0.5t-47 -1.5v402q74 0 150 7t146.5 24t132.5 45.5t108 72.5t72.5 105t26.5 142q0 96 -36.5 161.5t-97 106t-138.5 58.5t-160 18
q-114 0 -208.5 -19t-170 -47t-132 -61t-93.5 -61z" />
    <glyph glyph-name="four" unicode="4" 
d="M1768 2728v-1848h122q59 0 115.5 -15t98.5 -61q26 -27 40.5 -62.5t14.5 -77.5t-14.5 -77.5t-40.5 -62.5q-42 -46 -98.5 -61t-115.5 -15h-122v-259q0 -12 -0.5 -32.5t-3.5 -40.5q-6 -39 -27.5 -75.5t-55 -64t-77 -44t-92.5 -16.5q-53 0 -98 16.5t-79.5 44.5t-56 64
t-26.5 75q-3 20 -3.5 40.5t-0.5 32.5v259h-1176v304l544 1524q16 45 42.5 80t60 59t73 36.5t82.5 12.5q30 0 71.5 -11t80 -39.5t65 -78t26.5 -127.5q0 -30 -8.5 -66t-16.5 -60l-312 -882q-12 -34 -30.5 -81t-37.5 -95t-36.5 -90l-27.5 -66q34 1 74 2.5t78.5 2.5t73 2t58.5 1
h324v1852h512z" />
    <glyph glyph-name="eight" unicode="8" 
d="M1096 2756q115 0 229.5 -15t219.5 -48t195.5 -87t157 -131t104.5 -180t38 -235q0 -72 -17 -144t-49 -139.5t-77 -126t-101 -103.5q-21 -17 -45.5 -28t-48.5 -17.5t-45.5 -9.5t-36.5 -3q-26 0 -64.5 7t-75 28.5t-62.5 62.5t-26 109q0 42 17 77t35 59q30 42 53 95t23 113
q0 87 -37 146t-96.5 95t-135 51.5t-151.5 15.5q-80 0 -156 -16t-135.5 -52.5t-96 -95.5t-36.5 -144q0 -49 17 -91t45.5 -79t67.5 -68.5t83 -59.5t91 -52.5t92 -46.5q51 -25 115 -55t131.5 -61.5t132 -63t117.5 -59.5q59 -32 120 -68t117.5 -79.5t106 -96t86 -117
t57.5 -142.5t21 -173q0 -131 -39.5 -239t-108.5 -194t-163 -149.5t-204 -105.5t-230.5 -63t-242.5 -21q-128 0 -252 17t-235 54t-205 93.5t-162.5 136.5t-107 183t-38.5 232q0 79 16.5 159t53 153.5t94 137t140.5 109.5q39 22 78.5 29.5t81.5 7.5q27 0 63.5 -9.5t69.5 -32.5
t56 -61.5t23 -96.5q0 -39 -9 -66t-27 -54q-17 -26 -33.5 -52.5t-29.5 -54t-21 -57t-8 -60.5q0 -104 42 -173t107 -110.5t144.5 -59t154.5 -17.5q48 0 99.5 7t101 23t93.5 42t77.5 65t53 91t19.5 120q0 77 -45 140.5t-115 116t-154 95.5t-162 80q-64 30 -127.5 61
t-117.5 57.5t-93 46.5t-54 28q-59 31 -120.5 68.5t-119 83.5t-109 101.5t-89.5 122.5t-60 147.5t-22 175.5q0 127 39 229.5t107.5 182.5t160.5 138.5t198.5 96t221.5 55.5t229 18z" />
    <glyph glyph-name="a" unicode="a" horiz-adv-x="2376" 
d="M2136 2076v-1852q0 -55 -14 -96.5t-37.5 -71t-52.5 -49t-58.5 -30.5t-57.5 -15.5t-48 -4.5q-21 0 -49 4.5t-58 15.5t-59 30.5t-51.5 49t-36.5 71t-14 96.5v1080q0 103 -29 178.5t-81.5 125t-126 73t-163.5 23.5q-102 0 -193.5 -36t-160.5 -116.5t-109.5 -210.5
t-40.5 -317q0 -164 34 -285.5t95 -202t144.5 -120.5t182.5 -40q54 0 98 8t86 8q93 0 142.5 -52t49.5 -136q0 -39 -12 -69t-32.5 -54t-47 -42t-54.5 -32q-65 -32 -140.5 -45t-153.5 -13q-212 0 -386.5 64.5t-299 196.5t-193.5 332t-69 470q0 273 77.5 481.5t213 349.5
t318.5 213t395 72q166 0 299 -42.5t245 -133.5l44 124h404z" />
    <glyph glyph-name="b" unicode="b" horiz-adv-x="2360" 
d="M776 2960v-1040q46 46 107.5 84.5t132.5 66t150 42.5t162 15q211 0 377 -66t280.5 -197t174.5 -327.5t60 -457.5q0 -272 -69.5 -481.5t-194 -352t-298.5 -216.5t-382 -74q-38 0 -77.5 3t-78 10t-74.5 17.5t-66 25.5q-27 13 -51 31.5t-42 43t-28.5 55.5t-10.5 70
q0 42 15 77t42.5 60.5t65.5 40t85 14.5q42 0 86 -8t98 -8q97 0 176.5 36.5t135 116t86 205t30.5 302.5t-32.5 301.5t-91 203.5t-140 115t-180.5 36q-94 0 -171 -27t-134 -73t-93.5 -106t-49.5 -126v-1110q0 -73 -16 -123.5t-49 -92.5q-32 -40 -83 -64.5t-120 -24.5
t-120.5 24t-83.5 65q-33 41 -48.5 92t-15.5 124v2698h536z" />
    <glyph glyph-name="c" unicode="c" horiz-adv-x="2032" 
d="M1752 1552q-59 39 -119.5 65.5t-120 43t-116.5 24t-108 7.5q-138 0 -248.5 -40.5t-187.5 -120.5t-118.5 -200t-41.5 -279q0 -171 42.5 -298t113.5 -211t164.5 -125.5t195.5 -41.5q88 0 155.5 13.5t130.5 34.5q33 11 58.5 24t51 23.5t54 17.5t66.5 7q37 0 72 -12
t61.5 -34.5t42.5 -56.5t16 -77q0 -78 -67.5 -149.5t-194.5 -126.5q-124 -53 -251.5 -74.5t-238.5 -21.5q-216 0 -403 63.5t-325 196.5t-217 337.5t-79 486.5q0 193 43 349t119.5 278t181 210.5t228.5 146t262.5 85t281.5 27.5q188 0 350.5 -37t305.5 -103z" />
    <glyph glyph-name="at" unicode="@" horiz-adv-x="4448" 
d="M2812 1980h384l-280 -1116q-13 -51 -21.5 -103.5t-8.5 -100.5q0 -46 9.5 -85.5t32 -69t59 -46.5t91.5 -17q96 0 184.5 55t156.5 160t108.5 256t40.5 343q0 223 -41 397t-118.5 304.5t-189.5 221t-252.5 147t-308.5 81.5t-358 25q-201 0 -392 -44.5t-359.5 -131.5
t-310 -217t-243 -300.5t-158.5 -381.5t-57 -461q0 -234 51.5 -418.5t144.5 -325t222 -239.5t284.5 -161.5t332.5 -91t365 -28.5q167 0 308.5 22t259.5 63q42 15 73.5 25t57 17t48.5 10t49 3q52 0 93 -15t69.5 -41t43 -62t14.5 -78q0 -47 -18 -83t-46 -63t-63 -47t-69 -35
q-74 -32 -170.5 -59.5t-208.5 -48t-236 -32.5t-253 -12q-226 0 -449.5 38t-427 121t-378.5 215t-303 319.5t-201 434.5t-73 560q0 241 45.5 453.5t128 394.5t198.5 335t258 275t305.5 214.5t340.5 154t364 92.5t376 31q228 0 443.5 -33.5t405.5 -109t349 -195.5t273 -293.5
t177.5 -403t63.5 -523.5q0 -205 -40.5 -375.5t-112 -306.5t-170 -237.5t-215 -169.5t-247 -101.5t-265.5 -33.5q-113 0 -217.5 32.5t-184 97.5t-127 164t-47.5 231q0 69 6 146t28 165l87 348q19 77 19 141q0 62 -19.5 106.5t-56.5 73t-90 42t-120 13.5q-101 0 -182.5 -34
t-144.5 -93t-108.5 -137t-75 -166t-43.5 -181t-14 -181q0 -177 68.5 -264.5t191.5 -87.5q31 0 55 5t47.5 11t49 11t60.5 5q24 0 57 -5t63 -24.5t51 -57t21 -101.5q0 -133 -117 -197q-87 -48 -179.5 -61.5t-191.5 -13.5q-164 0 -296.5 53t-227 152t-145.5 240.5t-51 318.5
q0 181 34 342t99 297t161.5 244.5t220.5 184t276 116t329 40.5q156 0 270 -51t198 -141z" />
    <glyph glyph-name="parenleft" unicode="(" horiz-adv-x="1556" 
d="M1516 2576q-200 -123 -356.5 -273.5t-265 -340t-165.5 -423.5t-57 -523q0 -264 54 -489t151.5 -410.5t232 -333t296.5 -256.5q31 -21 60 -44.5t51.5 -52t36.5 -64t14 -78.5q0 -50 -20 -86.5t-51.5 -61t-72 -36.5t-80.5 -12q-62 0 -119.5 16.5t-110.5 43t-102 60t-93 67.5
q-104 80 -203 182.5t-187.5 227t-162.5 270.5t-128 312t-84 352.5t-30 392.5q0 259 44 483t124.5 417t194 356.5t251.5 300.5t297.5 250t332.5 205z" />
    <glyph glyph-name="percent" unicode="%" horiz-adv-x="2957" 
d="M668 2744q128 0 229.5 -49.5t172 -141t107.5 -222.5t37 -293q0 -164 -37 -294.5t-107.5 -222.5t-172 -141t-229.5 -49q-131 0 -234 49t-174 141t-108.5 222.5t-37.5 294.5q0 162 37.5 293t108.5 222.5t174 141t234 49.5zM668 2497q-59 0 -103.5 -35t-74.5 -96.5
t-45 -145.5t-15 -182q0 -99 15 -183.5t45 -146t74.5 -96t103.5 -34.5q58 0 101.5 35t72.5 96.5t43.5 146t14.5 182.5t-14.5 182t-43.5 145.5t-72.5 96.5t-101.5 35zM2589 2728l-1851 -2728h-391l1849 2728h393zM2275 1388q128 0 229.5 -49.5t172 -141t107.5 -222.5t37 -293
q0 -164 -37 -294.5t-107.5 -222.5t-172 -141t-229.5 -49q-131 0 -234 49t-174 141t-108.5 222.5t-37.5 294.5q0 162 37.5 293t108.5 222.5t174 141t234 49.5zM2275 1141q-59 0 -103.5 -35t-74.5 -96.5t-45 -145.5t-15 -182q0 -99 15 -183.5t45 -146t74.5 -96t103.5 -34.5
q58 0 101.5 35t72.5 96.5t43.5 146t14.5 182.5t-14.5 182t-43.5 145.5t-72.5 96.5t-101.5 35z" />
    <glyph glyph-name="asterisk" unicode="*" horiz-adv-x="2184" 
d="M1368 3184l-132 -680l20 -12l524 452l276 -476l-652 -228v-24l652 -228l-276 -476l-524 452l-20 -12l132 -680h-552l132 680l-20 12l-524 -452l-276 476l652 228v24l-652 228l276 476l524 -452l20 12l-132 680h552z" />
    <glyph glyph-name="quotedbl" unicode="&#x22;" horiz-adv-x="1584" 
d="M696 3184q-14 -217 -24 -368t-16.5 -252t-11 -160t-7 -92t-3.5 -48t-2 -28q-3 -42 -21 -75.5t-46.5 -56.5t-65.5 -35.5t-79 -12.5t-79.5 12.5t-66 35.5t-46 56.5t-20.5 75.5q-1 13 -2 28t-3.5 48t-7 92t-11 160t-16.5 252t-24 368h552zM1436 3184q-14 -217 -24 -368
t-16.5 -252t-11 -160t-7 -92t-3.5 -48t-2 -28q-3 -42 -21 -75.5t-46.5 -56.5t-65.5 -35.5t-79 -12.5t-79.5 12.5t-66 35.5t-46 56.5t-20.5 75.5q-1 13 -2 28t-3.5 48t-7 92t-11 160t-16.5 252t-24 368h552z" />
    <glyph glyph-name="quotedblleft" unicode="&#x201c;" horiz-adv-x="1708" 
d="M1688 2936q-57 -32 -107.5 -68.5t-90.5 -77t-66.5 -84.5t-35.5 -90q43 -17 80.5 -44t65 -62t43 -79t15.5 -95q0 -74 -25.5 -130.5t-70 -95t-105.5 -58.5t-131 -20q-100 0 -172 36.5t-118.5 97t-69 138t-22.5 160.5q0 108 40 214.5t118 204t192.5 183.5t263.5 154z
M840 2936q-57 -32 -107.5 -68.5t-90.5 -77t-66.5 -84.5t-35.5 -90q43 -17 80.5 -44t65 -62t43 -79t15.5 -95q0 -74 -25.5 -130.5t-70 -95t-105.5 -58.5t-131 -20q-100 0 -172 36.5t-118.5 97t-69 138t-22.5 160.5q0 108 40 214.5t118 204t192.5 183.5t263.5 154z" />
    <glyph glyph-name="quotedblright" unicode="&#x201d;" horiz-adv-x="1712" 
d="M20 2288q57 30 107.5 65.5t90.5 76t66.5 85.5t35.5 93q-45 16 -82.5 42t-64.5 61.5t-42 79.5t-15 97q0 75 25.5 132t70 95t105 57.5t131.5 19.5q100 0 172 -36t118.5 -96t69 -138t22.5 -162q0 -108 -40 -214.5t-118 -204t-192.5 -184t-263.5 -153.5zM872 2288
q57 30 107.5 65.5t90.5 76t66.5 85.5t35.5 93q-45 16 -82.5 42t-64.5 61.5t-42 79.5t-15 97q0 75 25.5 132t70.5 95t106.5 57.5t133.5 19.5q98 0 169.5 -36t118 -96t68.5 -138t22 -162q0 -108 -40 -214.5t-118 -204t-192.5 -184t-263.5 -153.5z" />
    <glyph glyph-name="bullet" unicode="&#x2022;" horiz-adv-x="1720" 
d="M820 1560q115 0 215.5 -35.5t174 -101.5t116 -160t42.5 -211t-42.5 -211t-116 -160t-174 -101.5t-215.5 -35.5q-113 0 -211 35.5t-171.5 101.5t-115.5 160t-42 211t42 211t115.5 160t171.5 101.5t211 35.5z" />
    <glyph glyph-name="ellipsis" unicode="&#x2026;" horiz-adv-x="3060" 
d="M528 596q72 0 134.5 -22t109 -62.5t73.5 -98t27 -129.5q0 -74 -27 -132.5t-73.5 -99t-109 -62.5t-134.5 -22t-135 22t-109.5 62.5t-73 99t-26.5 132.5q0 72 26.5 129.5t73 98t109.5 62.5t135 22zM1472 596q73 0 137 -22t110.5 -62.5t73.5 -98t27 -129.5q0 -74 -27 -132.5
t-73.5 -99t-110.5 -62.5t-137 -22q-71 0 -132.5 22t-108 62.5t-73 99t-26.5 132.5q0 72 26.5 129.5t73 98t108 62.5t132.5 22zM2420 596q72 0 134.5 -22t109 -62.5t73.5 -98t27 -129.5q0 -74 -27 -132.5t-73.5 -99t-109 -62.5t-134.5 -22q-71 0 -132.5 22t-108 62.5t-73 99
t-26.5 132.5q0 72 26.5 129.5t73 98t108 62.5t132.5 22z" />
    <glyph glyph-name="periodcentered" unicode="&#xb7;" horiz-adv-x="1760" 
d="M824 1368q73 0 137 -22.5t110.5 -63.5t73.5 -99.5t27 -130.5q0 -74 -27 -132.5t-73.5 -99t-110.5 -62.5t-137 -22q-71 0 -132.5 22t-108 62.5t-73 99t-26.5 132.5q0 72 26.5 130.5t73 99.5t108 63.5t132.5 22.5z" />
    <glyph glyph-name="hyphen" unicode="-" horiz-adv-x="1492" 
d="M996 1288q42 0 84.5 -5t82.5 -23q60 -26 98.5 -81t38.5 -127q0 -48 -18.5 -86.5t-48.5 -69.5q-23 -24 -51.5 -38.5t-59.5 -23t-63 -11.5t-63 -3h-840v468h840z" />
    <glyph glyph-name="fi" unicode="&#xfb01;" horiz-adv-x="2311" 
d="M327 2076v88q0 155 37 280t103.5 221t159 165.5t205 114.5t240.5 66t265 21q123 0 225.5 -13t185 -33.5t145.5 -45.5t108 -50l-158 -370q-18 8 -59.5 24t-101 32t-135 28t-162.5 12q-104 0 -200 -23.5t-170 -76t-118 -137t-44 -207.5v-96h297q23 0 57 -4.5t74 -24.5
q52 -26 83.5 -73.5t31.5 -113.5q0 -63 -31.5 -109.5t-83.5 -72.5q-42 -21 -76.5 -25.5t-56.5 -4.5h-282v-1424q0 -59 -21 -108.5t-57.5 -84.5t-85.5 -54.5t-104 -19.5q-59 0 -108 21t-84.5 57.5t-55.5 85t-20 103.5v1424h-300v428h297zM2071 2076v-1852q0 -59 -21 -108.5
t-57.5 -84.5t-85.5 -54.5t-104 -19.5q-59 0 -108 21t-84.5 57.5t-55.5 85t-20 103.5v1852h536z" />
    <glyph glyph-name="fl" unicode="&#xfb02;" horiz-adv-x="2298" 
d="M334 2076v100q0 152 35.5 272.5t101 212.5t157 157t204 106.5t242 60.5t270.5 19q123 0 233 -8.5t202 -22t163 -30.5t116 -35v-2684q0 -59 -20 -106.5t-55 -82t-83 -53t-104 -18.5q-60 0 -108 20t-81.5 55t-52 82.5t-18.5 102.5v2390h-188q-104 0 -194 -18.5
t-157.5 -68.5t-106 -137.5t-38.5 -225.5v-88h298q23 0 57 -4.5t74 -24.5q52 -26 83.5 -73.5t31.5 -113.5q0 -63 -31.5 -109.5t-83.5 -72.5q-42 -21 -76.5 -25.5t-56.5 -4.5h-282v-1424q0 -59 -21 -108.5t-57.5 -84.5t-85.5 -54.5t-104 -19.5q-59 0 -108 21t-84.5 57.5
t-55.5 85t-20 103.5v1424h-300v428h304z" />
    <glyph glyph-name="section" unicode="&#xa7;" horiz-adv-x="2076" 
d="M1672 2184q-125 66 -253 105t-271 39q-80 0 -149 -14t-120.5 -42.5t-81 -72t-29.5 -103.5q0 -43 15.5 -79.5t41.5 -67t61 -56t74 -46.5q97 -53 188 -100.5t169.5 -89t141.5 -76t105 -61.5q103 -68 166 -134.5t97.5 -133t45.5 -133.5t11 -135q0 -74 -21 -154t-62.5 -147.5
t-104 -111t-144.5 -43.5q-44 0 -86.5 13t-77 38t-55.5 60.5t-21 80.5q0 34 8.5 65.5t18 61.5t18 59.5t8.5 61.5q0 34 -11.5 64.5t-31 57t-45 48t-53.5 38.5q-85 51 -173.5 99t-170.5 91.5t-153.5 82t-122.5 71.5q-96 61 -163 123.5t-109 130t-61 142t-19 160.5
q0 114 36 206.5t98.5 164.5t147 124t183 86t205.5 50.5t214 16.5q130 0 240 -15.5t198 -38.5t154 -50.5t108 -51.5zM532 1392q49 0 92.5 -15t75 -41.5t50 -63.5t18.5 -80q0 -34 -8.5 -64.5t-18 -59.5t-18 -58t-8.5 -59q0 -36 9 -64t26.5 -51.5t42 -43t54.5 -38.5
q94 -59 183.5 -106.5t172.5 -90.5t160.5 -85t147.5 -89q92 -61 158 -125.5t108.5 -134.5t62.5 -147t20 -164q0 -118 -37 -213t-101.5 -169t-152.5 -127t-189 -87.5t-211.5 -51t-220.5 -16.5q-65 0 -143 4.5t-157.5 17t-153.5 34.5t-131.5 55.5t-92.5 81t-35 111.5
q0 49 17 86t48 61.5t72.5 37t91.5 12.5q51 0 92.5 -6.5t78.5 -15.5t72.5 -20.5t74 -20.5t83 -15.5t99.5 -6.5q82 0 148 12t112.5 39t71 70.5t24.5 106.5q0 46 -14 83t-39 67t-58 55t-72 48q-72 43 -152.5 85.5t-161.5 84.5t-158.5 84t-144.5 85q-106 68 -171 136t-101 136.5
t-48 137.5t-12 138q0 53 9.5 107.5t28.5 106t47 96t66.5 78t86.5 53t106 19.5z" />
    <glyph glyph-name="exclam" unicode="!" horiz-adv-x="1180" 
d="M912 284q0 -74 -27 -132.5t-73.5 -99t-109 -62.5t-134.5 -22t-135 22t-109.5 62.5t-73 99t-26.5 132.5q0 72 26.5 129.5t73 98t109.5 62.5t135 22t134.5 -22t109 -62.5t73.5 -98t27 -129.5zM876 2680l-64 -1516q-2 -50 -18 -91.5t-46 -72t-74.5 -47.5t-102.5 -17
t-102.5 17t-75 47.5t-47 72t-18.5 91.5l-64 1516h612z" />
    <glyph glyph-name="question" unicode="?" horiz-adv-x="1660" 
d="M648 596q72 0 134.5 -22t109 -62.5t73.5 -98t27 -129.5q0 -74 -27 -132.5t-73.5 -99t-109 -62.5t-134.5 -22t-135 22t-109.5 62.5t-73 99t-26.5 132.5q0 72 26.5 129.5t73 98t109.5 62.5t135 22zM72 2548q33 21 79 44t101.5 45t119 42.5t132.5 35.5t142 24t146 9
q98 0 192.5 -14t179 -44t155.5 -77t123 -114t81 -154t29 -197q0 -83 -26 -158.5t-69 -144t-99.5 -128t-117.5 -109.5q-24 -20 -59 -46.5t-73 -55t-76 -56.5t-68 -50q-20 -15 -43 -31.5t-43 -36.5t-33 -44.5t-13 -55.5q0 -21 4 -44.5t4 -47.5q0 -56 -19 -94.5t-50.5 -63
t-74 -35.5t-88.5 -11q-141 0 -204.5 78t-63.5 222q0 63 14.5 119t44.5 107.5t75 100.5t106 97q63 51 135 102.5t141 103.5q31 23 58 45.5t47 49t31.5 58.5t11.5 73q0 60 -25 102t-66 68t-94.5 38t-110.5 12q-75 0 -144.5 -14.5t-130 -36.5t-110 -49t-83.5 -52z" />
    <glyph glyph-name="florin" unicode="&#x192;" horiz-adv-x="3668" 
d="M1956 1500q-38 163 -66.5 310t-48.5 294h-27q-20 -161 -44.5 -309.5t-58.5 -294.5h245zM963 1120q33 -158 59.5 -313t52.5 -311h26q23 140 39 238t28 168.5t21.5 121t18.5 96.5h-245zM2492 1120q34 -152 59 -302t48 -302h27q25 157 52 306t59 298h-245zM16 2728h588
l296 -1216h360l276 1216h584l308 -1216h376l296 1216h552l-324 -1216h144q37 0 68 -6t64 -23q49 -26 78.5 -68.5t29.5 -102.5t-29.5 -102.5t-78.5 -68.5q-33 -17 -64 -23t-68 -6h-248l-244 -916q-15 -55 -47 -100t-79.5 -77t-107.5 -49.5t-130 -17.5q-66 0 -126 18
t-108.5 51.5t-83.5 80.5t-50 106l-232 904h-368l-228 -900q-14 -53 -47.5 -98.5t-82 -80t-108.5 -54t-126 -19.5q-69 0 -128 16.5t-105.5 48t-79 77t-47.5 102.5l-244 908h-380v400h272z" />
    <glyph glyph-name="dollar" unicode="$" horiz-adv-x="2052" 
d="M840 2956h404v-176q203 -12 374 -57t302 -111l-212 -396q-42 31 -98 59.5t-117.5 50t-125.5 34t-123 12.5v-772q52 -24 103.5 -48.5t97 -47.5t82.5 -43t61 -35q103 -65 176 -139t119 -158t67.5 -179t21.5 -202q0 -111 -27.5 -205t-76 -172.5t-116.5 -141t-148.5 -110.5
t-172 -81.5t-187.5 -53.5v-110q0 -36 -6 -64t-16.5 -48.5t-25 -35.5t-30.5 -26q-31 -22 -60.5 -29.5t-61.5 -7.5q-34 0 -64 7.5t-62 29.5q-16 11 -30.5 26t-25 35.5t-16.5 48.5t-6 64v78q-109 6 -213.5 21t-189.5 41q-57 17 -112.5 39t-99 53.5t-70.5 74.5t-27 103
q0 51 19 89t51.5 63.5t76 38.5t93.5 13q25 0 52 -4.5t52.5 -11t48 -14t39.5 -13.5q72 -25 143 -40t137 -21v792q-38 13 -81 32t-83.5 39t-74.5 38.5t-53 30.5q-102 64 -182.5 136.5t-136.5 160t-85.5 193.5t-29.5 238q0 114 27.5 207.5t76.5 168.5t116.5 132.5t148.5 99.5
t171.5 69.5t185.5 42.5v192zM853 2364q-54 -20 -99.5 -50.5t-78.5 -70t-51.5 -87.5t-18.5 -102q0 -65 19 -118t52.5 -94t78.5 -71.5t98 -50.5v644zM1234 407q55 16 102.5 45t82 70t54 93.5t19.5 114.5q0 67 -22 119t-58 92t-82.5 69.5t-95.5 50.5v-654z" />
    <glyph glyph-name="perthousand" unicode="&#x2030;" horiz-adv-x="4173" 
d="M668 2744q128 0 229.5 -49.5t172 -141t107.5 -222.5t37 -293q0 -164 -37 -294.5t-107.5 -222.5t-172 -141t-229.5 -49q-131 0 -234 49t-174 141t-108.5 222.5t-37.5 294.5q0 162 37.5 293t108.5 222.5t174 141t234 49.5zM668 2497q-59 0 -103.5 -35t-74.5 -96.5
t-45 -145.5t-15 -182q0 -99 15 -183.5t45 -146t74.5 -96t103.5 -34.5q58 0 101.5 35t72.5 96.5t43.5 146t14.5 182.5t-14.5 182t-43.5 145.5t-72.5 96.5t-101.5 35zM2589 2728l-1851 -2728h-391l1849 2728h393zM2275 1388q128 0 229.5 -49.5t172 -141t107.5 -222.5t37 -293
q0 -164 -37 -294.5t-107.5 -222.5t-172 -141t-229.5 -49q-131 0 -234 49t-174 141t-108.5 222.5t-37.5 294.5q0 162 37.5 293t108.5 222.5t174 141t234 49.5zM2275 1141q-59 0 -103.5 -35t-74.5 -96.5t-45 -145.5t-15 -182q0 -99 15 -183.5t45 -146t74.5 -96t103.5 -34.5
q58 0 101.5 35t72.5 96.5t43.5 146t14.5 182.5t-14.5 182t-43.5 145.5t-72.5 96.5t-101.5 35zM3491 1388q128 0 229.5 -49.5t172 -141t107.5 -222.5t37 -293q0 -164 -37 -294.5t-107.5 -222.5t-172 -141t-229.5 -49q-131 0 -234 49t-174 141t-108.5 222.5t-37.5 294.5
q0 162 37.5 293t108.5 222.5t174 141t234 49.5zM3491 1141q-59 0 -103.5 -35t-74.5 -96.5t-45 -145.5t-15 -182q0 -99 15 -183.5t45 -146t74.5 -96t103.5 -34.5q58 0 101.5 35t72.5 96.5t43.5 146t14.5 182.5t-14.5 182t-43.5 145.5t-72.5 96.5t-101.5 35z" />
    <glyph glyph-name="parenright" unicode=")" horiz-adv-x="1556" 
d="M-16 -516q199 124 356.5 275.5t267 341t167 422.5t57.5 521q0 264 -55 489t-153 411t-233.5 333.5t-296.5 255.5q-31 21 -60 45t-51.5 53.5t-36.5 65t-14 79.5q0 48 20.5 84.5t52.5 61.5t72 37.5t79 12.5q58 0 114 -16t109 -42.5t103.5 -61t98.5 -71.5
q103 -79 202.5 -181.5t187.5 -227t162.5 -270.5t128.5 -312.5t84 -353t30 -392.5q0 -259 -44 -483t-124.5 -416.5t-194 -355t-251.5 -299.5t-297.5 -249.5t-332.5 -204.5z" />
    <glyph glyph-name="bracketleft" unicode="[" horiz-adv-x="1568" 
d="M312 2964h858q40 0 75.5 -5.5t70.5 -23.5q53 -27 84.5 -73t31.5 -108q0 -42 -14.5 -76t-40.5 -61q-42 -42 -96 -57.5t-111 -15.5h-338v-3020h556v-420h-1076v3860z" />
    <glyph glyph-name="bracketright" unicode="]" horiz-adv-x="1568" 
d="M1256 -896h-858q-40 0 -75.5 5.5t-70.5 23.5q-53 27 -84.5 73t-31.5 108q0 42 14.5 76t40.5 61q42 42 95.5 57.5t111.5 15.5h338v3020h-556v420h1076v-3860z" />
    <glyph glyph-name="bar" unicode="|" horiz-adv-x="1244" 
d="M378 3028h476v-3940h-476v3940z" />
    <glyph glyph-name="slash" unicode="/" horiz-adv-x="1912" 
d="M1442 2964h536l-1512 -3236h-532z" />
    <glyph glyph-name="quoteright" unicode="&#x2019;" horiz-adv-x="860" 
d="M20 2288q57 30 108 65.5t91 76t66.5 85.5t34.5 93q-44 16 -81.5 42t-64.5 61.5t-42.5 80t-15.5 96.5q0 75 25.5 132t70.5 95t106.5 57.5t133.5 19.5q99 0 170.5 -36t117.5 -96t68 -138t22 -162q0 -108 -39.5 -214.5t-117 -204t-192 -184t-265.5 -153.5z" />
    <glyph glyph-name="quotesingle" unicode="'" horiz-adv-x="884" 
d="M712 3184l-56 -852q-1 -12 -3 -40.5t-5 -55.5q-10 -81 -70.5 -130.5t-157.5 -49.5q-42 0 -79 13t-66.5 36.5t-48 56.5t-22.5 74q-3 27 -5 55.5t-3 40.5l-52 852h568z" />
    <glyph glyph-name="quoteleft" unicode="&#x2018;" horiz-adv-x="866" 
d="M846 2936q-57 -32 -108.5 -68.5t-92 -77t-67.5 -84.5t-36 -90q43 -17 80.5 -44t65 -62t43 -79t15.5 -95q0 -74 -25.5 -130.5t-70 -95t-105.5 -58.5t-131 -20q-99 0 -171.5 36.5t-119.5 97t-70 138t-23 160.5q0 108 40.5 214.5t119 204t193 183.5t263.5 154z" />
    <glyph glyph-name="questiondown" unicode="&#xbf;" horiz-adv-x="1660" 
d="M1012 2120q-72 0 -135 21.5t-109.5 62t-73 98.5t-26.5 130q0 73 26.5 132t73 99.5t109.5 62.5t135 22t134.5 -22t109 -62.5t73.5 -99.5t27 -132q0 -72 -27 -130t-73.5 -98.5t-109 -62t-134.5 -21.5zM1588 168q-50 -32 -127.5 -67t-172.5 -64.5t-203 -49t-217 -19.5
q-98 0 -192.5 14t-179 44t-155.5 77t-123 114t-81 154t-29 197q0 82 25.5 158.5t69 144.5t99.5 127.5t118 108.5q24 19 59 46t73.5 55.5t76 56.5t67.5 51q19 15 42.5 31.5t43 36t33 44t13.5 56.5q0 21 -4 44.5t-4 47.5q0 55 19 94t50.5 63.5t73.5 35.5t89 11
q141 0 204.5 -78t63.5 -222q0 -63 -14.5 -119t-44.5 -107.5t-75 -100.5t-106 -97q-63 -51 -135 -102.5t-141 -103.5q-31 -23 -58 -45.5t-47 -49t-31.5 -58.5t-11.5 -73q0 -60 25 -102t66 -68t94.5 -38t110.5 -12q75 0 144.5 14t130 36.5t109.5 49t84 52.5z" />
    <glyph glyph-name="exclamdown" unicode="&#xa1;" horiz-adv-x="1180" 
d="M264 0l60 1520q2 48 17.5 89t46 71t77.5 47t111 17q53 0 95.5 -17t73.5 -47t48 -71t19 -89l64 -1520h-612zM568 2716q72 0 134.5 -22.5t109 -63.5t73.5 -99.5t27 -130.5q0 -74 -27 -132.5t-73.5 -99t-109 -62.5t-134.5 -22t-135 22t-109.5 62.5t-73 99t-26.5 132.5
q0 72 26.5 130.5t73 99.5t109.5 63.5t135 22.5z" />
    <glyph glyph-name="endash" unicode="&#x2013;" 
d="M1839 1270q61 0 106 -11t81 -36q37 -25 59 -66.5t22 -102.5q0 -63 -24 -104t-62 -65t-82.5 -33.5t-99.5 -9.5h-1659v428h1659z" />
    <glyph glyph-name="emdash" unicode="&#x2014;" horiz-adv-x="4000" 
d="M3572 1270q61 0 106 -11t81 -36q37 -25 59 -66.5t22 -102.5q0 -63 -24 -104t-62 -65t-82.5 -33.5t-99.5 -9.5h-3520v428h3520z" />
    <glyph glyph-name="underscore" unicode="_" horiz-adv-x="1891" 
d="M1659 -442q61 0 106 -11t81 -36q37 -25 59 -66.5t22 -102.5q0 -63 -24 -104t-62 -65t-82.5 -33.5t-99.5 -9.5h-1659v428h1659z" />
    <glyph glyph-name="plus" unicode="+" 
d="M1348 2080v-800h508q9 0 34 -1t46 -3q43 -5 82.5 -23t69 -47t47 -68t17.5 -86q0 -45 -17.5 -83.5t-47 -67.5t-69 -47t-82.5 -23q-21 -2 -46 -2.5t-34 -0.5h-508v-578q0 -9 -0.5 -36t-3.5 -54q-5 -42 -25 -79t-53 -65t-77 -44t-97 -16q-51 0 -94.5 16t-76 44t-53 65
t-24.5 79q-3 27 -3.5 54t-0.5 36v578h-732v452h732v800h508z" />
    <glyph glyph-name="equal" unicode="=" 
d="M1640 1688q12 0 33 -0.5t51 -3.5q43 -5 83 -23.5t70.5 -49.5t48.5 -72t18 -91q0 -46 -18.5 -86t-49 -70.5t-70.5 -48.5t-82 -21q-29 -2 -50.5 -2h-33.5h-1400v468h1400zM1640 900q12 0 33 -0.5t51 -3.5q43 -5 83 -23.5t70.5 -49.5t48.5 -72t18 -91q0 -46 -18.5 -86
t-49 -70.5t-70.5 -48.5t-82 -21q-29 -2 -50.5 -2h-33.5h-1400v468h1400z" />
    <glyph glyph-name="quotesinglbase" unicode="&#x201a;" horiz-adv-x="860" 
d="M20 -320q57 33 108 69.5t91 77t66.5 85t34.5 92.5q-44 15 -81 40.5t-64.5 60.5t-43 80t-15.5 99q0 73 25.5 130t70.5 95.5t106.5 58.5t133.5 20q99 0 170.5 -36.5t117.5 -97.5t68 -139.5t22 -162.5q0 -107 -39.5 -213t-117 -203.5t-192 -183.5t-265.5 -152z" />
    <glyph glyph-name="quotedblbase" unicode="&#x201e;" horiz-adv-x="1712" 
d="M872 -320q57 33 107.5 69.5t90.5 77t66.5 85t35.5 92.5q-45 15 -82.5 40.5t-64.5 60.5t-42 80t-15 99q0 73 25.5 130t70.5 95.5t106.5 58.5t133.5 20q98 0 169.5 -36.5t118 -97.5t68.5 -139.5t22 -162.5q0 -107 -40 -213t-118 -203.5t-192.5 -183.5t-263.5 -152zM20 -320
q57 33 107.5 69.5t90.5 77t66.5 85t35.5 92.5q-45 15 -82.5 40.5t-64.5 60.5t-42 80t-15 99q0 73 25.5 130t70 95.5t105 58.5t131.5 20q100 0 172 -36.5t118.5 -97.5t69 -139.5t22.5 -162.5q0 -107 -40 -213t-118 -203.5t-192.5 -183.5t-263.5 -152z" />
    <glyph glyph-name="paragraph" unicode="&#xb6;" horiz-adv-x="2680" 
d="M2472 -630q0 -63 -12.5 -106t-41.5 -80q-29 -36 -74 -58t-112 -22t-112 22t-74 59q-28 36 -41 79t-13 106v2918h-236v-2918q0 -63 -12.5 -106t-41.5 -80q-29 -36 -74 -58t-112 -22t-112 22t-74 59q-28 36 -41 79t-13 106v2918h-208q-53 0 -108 -7t-106.5 -24.5t-97 -46
t-79.5 -71.5t-53.5 -102t-19.5 -137q0 -98 22.5 -165.5t62.5 -111.5t94.5 -68t117.5 -35q52 -9 93.5 -12.5t76.5 -13.5q26 -7 50.5 -21t43 -37t29.5 -56.5t11 -79.5q0 -59 -27 -101t-69 -68t-92.5 -38t-96.5 -12q-56 0 -121.5 6t-135.5 21.5t-141 43t-137 70.5t-123 103.5
t-99 142.5t-66.5 187t-24.5 237q0 130 29 236.5t79.5 192t120 150t150 111.5t168.5 77t177 45q91 15 196.5 19.5t237.5 4.5h1242v-3358z" />
    <glyph glyph-name="acute" unicode="&#xb4;" horiz-adv-x="1116" 
d="M1032 2726l-680 -412q-24 -15 -53 -25.5t-59 -10.5q-45 0 -80.5 14.5t-60.5 39.5t-38 57.5t-13 68.5q0 39 23 78t61 70l632 512z" />
    <glyph glyph-name="eacute" unicode="&#xe9;" horiz-adv-x="2276" 
d="M1058 846q-36 0 -79 9.5t-80 33.5t-62 64.5t-25 102.5q0 61 25 101.5t62 64.5t80 34t79 10h533q0 126 -31.5 216.5t-87 148t-130.5 85t-162 27.5q-131 0 -228 -56t-162 -150.5t-97 -218t-32 -258.5q0 -188 50 -319t133.5 -213t191.5 -119t225 -37q71 0 133 7t117 18.5
t104 26.5t95 32q27 10 66 23.5t87 13.5q37 0 71 -10.5t59.5 -31.5t40.5 -53.5t15 -76.5q0 -52 -28 -102.5t-80 -88.5q-72 -53 -162 -90t-185.5 -61t-191.5 -35t-181 -11q-142 0 -277 25t-255 79t-221 140t-174 208.5t-113.5 284t-40.5 366.5q0 183 38.5 335.5t108.5 275
t167 215t213.5 154t248.5 92.5t273 31q227 0 403.5 -70t297 -212t183.5 -357t63 -504v-150h-1078zM1700 2726l-680 -412q-24 -15 -53 -25.5t-59 -10.5q-45 0 -80.5 14.5t-60.5 39.5t-38 57.5t-13 68.5q0 39 23 78t61 70l632 512z" />
    <glyph glyph-name="grave" unicode="`" horiz-adv-x="1116" 
d="M312 3118l632 -512q37 -29 60.5 -69t23.5 -79q0 -36 -13 -68.5t-38 -57.5t-60.5 -39.5t-80.5 -14.5q-30 0 -59 10.5t-53 25.5l-680 412z" />
    <glyph glyph-name="circumflex" unicode="&#x2c6;" horiz-adv-x="1556" 
d="M1340 2618q36 -30 60 -71t24 -77t-13 -68.5t-38 -57.5t-60.5 -39.5t-80.5 -14.5q-30 0 -59 10t-53 26l-368 236l-372 -236q-22 -14 -50.5 -25t-61.5 -11q-45 0 -80.5 14.5t-60.5 39.5t-38 57.5t-13 68.5t23 76.5t61 71.5l592 480z" />
    <glyph glyph-name="dotaccent" unicode="&#x2d9;" horiz-adv-x="1020" 
d="M492 2956q61 0 116 -20t95.5 -57t64.5 -88.5t24 -114.5t-24 -114t-64.5 -87t-95.5 -55.5t-116 -19.5q-62 0 -116.5 19.5t-95 55.5t-64.5 87t-24 114t24 114.5t64.5 88.5t95 57t116.5 20z" />
    <glyph glyph-name="dieresis" unicode="&#xa8;" horiz-adv-x="1796" 
d="M468 2956q61 0 115 -20t94.5 -57t63.5 -88.5t23 -114.5t-23 -114t-63.5 -87t-94.5 -55.5t-115 -19.5q-63 0 -118 19.5t-95.5 55.5t-63.5 87t-23 114t23 114.5t63.5 88.5t95.5 57t118 20zM1268 2956q61 0 115 -20t94.5 -57t63.5 -88.5t23 -114.5t-23 -114t-63.5 -87
t-94.5 -55.5t-115 -19.5q-63 0 -118 19.5t-95.5 55.5t-63.5 87t-23 114t23 114.5t63.5 88.5t95.5 57t118 20z" />
    <glyph glyph-name="tilde" unicode="&#x2dc;" horiz-adv-x="1720" 
d="M32 2444q6 22 15.5 49t21 54.5t24.5 54t26 47.5q38 62 84.5 112t104.5 85.5t128 54.5t156 19q99 0 175.5 -30t148.5 -78q25 -17 51.5 -37t56.5 -37.5t63.5 -29.5t72.5 -12q33 0 59 7.5t47.5 20.5t39.5 30.5t35 36.5q35 40 76.5 66.5t92.5 26.5q39 0 71.5 -14t56.5 -39
t37 -58.5t13 -72.5q0 -78 -40.5 -148t-108.5 -122.5t-158 -83t-189 -30.5q-62 0 -112 10t-92 27.5t-78 40t-70 46.5q-18 13 -43.5 30t-56.5 32.5t-65.5 26.5t-70.5 11q-41 0 -72 -9t-54 -23.5t-40.5 -33.5t-32.5 -38q-26 -32 -42 -66.5t-31 -61.5l-300 136v0z" />
    <glyph glyph-name="ring" unicode="&#x2da;" horiz-adv-x="1088" 
d="M540 3148q100 0 189 -33t155.5 -93t105 -144t38.5 -186q0 -104 -38.5 -188.5t-105 -145t-155.5 -93.5t-189 -33q-101 0 -189 33t-153.5 93.5t-103.5 145t-38 188.5q0 102 38 186t103.5 144t153.5 93t189 33zM540 2880q-38 0 -71 -11.5t-58.5 -34.5t-40 -58.5t-14.5 -83.5
q0 -50 13.5 -86t38 -59.5t58 -35t74.5 -11.5q34 0 67.5 10t59 32.5t41.5 58.5t16 87q0 48 -14.5 84t-40 60t-59 36t-70.5 12z" />
    <glyph glyph-name="egrave" unicode="&#xe8;" horiz-adv-x="2276" 
d="M1058 846q-36 0 -79 9.5t-80 33.5t-62 64.5t-25 102.5q0 61 25 101.5t62 64.5t80 34t79 10h533q0 126 -31.5 216.5t-87 148t-130.5 85t-162 27.5q-131 0 -228 -56t-162 -150.5t-97 -218t-32 -258.5q0 -188 50 -319t133.5 -213t191.5 -119t225 -37q71 0 133 7t117 18.5
t104 26.5t95 32q27 10 66 23.5t87 13.5q37 0 71 -10.5t59.5 -31.5t40.5 -53.5t15 -76.5q0 -52 -28 -102.5t-80 -88.5q-72 -53 -162 -90t-185.5 -61t-191.5 -35t-181 -11q-142 0 -277 25t-255 79t-221 140t-174 208.5t-113.5 284t-40.5 366.5q0 183 38.5 335.5t108.5 275
t167 215t213.5 154t248.5 92.5t273 31q227 0 403.5 -70t297 -212t183.5 -357t63 -504v-150h-1078zM876 3118l632 -512q37 -29 60.5 -69t23.5 -79q0 -36 -13 -68.5t-38 -57.5t-60.5 -39.5t-80.5 -14.5q-30 0 -59 10.5t-53 25.5l-680 412z" />
    <glyph glyph-name="ecircumflex" unicode="&#xea;" horiz-adv-x="2276" 
d="M1058 846q-36 0 -79 9.5t-80 33.5t-62 64.5t-25 102.5q0 61 25 101.5t62 64.5t80 34t79 10h533q0 126 -31.5 216.5t-87 148t-130.5 85t-162 27.5q-131 0 -228 -56t-162 -150.5t-97 -218t-32 -258.5q0 -188 50 -319t133.5 -213t191.5 -119t225 -37q71 0 133 7t117 18.5
t104 26.5t95 32q27 10 66 23.5t87 13.5q37 0 71 -10.5t59.5 -31.5t40.5 -53.5t15 -76.5q0 -52 -28 -102.5t-80 -88.5q-72 -53 -162 -90t-185.5 -61t-191.5 -35t-181 -11q-142 0 -277 25t-255 79t-221 140t-174 208.5t-113.5 284t-40.5 366.5q0 183 38.5 335.5t108.5 275
t167 215t213.5 154t248.5 92.5t273 31q227 0 403.5 -70t297 -212t183.5 -357t63 -504v-150h-1078zM1740 2618q36 -30 60 -71t24 -77t-13 -68.5t-38 -57.5t-60.5 -39.5t-80.5 -14.5q-30 0 -59 10t-53 26l-368 236l-372 -236q-22 -14 -50.5 -25t-61.5 -11q-45 0 -80.5 14.5
t-60.5 39.5t-38 57.5t-13 68.5t23 76.5t61 71.5l592 480z" />
    <glyph glyph-name="edieresis" unicode="&#xeb;" horiz-adv-x="2276" 
d="M1058 846q-36 0 -79 9.5t-80 33.5t-62 64.5t-25 102.5q0 61 25 101.5t62 64.5t80 34t79 10h533q0 126 -31.5 216.5t-87 148t-130.5 85t-162 27.5q-131 0 -228 -56t-162 -150.5t-97 -218t-32 -258.5q0 -188 50 -319t133.5 -213t191.5 -119t225 -37q71 0 133 7t117 18.5
t104 26.5t95 32q27 10 66 23.5t87 13.5q37 0 71 -10.5t59.5 -31.5t40.5 -53.5t15 -76.5q0 -52 -28 -102.5t-80 -88.5q-72 -53 -162 -90t-185.5 -61t-191.5 -35t-181 -11q-142 0 -277 25t-255 79t-221 140t-174 208.5t-113.5 284t-40.5 366.5q0 183 38.5 335.5t108.5 275
t167 215t213.5 154t248.5 92.5t273 31q227 0 403.5 -70t297 -212t183.5 -357t63 -504v-150h-1078zM744 2956q61 0 115 -20t94.5 -57t63.5 -88.5t23 -114.5t-23 -114t-63.5 -87t-94.5 -55.5t-115 -19.5q-63 0 -118 19.5t-95.5 55.5t-63.5 87t-23 114t23 114.5t63.5 88.5
t95.5 57t118 20zM1544 2956q61 0 115 -20t94.5 -57t63.5 -88.5t23 -114.5t-23 -114t-63.5 -87t-94.5 -55.5t-115 -19.5q-63 0 -118 19.5t-95.5 55.5t-63.5 87t-23 114t23 114.5t63.5 88.5t95.5 57t118 20z" />
    <glyph glyph-name="igrave" unicode="&#xec;" horiz-adv-x="1020" 
d="M780 2076v-1852q0 -55 -14.5 -96t-37.5 -71t-52 -49.5t-59 -31t-57.5 -16t-47.5 -4.5q-21 0 -49 4.5t-58 16t-58.5 31t-51.5 49.5t-37 71t-14 96v1852h536zM122 3118l632 -512q37 -29 60.5 -69t23.5 -79q0 -36 -13 -68.5t-38 -57.5t-60.5 -39.5t-80.5 -14.5
q-30 0 -59 10.5t-53 25.5l-680 412z" />
    <glyph glyph-name="iacute" unicode="&#xed;" horiz-adv-x="1020" 
d="M780 2076v-1852q0 -55 -14.5 -96t-37.5 -71t-52 -49.5t-59 -31t-57.5 -16t-47.5 -4.5q-21 0 -49 4.5t-58 16t-58.5 31t-51.5 49.5t-37 71t-14 96v1852h536zM1124 2726l-680 -412q-24 -15 -53 -25.5t-59 -10.5q-45 0 -80.5 14.5t-60.5 39.5t-38 57.5t-13 68.5q0 39 23 78
t61 70l632 512z" />
    <glyph glyph-name="icircumflex" unicode="&#xee;" horiz-adv-x="1020" 
d="M780 2076v-1852q0 -55 -14.5 -96t-37.5 -71t-52 -49.5t-59 -31t-57.5 -16t-47.5 -4.5q-21 0 -49 4.5t-58 16t-58.5 31t-51.5 49.5t-37 71t-14 96v1852h536zM1106 2618q36 -30 60 -71t24 -77t-13 -68.5t-38 -57.5t-60.5 -39.5t-80.5 -14.5q-30 0 -59 10t-53 26l-368 236
l-372 -236q-22 -14 -50.5 -25t-61.5 -11q-45 0 -80.5 14.5t-60.5 39.5t-38 57.5t-13 68.5t23 76.5t61 71.5l592 480z" />
    <glyph glyph-name="idieresis" unicode="&#xef;" horiz-adv-x="1020" 
d="M780 2076v-1852q0 -55 -14.5 -96t-37.5 -71t-52 -49.5t-59 -31t-57.5 -16t-47.5 -4.5q-21 0 -49 4.5t-58 16t-58.5 31t-51.5 49.5t-37 71t-14 96v1852h536zM114 2956q61 0 115 -20t94.5 -57t63.5 -88.5t23 -114.5t-23 -114t-63.5 -87t-94.5 -55.5t-115 -19.5
q-63 0 -118 19.5t-95.5 55.5t-63.5 87t-23 114t23 114.5t63.5 88.5t95.5 57t118 20zM914 2956q61 0 115 -20t94.5 -57t63.5 -88.5t23 -114.5t-23 -114t-63.5 -87t-94.5 -55.5t-115 -19.5q-63 0 -118 19.5t-95.5 55.5t-63.5 87t-23 114t23 114.5t63.5 88.5t95.5 57t118 20z
" />
    <glyph glyph-name="ntilde" unicode="&#xf1;" horiz-adv-x="2300" 
d="M708 2076v-224q36 40 92.5 88t135 90t181 70t231.5 28q162 0 293.5 -46t224.5 -142.5t143.5 -245.5t50.5 -354v-1116q0 -81 -30.5 -134.5t-73.5 -82.5q-36 -25 -78.5 -38t-85.5 -13q-48 0 -89.5 13.5t-76.5 37.5q-43 29 -72.5 82t-29.5 135v1080q0 103 -25 176
t-68.5 119.5t-102.5 67.5t-128 21q-82 0 -152.5 -27t-125.5 -68t-92.5 -90.5t-53.5 -94.5v-1184q0 -81 -30.5 -134.5t-73.5 -82.5q-36 -25 -78.5 -38t-85.5 -13q-48 0 -89.5 13.5t-76.5 37.5q-43 29 -72.5 82t-29.5 135v1852h468zM337 2444q6 22 15.5 49t21 54.5t24.5 54
t26 47.5q38 62 84.5 112t104.5 85.5t128 54.5t156 19q99 0 175.5 -30t148.5 -78q25 -17 51.5 -37t56.5 -37.5t63.5 -29.5t72.5 -12q33 0 59 7.5t47.5 20.5t39.5 30.5t35 36.5q35 40 76.5 66.5t92.5 26.5q39 0 71.5 -14t56.5 -39t37 -58.5t13 -72.5q0 -78 -40.5 -148
t-108.5 -122.5t-158 -83t-189 -30.5q-62 0 -112 10t-92 27.5t-78 40t-70 46.5q-18 13 -43.5 30t-56.5 32.5t-65.5 26.5t-70.5 11q-41 0 -72 -9t-54 -23.5t-40.5 -33.5t-32.5 -38q-26 -32 -42 -66.5t-31 -61.5l-300 136v0z" />
    <glyph glyph-name="ograve" unicode="&#xf2;" horiz-adv-x="2348" 
d="M1176 2128q142 0 273.5 -30.5t246.5 -91.5t209 -152.5t161.5 -212.5t104.5 -272.5t37 -332.5q0 -180 -37 -331t-104.5 -272t-161.5 -213t-209 -153t-246.5 -92t-273.5 -31t-274 31t-247 92t-210 153t-162.5 213t-105 272t-37.5 331q0 181 37.5 332.5t105 272.5
t162.5 212.5t210 152.5t247 91.5t274 30.5zM1176 1712q-102 0 -190.5 -38.5t-153.5 -120.5t-102.5 -209t-37.5 -304q0 -176 37.5 -302.5t102.5 -209t153.5 -121.5t190.5 -39q103 0 192.5 39t155 121.5t103 209t37.5 302.5q0 177 -37.5 304t-103 209t-155 120.5t-192.5 38.5z
M960 3118l632 -512q37 -29 60.5 -69t23.5 -79q0 -36 -13 -68.5t-38 -57.5t-60.5 -39.5t-80.5 -14.5q-30 0 -59 10.5t-53 25.5l-680 412z" />
    <glyph glyph-name="oacute" unicode="&#xf3;" horiz-adv-x="2348" 
d="M1176 2128q142 0 273.5 -30.5t246.5 -91.5t209 -152.5t161.5 -212.5t104.5 -272.5t37 -332.5q0 -180 -37 -331t-104.5 -272t-161.5 -213t-209 -153t-246.5 -92t-273.5 -31t-274 31t-247 92t-210 153t-162.5 213t-105 272t-37.5 331q0 181 37.5 332.5t105 272.5
t162.5 212.5t210 152.5t247 91.5t274 30.5zM1176 1712q-102 0 -190.5 -38.5t-153.5 -120.5t-102.5 -209t-37.5 -304q0 -176 37.5 -302.5t102.5 -209t153.5 -121.5t190.5 -39q103 0 192.5 39t155 121.5t103 209t37.5 302.5q0 177 -37.5 304t-103 209t-155 120.5t-192.5 38.5z
M1668 2726l-680 -412q-24 -15 -53 -25.5t-59 -10.5q-45 0 -80.5 14.5t-60.5 39.5t-38 57.5t-13 68.5q0 39 23 78t61 70l632 512z" />
    <glyph glyph-name="ocircumflex" unicode="&#xf4;" horiz-adv-x="2348" 
d="M1176 2128q142 0 273.5 -30.5t246.5 -91.5t209 -152.5t161.5 -212.5t104.5 -272.5t37 -332.5q0 -180 -37 -331t-104.5 -272t-161.5 -213t-209 -153t-246.5 -92t-273.5 -31t-274 31t-247 92t-210 153t-162.5 213t-105 272t-37.5 331q0 181 37.5 332.5t105 272.5
t162.5 212.5t210 152.5t247 91.5t274 30.5zM1176 1712q-102 0 -190.5 -38.5t-153.5 -120.5t-102.5 -209t-37.5 -304q0 -176 37.5 -302.5t102.5 -209t153.5 -121.5t190.5 -39q103 0 192.5 39t155 121.5t103 209t37.5 302.5q0 177 -37.5 304t-103 209t-155 120.5t-192.5 38.5z
M1762 2618q36 -30 60 -71t24 -77t-13 -68.5t-38 -57.5t-60.5 -39.5t-80.5 -14.5q-30 0 -59 10t-53 26l-368 236l-372 -236q-22 -14 -50.5 -25t-61.5 -11q-45 0 -80.5 14.5t-60.5 39.5t-38 57.5t-13 68.5t23 76.5t61 71.5l592 480z" />
    <glyph glyph-name="otilde" unicode="&#xf5;" horiz-adv-x="2348" 
d="M1176 2128q142 0 273.5 -30.5t246.5 -91.5t209 -152.5t161.5 -212.5t104.5 -272.5t37 -332.5q0 -180 -37 -331t-104.5 -272t-161.5 -213t-209 -153t-246.5 -92t-273.5 -31t-274 31t-247 92t-210 153t-162.5 213t-105 272t-37.5 331q0 181 37.5 332.5t105 272.5
t162.5 212.5t210 152.5t247 91.5t274 30.5zM1176 1712q-102 0 -190.5 -38.5t-153.5 -120.5t-102.5 -209t-37.5 -304q0 -176 37.5 -302.5t102.5 -209t153.5 -121.5t190.5 -39q103 0 192.5 39t155 121.5t103 209t37.5 302.5q0 177 -37.5 304t-103 209t-155 120.5t-192.5 38.5z
M354 2444q6 22 15.5 49t21 54.5t24.5 54t26 47.5q38 62 84.5 112t104.5 85.5t128 54.5t156 19q99 0 175.5 -30t148.5 -78q25 -17 51.5 -37t56.5 -37.5t63.5 -29.5t72.5 -12q33 0 59 7.5t47.5 20.5t39.5 30.5t35 36.5q35 40 76.5 66.5t92.5 26.5q39 0 71.5 -14t56.5 -39
t37 -58.5t13 -72.5q0 -78 -40.5 -148t-108.5 -122.5t-158 -83t-189 -30.5q-62 0 -112 10t-92 27.5t-78 40t-70 46.5q-18 13 -43.5 30t-56.5 32.5t-65.5 26.5t-70.5 11q-41 0 -72 -9t-54 -23.5t-40.5 -33.5t-32.5 -38q-26 -32 -42 -66.5t-31 -61.5l-300 136v0z" />
    <glyph glyph-name="odieresis" unicode="&#xf6;" horiz-adv-x="2348" 
d="M1176 2128q142 0 273.5 -30.5t246.5 -91.5t209 -152.5t161.5 -212.5t104.5 -272.5t37 -332.5q0 -180 -37 -331t-104.5 -272t-161.5 -213t-209 -153t-246.5 -92t-273.5 -31t-274 31t-247 92t-210 153t-162.5 213t-105 272t-37.5 331q0 181 37.5 332.5t105 272.5
t162.5 212.5t210 152.5t247 91.5t274 30.5zM1176 1712q-102 0 -190.5 -38.5t-153.5 -120.5t-102.5 -209t-37.5 -304q0 -176 37.5 -302.5t102.5 -209t153.5 -121.5t190.5 -39q103 0 192.5 39t155 121.5t103 209t37.5 302.5q0 177 -37.5 304t-103 209t-155 120.5t-192.5 38.5z
M778 2956q61 0 115 -20t94.5 -57t63.5 -88.5t23 -114.5t-23 -114t-63.5 -87t-94.5 -55.5t-115 -19.5q-63 0 -118 19.5t-95.5 55.5t-63.5 87t-23 114t23 114.5t63.5 88.5t95.5 57t118 20zM1578 2956q61 0 115 -20t94.5 -57t63.5 -88.5t23 -114.5t-23 -114t-63.5 -87
t-94.5 -55.5t-115 -19.5q-63 0 -118 19.5t-95.5 55.5t-63.5 87t-23 114t23 114.5t63.5 88.5t95.5 57t118 20z" />
    <glyph glyph-name="ugrave" unicode="&#xf9;" horiz-adv-x="2288" 
d="M770 2076v-1296q0 -104 25 -176.5t68.5 -119t102.5 -67.5t128 -21q82 0 152.5 27t125.5 68t92.5 90.5t53.5 94.5v1400h532v-1829q0 -57 -10.5 -108.5t-37 -91.5t-72.5 -63.5t-116 -23.5q-63 0 -106.5 24.5t-72 64.5t-43 90.5t-19.5 102.5q-39 -51 -93.5 -102.5t-130 -92
t-175 -66t-228.5 -25.5q-162 0 -293.5 46t-224.5 142.5t-143.5 245t-50.5 354.5v1332h536zM936 3118l632 -512q37 -29 60.5 -69t23.5 -79q0 -36 -13 -68.5t-38 -57.5t-60.5 -39.5t-80.5 -14.5q-30 0 -59 10.5t-53 25.5l-680 412z" />
    <glyph glyph-name="uacute" unicode="&#xfa;" horiz-adv-x="2288" 
d="M770 2076v-1296q0 -104 25 -176.5t68.5 -119t102.5 -67.5t128 -21q82 0 152.5 27t125.5 68t92.5 90.5t53.5 94.5v1400h532v-1829q0 -57 -10.5 -108.5t-37 -91.5t-72.5 -63.5t-116 -23.5q-63 0 -106.5 24.5t-72 64.5t-43 90.5t-19.5 102.5q-39 -51 -93.5 -102.5t-130 -92
t-175 -66t-228.5 -25.5q-162 0 -293.5 46t-224.5 142.5t-143.5 245t-50.5 354.5v1332h536zM1644 2726l-680 -412q-24 -15 -53 -25.5t-59 -10.5q-45 0 -80.5 14.5t-60.5 39.5t-38 57.5t-13 68.5q0 39 23 78t61 70l632 512z" />
    <glyph glyph-name="ucircumflex" unicode="&#xfb;" horiz-adv-x="2288" 
d="M770 2076v-1296q0 -104 25 -176.5t68.5 -119t102.5 -67.5t128 -21q82 0 152.5 27t125.5 68t92.5 90.5t53.5 94.5v1400h532v-1829q0 -57 -10.5 -108.5t-37 -91.5t-72.5 -63.5t-116 -23.5q-63 0 -106.5 24.5t-72 64.5t-43 90.5t-19.5 102.5q-39 -51 -93.5 -102.5t-130 -92
t-175 -66t-228.5 -25.5q-162 0 -293.5 46t-224.5 142.5t-143.5 245t-50.5 354.5v1332h536zM1733 2618q36 -30 60 -71t24 -77t-13 -68.5t-38 -57.5t-60.5 -39.5t-80.5 -14.5q-30 0 -59 10t-53 26l-368 236l-372 -236q-22 -14 -50.5 -25t-61.5 -11q-45 0 -80.5 14.5
t-60.5 39.5t-38 57.5t-13 68.5t23 76.5t61 71.5l592 480z" />
    <glyph glyph-name="udieresis" unicode="&#xfc;" horiz-adv-x="2288" 
d="M770 2076v-1296q0 -104 25 -176.5t68.5 -119t102.5 -67.5t128 -21q82 0 152.5 27t125.5 68t92.5 90.5t53.5 94.5v1400h532v-1829q0 -57 -10.5 -108.5t-37 -91.5t-72.5 -63.5t-116 -23.5q-63 0 -106.5 24.5t-72 64.5t-43 90.5t-19.5 102.5q-39 -51 -93.5 -102.5t-130 -92
t-175 -66t-228.5 -25.5q-162 0 -293.5 46t-224.5 142.5t-143.5 245t-50.5 354.5v1332h536zM754 2956q61 0 115 -20t94.5 -57t63.5 -88.5t23 -114.5t-23 -114t-63.5 -87t-94.5 -55.5t-115 -19.5q-63 0 -118 19.5t-95.5 55.5t-63.5 87t-23 114t23 114.5t63.5 88.5t95.5 57
t118 20zM1554 2956q61 0 115 -20t94.5 -57t63.5 -88.5t23 -114.5t-23 -114t-63.5 -87t-94.5 -55.5t-115 -19.5q-63 0 -118 19.5t-95.5 55.5t-63.5 87t-23 114t23 114.5t63.5 88.5t95.5 57t118 20z" />
    <glyph glyph-name="yacute" unicode="&#xfd;" horiz-adv-x="2020" 
d="M582 2076l340 -988q44 -127 78.5 -258t69.5 -258h13l139 516q36 133 63.5 232t50.5 177.5t41.5 144t37.5 131t38.5 138t43.5 165.5h574l-720 -2144q-68 -201 -170.5 -355t-226 -258t-259.5 -157.5t-269 -53.5q-53 0 -99 14t-80 41.5t-53.5 69t-19.5 97.5q0 45 13.5 80
t37 61.5t55.5 46t70 34.5q79 31 157 76t139.5 103.5t99.5 129.5t38 155q0 25 -7 57.5t-17.5 66.5t-22.5 65.5t-21 54.5l-736 1816h602zM1568 2726l-680 -412q-24 -15 -53 -25.5t-59 -10.5q-45 0 -80.5 14.5t-60.5 39.5t-38 57.5t-13 68.5q0 39 23 78t61 70l632 512z" />
    <glyph glyph-name="agrave" unicode="&#xe0;" horiz-adv-x="2376" 
d="M2136 2076v-1852q0 -55 -14 -96.5t-37.5 -71t-52.5 -49t-58.5 -30.5t-57.5 -15.5t-48 -4.5q-21 0 -49 4.5t-58 15.5t-59 30.5t-51.5 49t-36.5 71t-14 96.5v1080q0 103 -29 178.5t-81.5 125t-126 73t-163.5 23.5q-102 0 -193.5 -36t-160.5 -116.5t-109.5 -210.5
t-40.5 -317q0 -164 34 -285.5t95 -202t144.5 -120.5t182.5 -40q54 0 98 8t86 8q93 0 142.5 -52t49.5 -136q0 -39 -12 -69t-32.5 -54t-47 -42t-54.5 -32q-65 -32 -140.5 -45t-153.5 -13q-212 0 -386.5 64.5t-299 196.5t-193.5 332t-69 470q0 273 77.5 481.5t213 349.5
t318.5 213t395 72q166 0 299 -42.5t245 -133.5l44 124h404zM962 3118l632 -512q37 -29 60.5 -69t23.5 -79q0 -36 -13 -68.5t-38 -57.5t-60.5 -39.5t-80.5 -14.5q-30 0 -59 10.5t-53 25.5l-680 412z" />
    <glyph glyph-name="aacute" unicode="&#xe1;" horiz-adv-x="2376" 
d="M2136 2076v-1852q0 -55 -14 -96.5t-37.5 -71t-52.5 -49t-58.5 -30.5t-57.5 -15.5t-48 -4.5q-21 0 -49 4.5t-58 15.5t-59 30.5t-51.5 49t-36.5 71t-14 96.5v1080q0 103 -29 178.5t-81.5 125t-126 73t-163.5 23.5q-102 0 -193.5 -36t-160.5 -116.5t-109.5 -210.5
t-40.5 -317q0 -164 34 -285.5t95 -202t144.5 -120.5t182.5 -40q54 0 98 8t86 8q93 0 142.5 -52t49.5 -136q0 -39 -12 -69t-32.5 -54t-47 -42t-54.5 -32q-65 -32 -140.5 -45t-153.5 -13q-212 0 -386.5 64.5t-299 196.5t-193.5 332t-69 470q0 273 77.5 481.5t213 349.5
t318.5 213t395 72q166 0 299 -42.5t245 -133.5l44 124h404zM1686 2726l-680 -412q-24 -15 -53 -25.5t-59 -10.5q-45 0 -80.5 14.5t-60.5 39.5t-38 57.5t-13 68.5q0 39 23 78t61 70l632 512z" />
    <glyph glyph-name="acircumflex" unicode="&#xe2;" horiz-adv-x="2376" 
d="M2136 2076v-1852q0 -55 -14 -96.5t-37.5 -71t-52.5 -49t-58.5 -30.5t-57.5 -15.5t-48 -4.5q-21 0 -49 4.5t-58 15.5t-59 30.5t-51.5 49t-36.5 71t-14 96.5v1080q0 103 -29 178.5t-81.5 125t-126 73t-163.5 23.5q-102 0 -193.5 -36t-160.5 -116.5t-109.5 -210.5
t-40.5 -317q0 -164 34 -285.5t95 -202t144.5 -120.5t182.5 -40q54 0 98 8t86 8q93 0 142.5 -52t49.5 -136q0 -39 -12 -69t-32.5 -54t-47 -42t-54.5 -32q-65 -32 -140.5 -45t-153.5 -13q-212 0 -386.5 64.5t-299 196.5t-193.5 332t-69 470q0 273 77.5 481.5t213 349.5
t318.5 213t395 72q166 0 299 -42.5t245 -133.5l44 124h404zM1762 2618q36 -30 60 -71t24 -77t-13 -68.5t-38 -57.5t-60.5 -39.5t-80.5 -14.5q-30 0 -59 10t-53 26l-368 236l-372 -236q-22 -14 -50.5 -25t-61.5 -11q-45 0 -80.5 14.5t-60.5 39.5t-38 57.5t-13 68.5t23 76.5
t61 71.5l592 480z" />
    <glyph glyph-name="atilde" unicode="&#xe3;" horiz-adv-x="2376" 
d="M2136 2076v-1852q0 -55 -14 -96.5t-37.5 -71t-52.5 -49t-58.5 -30.5t-57.5 -15.5t-48 -4.5q-21 0 -49 4.5t-58 15.5t-59 30.5t-51.5 49t-36.5 71t-14 96.5v1080q0 103 -29 178.5t-81.5 125t-126 73t-163.5 23.5q-102 0 -193.5 -36t-160.5 -116.5t-109.5 -210.5
t-40.5 -317q0 -164 34 -285.5t95 -202t144.5 -120.5t182.5 -40q54 0 98 8t86 8q93 0 142.5 -52t49.5 -136q0 -39 -12 -69t-32.5 -54t-47 -42t-54.5 -32q-65 -32 -140.5 -45t-153.5 -13q-212 0 -386.5 64.5t-299 196.5t-193.5 332t-69 470q0 273 77.5 481.5t213 349.5
t318.5 213t395 72q166 0 299 -42.5t245 -133.5l44 124h404zM366 2444q6 22 15.5 49t21 54.5t24.5 54t26 47.5q38 62 84.5 112t104.5 85.5t128 54.5t156 19q99 0 175.5 -30t148.5 -78q25 -17 51.5 -37t56.5 -37.5t63.5 -29.5t72.5 -12q33 0 59 7.5t47.5 20.5t39.5 30.5
t35 36.5q35 40 76.5 66.5t92.5 26.5q39 0 71.5 -14t56.5 -39t37 -58.5t13 -72.5q0 -78 -40.5 -148t-108.5 -122.5t-158 -83t-189 -30.5q-62 0 -112 10t-92 27.5t-78 40t-70 46.5q-18 13 -43.5 30t-56.5 32.5t-65.5 26.5t-70.5 11q-41 0 -72 -9t-54 -23.5t-40.5 -33.5
t-32.5 -38q-26 -32 -42 -66.5t-31 -61.5l-300 136v0z" />
    <glyph glyph-name="adieresis" unicode="&#xe4;" horiz-adv-x="2376" 
d="M2136 2076v-1852q0 -55 -14 -96.5t-37.5 -71t-52.5 -49t-58.5 -30.5t-57.5 -15.5t-48 -4.5q-21 0 -49 4.5t-58 15.5t-59 30.5t-51.5 49t-36.5 71t-14 96.5v1080q0 103 -29 178.5t-81.5 125t-126 73t-163.5 23.5q-102 0 -193.5 -36t-160.5 -116.5t-109.5 -210.5
t-40.5 -317q0 -164 34 -285.5t95 -202t144.5 -120.5t182.5 -40q54 0 98 8t86 8q93 0 142.5 -52t49.5 -136q0 -39 -12 -69t-32.5 -54t-47 -42t-54.5 -32q-65 -32 -140.5 -45t-153.5 -13q-212 0 -386.5 64.5t-299 196.5t-193.5 332t-69 470q0 273 77.5 481.5t213 349.5
t318.5 213t395 72q166 0 299 -42.5t245 -133.5l44 124h404zM790 2956q61 0 115 -20t94.5 -57t63.5 -88.5t23 -114.5t-23 -114t-63.5 -87t-94.5 -55.5t-115 -19.5q-63 0 -118 19.5t-95.5 55.5t-63.5 87t-23 114t23 114.5t63.5 88.5t95.5 57t118 20zM1590 2956q61 0 115 -20
t94.5 -57t63.5 -88.5t23 -114.5t-23 -114t-63.5 -87t-94.5 -55.5t-115 -19.5q-63 0 -118 19.5t-95.5 55.5t-63.5 87t-23 114t23 114.5t63.5 88.5t95.5 57t118 20z" />
    <glyph glyph-name="aring" unicode="&#xe5;" horiz-adv-x="2376" 
d="M2136 2076v-1852q0 -55 -14 -96.5t-37.5 -71t-52.5 -49t-58.5 -30.5t-57.5 -15.5t-48 -4.5q-21 0 -49 4.5t-58 15.5t-59 30.5t-51.5 49t-36.5 71t-14 96.5v1080q0 103 -29 178.5t-81.5 125t-126 73t-163.5 23.5q-102 0 -193.5 -36t-160.5 -116.5t-109.5 -210.5
t-40.5 -317q0 -164 34 -285.5t95 -202t144.5 -120.5t182.5 -40q54 0 98 8t86 8q93 0 142.5 -52t49.5 -136q0 -39 -12 -69t-32.5 -54t-47 -42t-54.5 -32q-65 -32 -140.5 -45t-153.5 -13q-212 0 -386.5 64.5t-299 196.5t-193.5 332t-69 470q0 273 77.5 481.5t213 349.5
t318.5 213t395 72q166 0 299 -42.5t245 -133.5l44 124h404zM1146 3188q100 0 189 -33t155.5 -93t105 -144t38.5 -186q0 -104 -38.5 -188.5t-105 -145t-155.5 -93.5t-189 -33q-101 0 -189 33t-153.5 93.5t-103.5 145t-38 188.5q0 102 38 186t103.5 144t153.5 93t189 33z
M1146 2920q-38 0 -71 -11.5t-58.5 -34.5t-40 -58.5t-14.5 -83.5q0 -50 13.5 -86t38 -59.5t58 -35t74.5 -11.5q34 0 67.5 10t59 32.5t41.5 58.5t16 87q0 48 -14.5 84t-40 60t-59 36t-70.5 12z" />
    <glyph glyph-name="ydieresis" unicode="&#xff;" horiz-adv-x="2020" 
d="M582 2076l340 -988q44 -127 78.5 -258t69.5 -258h13l139 516q36 133 63.5 232t50.5 177.5t41.5 144t37.5 131t38.5 138t43.5 165.5h574l-720 -2144q-68 -201 -170.5 -355t-226 -258t-259.5 -157.5t-269 -53.5q-53 0 -99 14t-80 41.5t-53.5 69t-19.5 97.5q0 45 13.5 80
t37 61.5t55.5 46t70 34.5q79 31 157 76t139.5 103.5t99.5 129.5t38 155q0 25 -7 57.5t-17.5 66.5t-22.5 65.5t-21 54.5l-736 1816h602zM648 2956q61 0 115 -20t94.5 -57t63.5 -88.5t23 -114.5t-23 -114t-63.5 -87t-94.5 -55.5t-115 -19.5q-63 0 -118 19.5t-95.5 55.5
t-63.5 87t-23 114t23 114.5t63.5 88.5t95.5 57t118 20zM1448 2956q61 0 115 -20t94.5 -57t63.5 -88.5t23 -114.5t-23 -114t-63.5 -87t-94.5 -55.5t-115 -19.5q-63 0 -118 19.5t-95.5 55.5t-63.5 87t-23 114t23 114.5t63.5 88.5t95.5 57t118 20z" />
    <glyph glyph-name="Igrave" unicode="&#xcc;" horiz-adv-x="1116" 
d="M822 2728v-2452q0 -76 -16.5 -129t-50.5 -95t-86.5 -67t-124.5 -25t-124.5 25t-86.5 67t-50.5 95t-16.5 129v2452h556zM192 3770l632 -512q37 -29 60.5 -69t23.5 -79q0 -36 -13 -68.5t-38 -57.5t-60.5 -39.5t-80.5 -14.5q-30 0 -59 10.5t-53 25.5l-680 412z" />
    <glyph glyph-name="Iacute" unicode="&#xcd;" horiz-adv-x="1116" 
d="M822 2728v-2452q0 -76 -16.5 -129t-50.5 -95t-86.5 -67t-124.5 -25t-124.5 25t-86.5 67t-50.5 95t-16.5 129v2452h556zM1194 3378l-680 -412q-24 -15 -53 -25.5t-59 -10.5q-45 0 -80.5 14.5t-60.5 39.5t-38 57.5t-13 68.5q0 39 23 78t61 70l632 512z" />
    <glyph glyph-name="Icircumflex" unicode="&#xce;" horiz-adv-x="1116" 
d="M822 2728v-2452q0 -76 -16.5 -129t-50.5 -95t-86.5 -67t-124.5 -25t-124.5 25t-86.5 67t-50.5 95t-16.5 129v2452h556zM1132 3270q36 -30 60 -71t24 -77t-13 -68.5t-38 -57.5t-60.5 -39.5t-80.5 -14.5q-30 0 -59 10t-53 26l-368 236l-372 -236q-22 -14 -50.5 -25
t-61.5 -11q-45 0 -80.5 14.5t-60.5 39.5t-38 57.5t-13 68.5t23 76.5t61 71.5l592 480z" />
    <glyph glyph-name="Idieresis" unicode="&#xcf;" horiz-adv-x="1116" 
d="M822 2728v-2452q0 -76 -16.5 -129t-50.5 -95t-86.5 -67t-124.5 -25t-124.5 25t-86.5 67t-50.5 95t-16.5 129v2452h556zM130 3608q61 0 115 -20t94.5 -57t63.5 -88.5t23 -114.5t-23 -114t-63.5 -87t-94.5 -55.5t-115 -19.5q-63 0 -118 19.5t-95.5 55.5t-63.5 87t-23 114
t23 114.5t63.5 88.5t95.5 57t118 20zM930 3608q61 0 115 -20t94.5 -57t63.5 -88.5t23 -114.5t-23 -114t-63.5 -87t-94.5 -55.5t-115 -19.5q-63 0 -118 19.5t-95.5 55.5t-63.5 87t-23 114t23 114.5t63.5 88.5t95.5 57t118 20z" />
    <glyph glyph-name="Ntilde" unicode="&#xd1;" horiz-adv-x="2768" 
d="M956 2728l544 -1036q31 -60 70.5 -136.5t83.5 -164t91 -184t94 -195.5t92 -199t85 -195h16q-16 147 -28.5 288.5t-21.5 286.5t-13.5 298.5t-4.5 324.5v912h524v-2386q0 -118 -33 -187q-24 -50 -61.5 -86.5t-84 -60.5t-100 -36t-109.5 -12q-114 0 -212.5 58.5
t-171.5 192.5l-452 829q-58 106 -118 220.5t-123.5 245.5t-131 283t-139.5 333h-19q17 -155 30.5 -312t22.5 -309.5t13.5 -298t4.5 -278.5v-671q0 -72 -15.5 -121.5t-48.5 -89.5q-32 -39 -80.5 -62.5t-117.5 -23.5t-118 23.5t-81 62.5q-33 40 -48 89.5t-15 121.5v2475h676z
M562 3096q6 22 15.5 49t21 54.5t24.5 54t26 47.5q38 62 84.5 112t104.5 85.5t128 54.5t156 19q99 0 175.5 -30t148.5 -78q25 -17 51.5 -37t56.5 -37.5t63.5 -29.5t72.5 -12q33 0 59 7.5t47.5 20.5t39.5 30.5t35 36.5q35 40 76.5 66.5t92.5 26.5q39 0 71.5 -14t56.5 -39
t37 -58.5t13 -72.5q0 -78 -40.5 -148t-108.5 -122.5t-158 -83t-189 -30.5q-62 0 -112 10t-92 27.5t-78 40t-70 46.5q-18 13 -43.5 30t-56.5 32.5t-65.5 26.5t-70.5 11q-41 0 -72 -9t-54 -23.5t-40.5 -33.5t-32.5 -38q-26 -32 -42 -66.5t-31 -61.5l-300 136v0z" />
    <glyph glyph-name="Ograve" unicode="&#xd2;" horiz-adv-x="2748" 
d="M1384 2792q289 0 510.5 -96.5t371 -280t226 -449t76.5 -602.5q0 -344 -76.5 -610.5t-226 -449t-371 -277.5t-510.5 -95q-288 0 -512 99.5t-378 285t-234 450.5t-80 597q0 330 80 594.5t234 449.5t378 284.5t512 99.5zM1368 2344q-147 0 -260 -63.5t-189.5 -188
t-115.5 -307.5t-39 -421q0 -231 40.5 -413t120 -308t197 -192.5t270.5 -66.5q150 0 260.5 66.5t183.5 192.5t108.5 308t35.5 413t-39.5 413t-116.5 308t-191.5 192.5t-264.5 66.5zM1144 3770l632 -512q37 -29 60.5 -69t23.5 -79q0 -36 -13 -68.5t-38 -57.5t-60.5 -39.5
t-80.5 -14.5q-30 0 -59 10.5t-53 25.5l-680 412z" />
    <glyph glyph-name="Oacute" unicode="&#xd3;" horiz-adv-x="2748" 
d="M1384 2792q289 0 510.5 -96.5t371 -280t226 -449t76.5 -602.5q0 -344 -76.5 -610.5t-226 -449t-371 -277.5t-510.5 -95q-288 0 -512 99.5t-378 285t-234 450.5t-80 597q0 330 80 594.5t234 449.5t378 284.5t512 99.5zM1368 2344q-147 0 -260 -63.5t-189.5 -188
t-115.5 -307.5t-39 -421q0 -231 40.5 -413t120 -308t197 -192.5t270.5 -66.5q150 0 260.5 66.5t183.5 192.5t108.5 308t35.5 413t-39.5 413t-116.5 308t-191.5 192.5t-264.5 66.5zM1868 3378l-680 -412q-24 -15 -53 -25.5t-59 -10.5q-45 0 -80.5 14.5t-60.5 39.5t-38 57.5
t-13 68.5q0 39 23 78t61 70l632 512z" />
    <glyph glyph-name="Ocircumflex" unicode="&#xd4;" horiz-adv-x="2748" 
d="M1384 2792q289 0 510.5 -96.5t371 -280t226 -449t76.5 -602.5q0 -344 -76.5 -610.5t-226 -449t-371 -277.5t-510.5 -95q-288 0 -512 99.5t-378 285t-234 450.5t-80 597q0 330 80 594.5t234 449.5t378 284.5t512 99.5zM1368 2344q-147 0 -260 -63.5t-189.5 -188
t-115.5 -307.5t-39 -421q0 -231 40.5 -413t120 -308t197 -192.5t270.5 -66.5q150 0 260.5 66.5t183.5 192.5t108.5 308t35.5 413t-39.5 413t-116.5 308t-191.5 192.5t-264.5 66.5zM1964 3270q36 -30 60 -71t24 -77t-13 -68.5t-38 -57.5t-60.5 -39.5t-80.5 -14.5
q-30 0 -59 10t-53 26l-368 236l-372 -236q-22 -14 -50.5 -25t-61.5 -11q-45 0 -80.5 14.5t-60.5 39.5t-38 57.5t-13 68.5t23 76.5t61 71.5l592 480z" />
    <glyph glyph-name="Otilde" unicode="&#xd5;" horiz-adv-x="2748" 
d="M1384 2792q289 0 510.5 -96.5t371 -280t226 -449t76.5 -602.5q0 -344 -76.5 -610.5t-226 -449t-371 -277.5t-510.5 -95q-288 0 -512 99.5t-378 285t-234 450.5t-80 597q0 330 80 594.5t234 449.5t378 284.5t512 99.5zM1368 2344q-147 0 -260 -63.5t-189.5 -188
t-115.5 -307.5t-39 -421q0 -231 40.5 -413t120 -308t197 -192.5t270.5 -66.5q150 0 260.5 66.5t183.5 192.5t108.5 308t35.5 413t-39.5 413t-116.5 308t-191.5 192.5t-264.5 66.5zM564 3096q6 22 15.5 49t21 54.5t24.5 54t26 47.5q38 62 84.5 112t104.5 85.5t128 54.5
t156 19q99 0 175.5 -30t148.5 -78q25 -17 51.5 -37t56.5 -37.5t63.5 -29.5t72.5 -12q33 0 59 7.5t47.5 20.5t39.5 30.5t35 36.5q35 40 76.5 66.5t92.5 26.5q39 0 71.5 -14t56.5 -39t37 -58.5t13 -72.5q0 -78 -40.5 -148t-108.5 -122.5t-158 -83t-189 -30.5q-62 0 -112 10
t-92 27.5t-78 40t-70 46.5q-18 13 -43.5 30t-56.5 32.5t-65.5 26.5t-70.5 11q-41 0 -72 -9t-54 -23.5t-40.5 -33.5t-32.5 -38q-26 -32 -42 -66.5t-31 -61.5l-300 136v0z" />
    <glyph glyph-name="Odieresis" unicode="&#xd6;" horiz-adv-x="2748" 
d="M1384 2792q289 0 510.5 -96.5t371 -280t226 -449t76.5 -602.5q0 -344 -76.5 -610.5t-226 -449t-371 -277.5t-510.5 -95q-288 0 -512 99.5t-378 285t-234 450.5t-80 597q0 330 80 594.5t234 449.5t378 284.5t512 99.5zM1368 2344q-147 0 -260 -63.5t-189.5 -188
t-115.5 -307.5t-39 -421q0 -231 40.5 -413t120 -308t197 -192.5t270.5 -66.5q150 0 260.5 66.5t183.5 192.5t108.5 308t35.5 413t-39.5 413t-116.5 308t-191.5 192.5t-264.5 66.5zM972 3608q61 0 115 -20t94.5 -57t63.5 -88.5t23 -114.5t-23 -114t-63.5 -87t-94.5 -55.5
t-115 -19.5q-63 0 -118 19.5t-95.5 55.5t-63.5 87t-23 114t23 114.5t63.5 88.5t95.5 57t118 20zM1772 3608q61 0 115 -20t94.5 -57t63.5 -88.5t23 -114.5t-23 -114t-63.5 -87t-94.5 -55.5t-115 -19.5q-63 0 -118 19.5t-95.5 55.5t-63.5 87t-23 114t23 114.5t63.5 88.5
t95.5 57t118 20z" />
    <glyph glyph-name="Ugrave" unicode="&#xd9;" horiz-adv-x="2640" 
d="M832 2728v-1612q0 -125 5.5 -221.5t21.5 -170.5t43 -128.5t71 -95.5q42 -40 90 -64.5t97.5 -37.5t98.5 -17.5t93 -4.5q40 0 87.5 8.5t95.5 26t94 45t84 65.5q40 40 63.5 93t36 126.5t16 170.5t3.5 225v1365q0 63 20.5 111.5t57.5 81.5t87 49.5t109 16.5q62 0 112.5 -18
t86.5 -51.5t55.5 -81.5t19.5 -108v-1353q0 -45 -0.5 -93t-1.5 -77q-3 -128 -23 -248t-66 -232q-66 -161 -168.5 -268t-227.5 -171.5t-266 -91.5t-283 -27q-111 0 -227.5 16.5t-228 55t-213 100.5t-182.5 153q-71 79 -115.5 162.5t-70 173.5t-35.5 187.5t-11 203.5
q-1 39 -1 77v75v1584h572zM1114 3770l632 -512q37 -29 60.5 -69t23.5 -79q0 -36 -13 -68.5t-38 -57.5t-60.5 -39.5t-80.5 -14.5q-30 0 -59 10.5t-53 25.5l-680 412z" />
    <glyph glyph-name="Uacute" unicode="&#xda;" horiz-adv-x="2640" 
d="M832 2728v-1612q0 -125 5.5 -221.5t21.5 -170.5t43 -128.5t71 -95.5q42 -40 90 -64.5t97.5 -37.5t98.5 -17.5t93 -4.5q40 0 87.5 8.5t95.5 26t94 45t84 65.5q40 40 63.5 93t36 126.5t16 170.5t3.5 225v1365q0 63 20.5 111.5t57.5 81.5t87 49.5t109 16.5q62 0 112.5 -18
t86.5 -51.5t55.5 -81.5t19.5 -108v-1353q0 -45 -0.5 -93t-1.5 -77q-3 -128 -23 -248t-66 -232q-66 -161 -168.5 -268t-227.5 -171.5t-266 -91.5t-283 -27q-111 0 -227.5 16.5t-228 55t-213 100.5t-182.5 153q-71 79 -115.5 162.5t-70 173.5t-35.5 187.5t-11 203.5
q-1 39 -1 77v75v1584h572zM1840 3378l-680 -412q-24 -15 -53 -25.5t-59 -10.5q-45 0 -80.5 14.5t-60.5 39.5t-38 57.5t-13 68.5q0 39 23 78t61 70l632 512z" />
    <glyph glyph-name="Ucircumflex" unicode="&#xdb;" horiz-adv-x="2640" 
d="M832 2728v-1612q0 -125 5.5 -221.5t21.5 -170.5t43 -128.5t71 -95.5q42 -40 90 -64.5t97.5 -37.5t98.5 -17.5t93 -4.5q40 0 87.5 8.5t95.5 26t94 45t84 65.5q40 40 63.5 93t36 126.5t16 170.5t3.5 225v1365q0 63 20.5 111.5t57.5 81.5t87 49.5t109 16.5q62 0 112.5 -18
t86.5 -51.5t55.5 -81.5t19.5 -108v-1353q0 -45 -0.5 -93t-1.5 -77q-3 -128 -23 -248t-66 -232q-66 -161 -168.5 -268t-227.5 -171.5t-266 -91.5t-283 -27q-111 0 -227.5 16.5t-228 55t-213 100.5t-182.5 153q-71 79 -115.5 162.5t-70 173.5t-35.5 187.5t-11 203.5
q-1 39 -1 77v75v1584h572zM1916 3270q36 -30 60 -71t24 -77t-13 -68.5t-38 -57.5t-60.5 -39.5t-80.5 -14.5q-30 0 -59 10t-53 26l-368 236l-372 -236q-22 -14 -50.5 -25t-61.5 -11q-45 0 -80.5 14.5t-60.5 39.5t-38 57.5t-13 68.5t23 76.5t61 71.5l592 480z" />
    <glyph glyph-name="Udieresis" unicode="&#xdc;" horiz-adv-x="2640" 
d="M832 2728v-1612q0 -125 5.5 -221.5t21.5 -170.5t43 -128.5t71 -95.5q42 -40 90 -64.5t97.5 -37.5t98.5 -17.5t93 -4.5q40 0 87.5 8.5t95.5 26t94 45t84 65.5q40 40 63.5 93t36 126.5t16 170.5t3.5 225v1365q0 63 20.5 111.5t57.5 81.5t87 49.5t109 16.5q62 0 112.5 -18
t86.5 -51.5t55.5 -81.5t19.5 -108v-1353q0 -45 -0.5 -93t-1.5 -77q-3 -128 -23 -248t-66 -232q-66 -161 -168.5 -268t-227.5 -171.5t-266 -91.5t-283 -27q-111 0 -227.5 16.5t-228 55t-213 100.5t-182.5 153q-71 79 -115.5 162.5t-70 173.5t-35.5 187.5t-11 203.5
q-1 39 -1 77v75v1584h572zM924 3608q61 0 115 -20t94.5 -57t63.5 -88.5t23 -114.5t-23 -114t-63.5 -87t-94.5 -55.5t-115 -19.5q-63 0 -118 19.5t-95.5 55.5t-63.5 87t-23 114t23 114.5t63.5 88.5t95.5 57t118 20zM1724 3608q61 0 115 -20t94.5 -57t63.5 -88.5t23 -114.5
t-23 -114t-63.5 -87t-94.5 -55.5t-115 -19.5q-63 0 -118 19.5t-95.5 55.5t-63.5 87t-23 114t23 114.5t63.5 88.5t95.5 57t118 20z" />
    <glyph glyph-name="Yacute" unicode="&#xdd;" horiz-adv-x="2112" 
d="M456 2728l316 -580q33 -62 71.5 -137.5t75.5 -154.5t69 -155t52 -137h20q19 60 49.5 135.5t66 155t72 155.5t68.5 138l296 580h620l-908 -1612v-860q0 -9 -0.5 -34.5t-2.5 -49.5q-5 -47 -28.5 -85.5t-60.5 -67t-84.5 -44t-99.5 -15.5q-57 0 -105.5 15.5t-85.5 44t-60 67
t-29 85.5q-3 24 -3.5 49.5t-0.5 34.5v868l-952 1604h644zM1550 3378l-680 -412q-24 -15 -53 -25.5t-59 -10.5q-45 0 -80.5 14.5t-60.5 39.5t-38 57.5t-13 68.5q0 39 23 78t61 70l632 512z" />
    <glyph glyph-name="registered" unicode="&#xae;" horiz-adv-x="1892" 
d="M606 2429h294q43 0 90 -2.5t92 -11t85.5 -26t70.5 -47t48 -73.5t18 -107q0 -59 -20 -102.5t-51 -74t-69 -49.5t-74 -29l178 -199q17 -19 28.5 -39t11.5 -45q0 -28 -10.5 -47t-26 -30.5t-35 -16.5t-37.5 -5q-34 0 -58.5 16t-44.5 40l-220 275q-20 26 -27 48.5t-7 42.5
q0 25 9.5 42.5t24.5 29.5t35 19.5t41 10.5q19 3 41.5 9t42 17.5t32 31t12.5 51.5q0 30 -13 48.5t-34.5 29t-49 14t-55.5 3.5h-110v-620q0 -31 -9.5 -52t-24.5 -33.5t-34 -18t-38 -5.5q-20 0 -39 5.5t-34 18t-24 33.5t-9 52v796zM944 2775q163 0 307.5 -54.5t252.5 -157
t170.5 -250.5t62.5 -335q0 -189 -62.5 -337.5t-170.5 -251.5t-252.5 -157.5t-307.5 -54.5q-108 0 -208 24.5t-188 71.5t-160 116t-124 158t-80.5 197t-28.5 234q0 125 28.5 232.5t80.5 196t124 157t160 115.5t188 71.5t208 24.5zM944 2600q-72 0 -144 -15t-138 -46.5
t-123 -81t-99 -118.5t-66 -159t-24 -202q0 -114 24 -204.5t66 -160t99 -119t123 -81t138 -46.5t144 -15q73 0 146 15t139.5 46.5t123.5 81t99 119t66 160t24 204.5q0 112 -24 202t-66 159t-99 118.5t-123.5 81t-139.5 46.5t-146 15z" />
    <glyph glyph-name="backslash" unicode="\" horiz-adv-x="1912" 
d="M470 2964l1508 -3236h-532l-1512 3236h536z" />
    <glyph glyph-name="minus" unicode="&#x2212;" 
d="M1839 1270q61 0 106 -11t81 -36q37 -25 59 -66.5t22 -102.5q0 -63 -24 -104t-62 -65t-82.5 -33.5t-99.5 -9.5h-1659v428h1659z" />
    <glyph glyph-name="ae" unicode="&#xe6;" horiz-adv-x="3746" 
d="M2057 2076v-164q62 58 136.5 99.5t154.5 67t162 37.5t160 12q227 0 402 -68.5t293.5 -208t179.5 -353t61 -502.5v-150h-1055q-35 0 -77 9.5t-78.5 33t-61 63t-24.5 100.5q0 60 24.5 99.5t61 63.5t78.5 33.5t77 9.5h533q0 137 -38.5 230t-102.5 149.5t-146 81t-169 24.5
q-119 0 -218.5 -43.5t-171.5 -129t-112 -213.5t-40 -297q0 -133 23 -235.5t65 -179t100.5 -128.5t129 -84.5t150.5 -46.5t166 -14q71 0 133 7t117 18.5t104 26.5t95 32q27 10 66 23.5t87 13.5q37 0 71 -10.5t59.5 -31.5t40.5 -53.5t15 -76.5q0 -52 -28 -102.5t-80 -88.5
q-72 -53 -156.5 -90t-174 -61t-180 -35t-175.5 -11q-98 0 -193.5 17t-180 48t-154.5 74t-116 95q-9 -44 -26 -83t-45 -68t-68 -46t-95 -17q-71 0 -116.5 23.5t-72 63.5t-37 91.5t-10.5 108.5v1072q0 103 -29 178.5t-81.5 125t-126 73t-163.5 23.5q-102 0 -195 -37
t-164.5 -119.5t-113.5 -213.5t-42 -318q0 -164 36 -285.5t98.5 -202t148 -120.5t184.5 -40q54 0 98 8t86 8q93 0 142.5 -52t49.5 -136q0 -39 -12 -69t-32.5 -54t-47 -42.5t-54.5 -32.5q-65 -32 -140.5 -44.5t-153.5 -12.5q-212 0 -386.5 64.5t-299 196.5t-193.5 332t-69 470
q0 182 34.5 335.5t97.5 277.5t153 218t200 157.5t238.5 95.5t269.5 32q83 0 155.5 -10.5t137.5 -32t124 -55t115 -78.5l44 124h348z" />
    <glyph glyph-name="Q" unicode="Q" horiz-adv-x="2748" 
d="M1384 2800q289 0 510.5 -98t371 -282.5t226 -451.5t76.5 -604q0 -240 -44 -441t-128.5 -361t-207.5 -277t-280 -189q52 -23 114 -41t129.5 -30t137.5 -18.5t139 -6.5q58 0 106.5 -14.5t84 -42.5t55 -69.5t19.5 -96.5q0 -67 -29 -110.5t-75 -69.5t-104 -36.5t-115 -10.5
q-132 0 -268.5 18.5t-274 62t-273.5 116t-266 181.5q-266 16 -472 123.5t-347.5 293t-215 443.5t-73.5 576q0 330 80 595.5t234 452.5t378 287.5t512 100.5zM1368 2346q-155 0 -271 -67.5t-193 -194.5t-115.5 -309t-38.5 -411q0 -221 40 -403t120 -311.5t201 -200.5t282 -71
q158 0 271.5 71t187 200.5t108 311.5t34.5 403t-39 402t-117 310t-195.5 199.5t-274.5 70.5z" />
    <glyph glyph-name="t" unicode="t" horiz-adv-x="1420" 
d="M867 2504v-428h289q61 0 106 -11t81 -36q37 -25 59 -66.5t22 -102.5q0 -63 -24 -104t-62 -65t-82.5 -33.5t-99.5 -9.5h-289v-996q0 -68 2.5 -118.5t16.5 -85t45 -51.5t88 -17q52 0 110 16t106 16q43 0 79.5 -12.5t62 -36.5t40 -59t14.5 -80q0 -75 -40.5 -124.5
t-103.5 -80.5q-67 -32 -163 -53.5t-205 -21.5q-66 0 -132 5.5t-127 22.5t-115 47.5t-96.5 80t-71 121.5t-38.5 171q-6 58 -7 113.5t-1 110.5v1032h-301v428h301v428h536z" />
    <glyph glyph-name="five" unicode="5" 
d="M1648 2728q10 0 27.5 -0.5t38 -3t43 -8.5t43.5 -16q57 -28 87 -79.5t30 -120.5q0 -66 -36 -115.5t-91 -78.5q-21 -11 -43 -17t-41 -9t-34.5 -3.5t-23.5 -0.5h-772l-68 -600q45 3 85.5 5.5t94.5 2.5q128 0 252.5 -11t236.5 -43t207 -89t164.5 -149.5t108.5 -225t39 -314.5
q0 -155 -42 -282t-115 -227.5t-173 -174.5t-216 -123t-243 -73t-255 -24q-137 0 -261 15t-227 45q-60 18 -114.5 41.5t-95.5 56t-65.5 76t-24.5 102.5q0 51 18 90t50 65t77 39.5t99 13.5t98 -14.5t86 -28.5q63 -21 115 -33t97.5 -18.5t86 -8t81.5 -1.5q54 0 110.5 8.5
t110 28.5t100.5 52.5t82.5 81t56 114t20.5 151.5q0 83 -25.5 146.5t-70.5 111t-106.5 79t-133.5 51t-151.5 28t-160.5 8.5q-77 0 -151.5 -6t-144 -16t-131.5 -22t-113 -24l152 1548h1232z" />
    <glyph glyph-name="M" unicode="M" horiz-adv-x="3514" 
d="M280 2728h835l518 -1604q10 -32 22.5 -74t25.5 -90t26.5 -98.5t25 -98.5t20.5 -91.5t15 -75.5h16q10 50 26 121.5t34.5 146.5t37 144.5t32.5 115.5l502 1604h818v-2461q0 -75 -11.5 -125t-44.5 -92q-34 -42 -85.5 -66t-123.5 -24t-123.5 24t-85.5 66q-34 41 -45 92
t-11 125v777q0 80 1.5 170t3.5 184.5t5 191.5t7 191t8 183.5t8 169.5h-27l-661 -2134h-588l-698 2134h-26q4 -67 8 -152t8 -179.5t8 -195t7 -199t4.5 -191.5t1.5 -173v-802q0 -69 -10 -117t-42 -86t-80 -60.5t-115 -22.5t-115 22.5t-80 60.5t-42 86t-10 117v2486z" />
    <glyph glyph-name="J" unicode="J" horiz-adv-x="1352" 
d="M1072 2728v-1896q0 -29 -0.5 -73t-3 -96.5t-7 -110.5t-13.5 -114.5t-23 -108t-34 -91.5q-71 -142 -215.5 -214t-355.5 -72q-124 0 -215 16.5t-160 56.5q-55 32 -89 80.5t-34 114.5q0 46 17 81t45.5 57.5t66.5 34t81 11.5q48 0 98 -10t98 -10q96 0 142 49t46 163v2132h556
z" />
    <glyph glyph-name="G" unicode="G" horiz-adv-x="2712" 
d="M2456 132q-86 -51 -193.5 -86t-223 -56.5t-231 -31.5t-216.5 -10q-132 0 -266.5 16t-265 54t-252 101t-227.5 158q-95 84 -169 191.5t-126 239.5t-79 289t-27 339q0 237 49 435t140.5 357t222.5 279t295.5 200t359 120t413.5 40q248 0 448 -34t360 -91l-178 -442
q-46 23 -109.5 45t-141 39.5t-167 28.5t-186.5 11q-242 0 -418.5 -67.5t-292 -192.5t-171.5 -303.5t-56 -400.5q0 -254 60.5 -440t170 -307.5t263.5 -181t342 -59.5q90 0 179 9t181 31v620h-288q-87 0 -140.5 13t-89.5 41q-35 28 -55 71t-20 103t22.5 103.5t58.5 70.5
q37 28 90 41t134 13h800v-1356z" />
    <glyph glyph-name="brokenbar" unicode="&#xa6;" horiz-adv-x="1244" 
d="M854 3028v-1328h-476v1328h476zM378 416h476v-1328h-476v1328z" />
    <glyph glyph-name="r" unicode="r" horiz-adv-x="1430" 
d="M652 2076l22 -282q37 66 89.5 130t126 114t170 81t220.5 31q27 0 55 -2.5t45 -7.5v-544q-35 9 -76 12.5t-76 3.5q-83 0 -159 -19t-136.5 -59.5t-102 -102.5t-54.5 -147v-1060q0 -83 -30.5 -135t-73 -81.5t-88 -40.5t-76.5 -11t-76.5 11t-88 40.5t-73 81.5t-30.5 135v1852
h412z" />
    <glyph glyph-name="E" unicode="E" horiz-adv-x="2140" 
d="M280 2728h1680v-456h-1124v-640h775q43 0 82 -6t77 -26q57 -29 91.5 -79.5t34.5 -116.5q0 -45 -16 -82t-44 -66q-45 -47 -103.5 -63.5t-121.5 -16.5h-775v-720h864q43 0 82 -6t77 -26q57 -29 91.5 -79.5t34.5 -116.5q0 -45 -16 -82t-44 -66q-45 -47 -103.5 -63.5
t-121.5 -16.5h-1420v2728z" />
    <glyph glyph-name="F" unicode="F" horiz-adv-x="2052" 
d="M1892 2728v-456h-1056v-676h778q62 0 112 -14t85.5 -42.5t54.5 -71.5t19 -100q0 -60 -20.5 -103t-57 -70.5t-86 -41t-107.5 -13.5h-778v-864q0 -76 -16.5 -129t-50.5 -95t-86.5 -67t-124.5 -25t-124.5 25t-86.5 67t-50.5 95t-16.5 129v2452h1612z" />
    <glyph glyph-name="ampersand" unicode="&#x26;" horiz-adv-x="2980" 
d="M1784 2098q0 138 -29.5 236.5t-89.5 161t-150 91.5t-211 29q-90 0 -171.5 -25t-143 -73.5t-97.5 -119.5t-36 -162q0 -75 24 -141.5t66 -119.5t100 -89.5t126 -49.5q35 -7 71 -11.5t75.5 -6.5t84 -3t97.5 -1h284v284zM2736 1408h-432v-752q0 -63 3.5 -110.5t18.5 -79
t45.5 -47t84.5 -15.5q31 0 58.5 5t54 11t52.5 11t55 5q43 0 79.5 -12.5t62 -36.5t40 -59t14.5 -80q0 -78 -38.5 -124t-106.5 -78q-33 -15 -75 -29.5t-89.5 -25t-100 -17t-106.5 -6.5q-67 0 -132 5.5t-124.5 22.5t-112 48t-93.5 81t-69.5 122.5t-40.5 172.5q-6 48 -7 103
t-1 121v775h-424q-121 0 -232.5 -28t-196.5 -90.5t-136 -162t-51 -242.5q0 -94 25.5 -163t70 -118t104 -80t128.5 -48.5t143 -24t147 -6.5h32.5t41.5 -0.5t43.5 -1.5t38.5 -2q100 -9 154 -66t54 -154q0 -60 -21 -102.5t-56 -70.5t-80.5 -44t-93.5 -23.5t-95 -9.5t-86 -2
q-90 0 -175.5 3.5t-168 14.5t-162 30t-157.5 51q-127 51 -217 131.5t-147 181t-83.5 217.5t-26.5 243q0 124 38 236t103 207.5t153 170.5t189 126q-68 49 -131 108t-111 133t-77 165.5t-29 205.5q0 103 22.5 193t63.5 166t99 138t130 109q151 100 334 145t395 45
q95 0 186 -11t176 -36t164.5 -64t151.5 -96q143 -113 220.5 -309t77.5 -462v-198h432v-416z" />
    <glyph glyph-name="e" unicode="e" horiz-adv-x="2276" 
d="M1058 846q-36 0 -79 9.5t-80 33.5t-62 64.5t-25 102.5q0 61 25 101.5t62 64.5t80 34t79 10h533q0 126 -31.5 216.5t-87 148t-130.5 85t-162 27.5q-131 0 -228 -56t-162 -150.5t-97 -218t-32 -258.5q0 -188 50 -319t133.5 -213t191.5 -119t225 -37q71 0 133 7t117 18.5
t104 26.5t95 32q27 10 66 23.5t87 13.5q37 0 71 -10.5t59.5 -31.5t40.5 -53.5t15 -76.5q0 -52 -28 -102.5t-80 -88.5q-72 -53 -162 -90t-185.5 -61t-191.5 -35t-181 -11q-142 0 -277 25t-255 79t-221 140t-174 208.5t-113.5 284t-40.5 366.5q0 183 38.5 335.5t108.5 275
t167 215t213.5 154t248.5 92.5t273 31q227 0 403.5 -70t297 -212t183.5 -357t63 -504v-150h-1078z" />
    <glyph glyph-name="f" unicode="f" horiz-adv-x="1411" 
d="M330 2076v132q0 66 3.5 131.5t12.5 116.5q25 139 89.5 239t154.5 164t199 94t225 30q127 0 234.5 -20.5t177.5 -50.5l-112 -412q-45 27 -96 37.5t-108 10.5q-43 0 -82 -11t-70 -33t-52.5 -53.5t-30.5 -72.5q-2 -10 -3.5 -22.5t-3 -30.5t-2 -44.5t-0.5 -64.5v-140h281
q61 0 106 -11t81 -36q37 -25 59 -66.5t22 -102.5q0 -63 -24 -104t-62 -65t-82.5 -33.5t-99.5 -9.5h-281v-1424q0 -55 -14.5 -96t-37.5 -71t-52 -49.5t-59 -31t-57.5 -16t-47.5 -4.5q-21 0 -49 4.5t-58 16t-58.5 31t-51.5 49.5t-37 71t-14 96v1424h-300v428h300z" />
    <glyph glyph-name="Agrave" unicode="&#xc0;" horiz-adv-x="2492" 
d="M1536 2728l906 -2390q4 -12 10 -29t10.5 -35t8 -35t3.5 -30q0 -51 -14 -89.5t-37 -66.5t-52.5 -47t-59.5 -30t-58.5 -15.5t-50.5 -4.5q-35 0 -73.5 9t-75 32.5t-69.5 63t-56 100.5l-192 499h-1008l-206 -528q-18 -47 -47 -81t-63.5 -56t-72.5 -32.5t-75 -10.5
q-53 0 -100.5 16.5t-84 48t-58 75.5t-21.5 100q0 18 3.5 43t12.5 49l932 2444h588zM1584 1104l-220 636q-24 70 -44.5 141t-36 132t-25.5 106.5t-14 66.5h-12q-3 -21 -13.5 -67t-26.5 -107t-37.5 -132t-46.5 -140l-232 -636h708zM1022 3770l632 -512q37 -29 60.5 -69
t23.5 -79q0 -36 -13 -68.5t-38 -57.5t-60.5 -39.5t-80.5 -14.5q-30 0 -59 10.5t-53 25.5l-680 412z" />
    <glyph glyph-name="Aacute" unicode="&#xc1;" horiz-adv-x="2492" 
d="M1536 2728l906 -2390q4 -12 10 -29t10.5 -35t8 -35t3.5 -30q0 -51 -14 -89.5t-37 -66.5t-52.5 -47t-59.5 -30t-58.5 -15.5t-50.5 -4.5q-35 0 -73.5 9t-75 32.5t-69.5 63t-56 100.5l-192 499h-1008l-206 -528q-18 -47 -47 -81t-63.5 -56t-72.5 -32.5t-75 -10.5
q-53 0 -100.5 16.5t-84 48t-58 75.5t-21.5 100q0 18 3.5 43t12.5 49l932 2444h588zM1584 1104l-220 636q-24 70 -44.5 141t-36 132t-25.5 106.5t-14 66.5h-12q-3 -21 -13.5 -67t-26.5 -107t-37.5 -132t-46.5 -140l-232 -636h708zM1738 3378l-680 -412q-24 -15 -53 -25.5
t-59 -10.5q-45 0 -80.5 14.5t-60.5 39.5t-38 57.5t-13 68.5q0 39 23 78t61 70l632 512z" />
    <glyph glyph-name="Acircumflex" unicode="&#xc2;" horiz-adv-x="2492" 
d="M1536 2728l906 -2390q4 -12 10 -29t10.5 -35t8 -35t3.5 -30q0 -51 -14 -89.5t-37 -66.5t-52.5 -47t-59.5 -30t-58.5 -15.5t-50.5 -4.5q-35 0 -73.5 9t-75 32.5t-69.5 63t-56 100.5l-192 499h-1008l-206 -528q-18 -47 -47 -81t-63.5 -56t-72.5 -32.5t-75 -10.5
q-53 0 -100.5 16.5t-84 48t-58 75.5t-21.5 100q0 18 3.5 43t12.5 49l932 2444h588zM1584 1104l-220 636q-24 70 -44.5 141t-36 132t-25.5 106.5t-14 66.5h-12q-3 -21 -13.5 -67t-26.5 -107t-37.5 -132t-46.5 -140l-232 -636h708zM1836 3270q36 -30 60 -71t24 -77t-13 -68.5
t-38 -57.5t-60.5 -39.5t-80.5 -14.5q-30 0 -59 10t-53 26l-368 236l-372 -236q-22 -14 -50.5 -25t-61.5 -11q-45 0 -80.5 14.5t-60.5 39.5t-38 57.5t-13 68.5t23 76.5t61 71.5l592 480z" />
    <glyph glyph-name="Atilde" unicode="&#xc3;" horiz-adv-x="2492" 
d="M1536 2728l906 -2390q4 -12 10 -29t10.5 -35t8 -35t3.5 -30q0 -51 -14 -89.5t-37 -66.5t-52.5 -47t-59.5 -30t-58.5 -15.5t-50.5 -4.5q-35 0 -73.5 9t-75 32.5t-69.5 63t-56 100.5l-192 499h-1008l-206 -528q-18 -47 -47 -81t-63.5 -56t-72.5 -32.5t-75 -10.5
q-53 0 -100.5 16.5t-84 48t-58 75.5t-21.5 100q0 18 3.5 43t12.5 49l932 2444h588zM1584 1104l-220 636q-24 70 -44.5 141t-36 132t-25.5 106.5t-14 66.5h-12q-3 -21 -13.5 -67t-26.5 -107t-37.5 -132t-46.5 -140l-232 -636h708zM418 3096q6 22 15.5 49t21 54.5t24.5 54
t26 47.5q38 62 84.5 112t104.5 85.5t128 54.5t156 19q99 0 175.5 -30t148.5 -78q25 -17 51.5 -37t56.5 -37.5t63.5 -29.5t72.5 -12q33 0 59 7.5t47.5 20.5t39.5 30.5t35 36.5q35 40 76.5 66.5t92.5 26.5q39 0 71.5 -14t56.5 -39t37 -58.5t13 -72.5q0 -78 -40.5 -148
t-108.5 -122.5t-158 -83t-189 -30.5q-62 0 -112 10t-92 27.5t-78 40t-70 46.5q-18 13 -43.5 30t-56.5 32.5t-65.5 26.5t-70.5 11q-41 0 -72 -9t-54 -23.5t-40.5 -33.5t-32.5 -38q-26 -32 -42 -66.5t-31 -61.5l-300 136v0z" />
    <glyph glyph-name="Adieresis" unicode="&#xc4;" horiz-adv-x="2492" 
d="M1536 2728l906 -2390q4 -12 10 -29t10.5 -35t8 -35t3.5 -30q0 -51 -14 -89.5t-37 -66.5t-52.5 -47t-59.5 -30t-58.5 -15.5t-50.5 -4.5q-35 0 -73.5 9t-75 32.5t-69.5 63t-56 100.5l-192 499h-1008l-206 -528q-18 -47 -47 -81t-63.5 -56t-72.5 -32.5t-75 -10.5
q-53 0 -100.5 16.5t-84 48t-58 75.5t-21.5 100q0 18 3.5 43t12.5 49l932 2444h588zM1584 1104l-220 636q-24 70 -44.5 141t-36 132t-25.5 106.5t-14 66.5h-12q-3 -21 -13.5 -67t-26.5 -107t-37.5 -132t-46.5 -140l-232 -636h708zM848 3608q61 0 115 -20t94.5 -57t63.5 -88.5
t23 -114.5t-23 -114t-63.5 -87t-94.5 -55.5t-115 -19.5q-63 0 -118 19.5t-95.5 55.5t-63.5 87t-23 114t23 114.5t63.5 88.5t95.5 57t118 20zM1648 3608q61 0 115 -20t94.5 -57t63.5 -88.5t23 -114.5t-23 -114t-63.5 -87t-94.5 -55.5t-115 -19.5q-63 0 -118 19.5t-95.5 55.5
t-63.5 87t-23 114t23 114.5t63.5 88.5t95.5 57t118 20z" />
    <glyph glyph-name="Aring" unicode="&#xc5;" horiz-adv-x="2492" 
d="M1536 2728l906 -2390q4 -12 10 -29t10.5 -35t8 -35t3.5 -30q0 -51 -14 -89.5t-37 -66.5t-52.5 -47t-59.5 -30t-58.5 -15.5t-50.5 -4.5q-35 0 -73.5 9t-75 32.5t-69.5 63t-56 100.5l-192 499h-1008l-206 -528q-18 -47 -47 -81t-63.5 -56t-72.5 -32.5t-75 -10.5
q-53 0 -100.5 16.5t-84 48t-58 75.5t-21.5 100q0 18 3.5 43t12.5 49l932 2444h588zM1584 1104l-220 636q-24 70 -44.5 141t-36 132t-25.5 106.5t-14 66.5h-12q-3 -21 -13.5 -67t-26.5 -107t-37.5 -132t-46.5 -140l-232 -636h708zM1244 3800q100 0 189 -33t155.5 -93
t105 -144t38.5 -186q0 -104 -38.5 -188.5t-105 -145t-155.5 -93.5t-189 -33q-101 0 -189 33t-153.5 93.5t-103.5 145t-38 188.5q0 102 38 186t103.5 144t153.5 93t189 33zM1244 3532q-38 0 -71 -11.5t-58.5 -34.5t-40 -58.5t-14.5 -83.5q0 -50 13.5 -86t38 -59.5t58 -35
t74.5 -11.5q34 0 67.5 10t59 32.5t41.5 58.5t16 87q0 48 -14.5 84t-40 60t-59 36t-70.5 12z" />
    <glyph glyph-name="AE" unicode="&#xc6;" horiz-adv-x="3476" 
d="M1632 2272h-90q-29 -80 -66 -170.5t-79.5 -186t-89 -193.5t-95.5 -194l-216 -424h636v1168zM3296 2728v-456h-1124v-640h775q43 0 82 -6t77 -26q57 -29 91.5 -79.5t34.5 -116.5q0 -45 -16 -82t-44 -66q-45 -47 -103.5 -63.5t-121.5 -16.5h-775v-720h864q43 0 82 -6
t77 -26q57 -29 91.5 -79.5t34.5 -116.5q0 -45 -16 -82t-44 -66q-45 -47 -103.5 -63.5t-121.5 -16.5h-1413v660h-841l-296 -552q-35 -65 -100 -106.5t-156 -41.5q-49 0 -97.5 16t-87 46t-62.5 73.5t-24 98.5q0 40 12 75t32 71l1307 2388h1986z" />
    <glyph glyph-name="Egrave" unicode="&#xc8;" horiz-adv-x="2140" 
d="M280 2728h1680v-456h-1124v-640h775q43 0 82 -6t77 -26q57 -29 91.5 -79.5t34.5 -116.5q0 -45 -16 -82t-44 -66q-45 -47 -103.5 -63.5t-121.5 -16.5h-775v-720h864q43 0 82 -6t77 -26q57 -29 91.5 -79.5t34.5 -116.5q0 -45 -16 -82t-44 -66q-45 -47 -103.5 -63.5
t-121.5 -16.5h-1420v2728zM846 3770l632 -512q37 -29 60.5 -69t23.5 -79q0 -36 -13 -68.5t-38 -57.5t-60.5 -39.5t-80.5 -14.5q-30 0 -59 10.5t-53 25.5l-680 412z" />
    <glyph glyph-name="Eacute" unicode="&#xc9;" horiz-adv-x="2140" 
d="M280 2728h1680v-456h-1124v-640h775q43 0 82 -6t77 -26q57 -29 91.5 -79.5t34.5 -116.5q0 -45 -16 -82t-44 -66q-45 -47 -103.5 -63.5t-121.5 -16.5h-775v-720h864q43 0 82 -6t77 -26q57 -29 91.5 -79.5t34.5 -116.5q0 -45 -16 -82t-44 -66q-45 -47 -103.5 -63.5
t-121.5 -16.5h-1420v2728zM1562 3378l-680 -412q-24 -15 -53 -25.5t-59 -10.5q-45 0 -80.5 14.5t-60.5 39.5t-38 57.5t-13 68.5q0 39 23 78t61 70l632 512z" />
    <glyph glyph-name="Ecircumflex" unicode="&#xca;" horiz-adv-x="2140" 
d="M280 2728h1680v-456h-1124v-640h775q43 0 82 -6t77 -26q57 -29 91.5 -79.5t34.5 -116.5q0 -45 -16 -82t-44 -66q-45 -47 -103.5 -63.5t-121.5 -16.5h-775v-720h864q43 0 82 -6t77 -26q57 -29 91.5 -79.5t34.5 -116.5q0 -45 -16 -82t-44 -66q-45 -47 -103.5 -63.5
t-121.5 -16.5h-1420v2728zM1680 3270q36 -30 60 -71t24 -77t-13 -68.5t-38 -57.5t-60.5 -39.5t-80.5 -14.5q-30 0 -59 10t-53 26l-368 236l-372 -236q-22 -14 -50.5 -25t-61.5 -11q-45 0 -80.5 14.5t-60.5 39.5t-38 57.5t-13 68.5t23 76.5t61 71.5l592 480z" />
    <glyph glyph-name="Edieresis" unicode="&#xcb;" horiz-adv-x="2140" 
d="M280 2728h1680v-456h-1124v-640h775q43 0 82 -6t77 -26q57 -29 91.5 -79.5t34.5 -116.5q0 -45 -16 -82t-44 -66q-45 -47 -103.5 -63.5t-121.5 -16.5h-775v-720h864q43 0 82 -6t77 -26q57 -29 91.5 -79.5t34.5 -116.5q0 -45 -16 -82t-44 -66q-45 -47 -103.5 -63.5
t-121.5 -16.5h-1420v2728zM692 3608q61 0 115 -20t94.5 -57t63.5 -88.5t23 -114.5t-23 -114t-63.5 -87t-94.5 -55.5t-115 -19.5q-63 0 -118 19.5t-95.5 55.5t-63.5 87t-23 114t23 114.5t63.5 88.5t95.5 57t118 20zM1492 3608q61 0 115 -20t94.5 -57t63.5 -88.5t23 -114.5
t-23 -114t-63.5 -87t-94.5 -55.5t-115 -19.5q-63 0 -118 19.5t-95.5 55.5t-63.5 87t-23 114t23 114.5t63.5 88.5t95.5 57t118 20z" />
    <glyph glyph-name="Euro" unicode="&#x20ac;" horiz-adv-x="2396" 
d="M1948 1496h-1050q-6 -74 -6 -155q0 -69 3 -136h994l-103 -382h-830q34 -114 87.5 -193.5t126 -129t164 -71.5t201.5 -22q43 0 80 3t69 8t62 12t60 15q26 7 53.5 11t58.5 4q44 0 87.5 -12t77.5 -37t55 -63t21 -90q0 -39 -13.5 -73t-37.5 -63t-57 -52.5t-72 -40.5
q-61 -26 -123 -42.5t-123.5 -25.5t-121 -12.5t-115.5 -3.5q-234 0 -416 57.5t-316 169t-222 275t-133 376.5h-134q-6 0 -22 0.5t-42 2.5q-37 4 -70 19.5t-57.5 40.5t-39 58t-14.5 72q0 37 14.5 69.5t39.5 57.5t58 41t70 19q21 2 38.5 2h24.5h90q-2 35 -3 70.5t-1 71.5
q0 38 1.5 75.5t3.5 73.5h-80q-8 0 -25 0.5t-37 2.5q-37 3 -70.5 18.5t-58.5 40t-39.5 58t-14.5 73.5q0 37 14.5 69t39.5 57t58.5 40.5t70.5 19.5q20 2 37 2.5t25 0.5h144q67 230 190 397.5t286 276t358 161t405 52.5q114 0 214 -9.5t182.5 -23.5t146 -30t104.5 -29
l-159 -449q-53 23 -113.5 39t-122.5 26t-122.5 14.5t-111.5 4.5q-111 0 -218 -26t-199.5 -79t-164 -134t-111.5 -191h1057z" />
    <glyph glyph-name="Ydieresis" unicode="&#x178;" horiz-adv-x="2112" 
d="M456 2728l316 -580q33 -62 71.5 -137.5t75.5 -154.5t69 -155t52 -137h20q19 60 49.5 135.5t66 155t72 155.5t68.5 138l296 580h620l-908 -1612v-860q0 -9 -0.5 -34.5t-2.5 -49.5q-5 -47 -28.5 -85.5t-60.5 -67t-84.5 -44t-99.5 -15.5q-57 0 -105.5 15.5t-85.5 44t-60 67
t-29 85.5q-3 24 -3.5 49.5t-0.5 34.5v868l-952 1604h644zM648 3608q61 0 115 -20t94.5 -57t63.5 -88.5t23 -114.5t-23 -114t-63.5 -87t-94.5 -55.5t-115 -19.5q-63 0 -118 19.5t-95.5 55.5t-63.5 87t-23 114t23 114.5t63.5 88.5t95.5 57t118 20zM1448 3608q61 0 115 -20
t94.5 -57t63.5 -88.5t23 -114.5t-23 -114t-63.5 -87t-94.5 -55.5t-115 -19.5q-63 0 -118 19.5t-95.5 55.5t-63.5 87t-23 114t23 114.5t63.5 88.5t95.5 57t118 20z" />
    <glyph glyph-name="germandbls" unicode="&#xdf;" horiz-adv-x="2505" 
d="M1216 2982q105 0 210.5 -13.5t202.5 -45t181 -82.5t146.5 -125.5t98 -174.5t35.5 -230q0 -68 -22 -127t-57.5 -111t-81 -97t-93.5 -84.5t-94 -74.5t-82 -66q-27 -23 -60.5 -49t-63 -54.5t-49 -60.5t-19.5 -68q0 -35 13 -60t33.5 -44t47 -33.5t53.5 -27.5
q42 -20 86.5 -42.5t88.5 -44.5t84 -43.5t73 -39.5q88 -49 159.5 -106t122 -126.5t78 -153t27.5 -186.5q0 -83 -20.5 -157.5t-55.5 -139t-83 -118t-103 -95.5q-109 -81 -241.5 -115.5t-293.5 -34.5q-134 0 -225.5 13t-156.5 30q-49 13 -98.5 33t-89.5 52t-65 78.5t-25 112.5
q0 47 18 87t50 69.5t75.5 46t94.5 16.5q30 0 56 -6t51 -14.5t50.5 -19t53.5 -19.5q32 -11 59 -18.5t53.5 -12.5t53.5 -7.5t59 -2.5q46 0 91 12t80.5 36.5t57 62.5t21.5 89q0 71 -42.5 123t-111.5 87q-93 47 -186.5 90t-188.5 93q-85 45 -149.5 94t-108 108t-66 131
t-22.5 164q0 83 33 155t88 138t127.5 128t152.5 127q45 37 80.5 70t59.5 67t36.5 69.5t12.5 77.5q0 57 -24 101.5t-66.5 75t-100 46.5t-123.5 16q-76 0 -148 -27t-128.5 -86t-90.5 -153t-34 -228v-1798q0 -17 -0.5 -38.5t-4.5 -48.5q-6 -47 -30 -86.5t-60 -68.5t-82 -45
t-98 -16t-98 16t-82 45t-59.5 68.5t-29.5 86.5q-4 27 -4.5 48.5t-0.5 38.5v1777q0 187 42 330t114 248t167.5 175.5t202.5 113.5t219.5 61t218.5 18z" />
    <glyph glyph-name="yen" unicode="&#xa5;" horiz-adv-x="2112" 
d="M480 2728l316 -580q22 -41 47 -90.5t50 -103.5t50 -109.5t47.5 -109.5t41 -103.5t32.5 -90.5h20q13 40 31 89t39.5 103t45 110t48 110t48 104t44.5 91l296 580h620l-690 -1187h279q8 0 25 -0.5t37 -2.5q36 -3 68.5 -18.5t57 -40t39 -56t14.5 -67.5q0 -39 -14.5 -72
t-39 -57.5t-57 -39.5t-68.5 -18q-20 -2 -37 -2.5t-25 -0.5h-497v-234h508h25t37 -2q36 -3 68.5 -18.5t57 -40.5t39 -57t14.5 -68q0 -38 -14 -70.5t-38.5 -57t-57 -40t-68.5 -18.5q-26 -2 -41 -2.5t-22 -0.5h-508v-301q0 -9 -0.5 -34.5t-2.5 -49.5q-5 -47 -28.5 -85.5
t-60.5 -67t-84.5 -44t-99.5 -15.5q-57 0 -105.5 15.5t-85.5 44t-60 67t-29 85.5q-3 24 -3.5 49.5t-0.5 34.5v301h-686v375h686v234h-686v375h458l-724 1187h644z" />
    <glyph glyph-name="copyright" unicode="&#xa9;" horiz-adv-x="4466" 
d="M295 1018q0 275 68.5 522t193.5 456.5t301 377.5t391.5 286t464 181t519.5 63q270 0 519 -63t464.5 -181t391.5 -286t301 -377.5t193.5 -456.5t68.5 -522q0 -276 -68.5 -522.5t-193.5 -456t-301 -377.5t-391.5 -286t-464.5 -181t-519 -63q-271 0 -519.5 63t-464 181
t-391.5 286t-301 377.5t-193.5 456t-68.5 522.5zM2233 2495q-203 0 -389 -49.5t-347.5 -142t-293 -224t-225.5 -295.5t-145 -357.5t-51 -408.5t51 -408.5t145 -357.5t225.5 -295.5t293 -224t347.5 -142t389 -49.5t389 49.5t347.5 142t293 224t225.5 295.5t145 357t51 409
q0 215 -51 408.5t-145 357.5t-225.5 295.5t-293 224t-347.5 142t-389 49.5zM2780 1498q-117 75 -231 109.5t-212 34.5q-126 0 -226.5 -37t-171 -111t-108 -184.5t-37.5 -256.5q0 -157 38 -273t102 -193t148.5 -115t178.5 -38q82 0 154.5 14.5t142.5 41.5q25 10 46 19.5
t42.5 17t44.5 12t53 4.5q41 0 77.5 -12.5t64 -36t43.5 -58t16 -79.5q0 -64 -48 -120t-132 -103q-62 -35 -129.5 -60t-137 -41.5t-140 -24.5t-137.5 -8q-206 0 -383.5 60.5t-308 187t-205 321.5t-74.5 463q0 184 40.5 333t112.5 264.5t171.5 199.5t217 138t248.5 80t267 26
q178 0 335.5 -36t297.5 -100z" />
    <glyph glyph-name="trademark" unicode="&#x2122;" horiz-adv-x="2050" 
d="M776 2429v-181h-238v-604q0 -49 -27.5 -83.5t-79.5 -34.5q-27 0 -47 10t-33 26.5t-19.5 37.5t-6.5 44v604h-239v181h690zM1169 2429l156 -514q7 -23 16 -63.5t15 -80.5h20q5 40 14 80.5t16 63.5l149 514h327v-788q0 -51 -25.5 -83t-76.5 -32q-27 0 -46.5 9.5t-32 25
t-18.5 36.5t-6 44v243q0 28 0.5 64t1 74t1.5 76t3 71h-20q-23 -75 -47 -155t-47.5 -161.5t-47 -161.5t-45.5 -153h-240l-200 639h-20q2 -33 3.5 -72.5t2.5 -78.5t1.5 -76t0.5 -66v-250q0 -49 -25 -79t-73 -30q-26 0 -44.5 8.5t-30 23.5t-16.5 35t-5 42v795h339z" />
    <glyph glyph-name="braceleft" unicode="{" horiz-adv-x="1784" 
d="M1658 -918h-220q-113 0 -223 11.5t-209 41t-183 79.5t-145.5 127t-96.5 184.5t-35 251.5q0 17 1 56t3 91.5t4 115.5t4.5 127t4.5 125.5t4 112.5t3 86.5t1 48.5q0 54 -16 94.5t-43 71.5t-61.5 52.5t-71.5 36.5t-73 23.5t-65 14.5q-43 8 -80 26.5t-64 46.5t-42 64t-15 79
q0 45 15 82.5t41.5 65.5t64 46.5t82.5 26.5q29 5 66 13t75 22.5t74 35.5t64 51.5t45 72.5t17 97q0 5 -1.5 37t-4 82t-6 113t-6.5 129.5t-6.5 132.5t-6 122t-4 96.5t-1.5 57.5q0 137 33.5 243t93 184.5t141.5 132.5t178 86.5t202.5 47t216.5 14.5q8 0 20 -1t25.5 -2t26 -3
t20.5 -3q87 -17 138 -69t51 -136q0 -88 -52.5 -142.5t-137.5 -71.5q-9 -2 -21.5 -3t-24.5 -1.5t-22.5 -0.5h-16.5q-60 0 -116 -11t-98.5 -42.5t-68.5 -88.5t-26 -149v-691q0 -89 -25.5 -167t-74 -142.5t-117.5 -114.5t-156 -84q112 -43 184 -109.5t113 -144t57 -161
t16 -161.5v-713q0 -87 28 -149.5t74.5 -103t106 -60t122.5 -19.5h220v-414z" />
    <glyph glyph-name="braceright" unicode="}" horiz-adv-x="1784" 
d="M346 3040q113 0 223 -11.5t209 -41t183 -79.5t145.5 -127t96.5 -184.5t35 -251.5q0 -17 -1 -56t-3 -91.5t-4 -115.5t-4.5 -127t-4.5 -125.5t-4 -112.5t-3 -86.5t-1 -48.5q0 -53 16.5 -94t43 -72t61 -52.5t71.5 -36.5t72.5 -24t65.5 -14q43 -8 80 -26.5t64 -46.5t42 -64
t15 -79q0 -45 -15 -82.5t-41.5 -65.5t-64 -47t-82.5 -26q-30 -5 -66.5 -13t-74.5 -22.5t-74 -35.5t-64 -51.5t-45 -72.5t-17 -97q0 -5 1.5 -37t4 -82t6 -113t6.5 -129.5t6.5 -132.5t6 -122t4 -96.5t1.5 -57.5q0 -137 -33.5 -243t-93 -184.5t-141.5 -132.5t-178 -86.5
t-202.5 -47t-216.5 -14.5q-8 0 -20 1t-25.5 2t-26 2.5t-20.5 3.5q-87 17 -138 69t-51 136q0 88 52.5 142.5t137.5 71.5q9 2 21.5 3t24.5 1.5t22.5 0.5h16.5q60 0 116 11t98.5 42.5t68.5 88.5t26 149v691q0 89 25.5 167t74 142.5t117.5 114.5t156 84q-112 43 -184 109.5
t-113 144t-57 161t-16 161.5v713q0 87 -28 149.5t-74.5 103t-106 60t-122.5 19.5h-220v414h220z" />
    <glyph glyph-name="ccedilla" unicode="&#xe7;" horiz-adv-x="2032" 
d="M1752 1552q-59 39 -119.5 65.5t-120 43t-116.5 24t-108 7.5q-138 0 -248.5 -40.5t-187.5 -120.5t-118.5 -200t-41.5 -279q0 -171 42.5 -298t113.5 -211t164.5 -125.5t195.5 -41.5q88 0 155.5 13.5t130.5 34.5q33 11 58.5 24t51 23.5t54 17.5t66.5 7q37 0 72 -12
t61.5 -34.5t42.5 -56.5t16 -77q0 -78 -67.5 -150t-194.5 -126q-91 -39 -185 -60.5t-183 -29.5l-29 -111q70 -12 134.5 -36.5t113 -66t77.5 -100.5t29 -140q0 -78 -21.5 -137t-58 -102.5t-85.5 -73t-103.5 -47.5t-111.5 -25.5t-110 -7.5q-29 0 -67.5 3t-79.5 11t-81 21.5
t-71.5 35.5t-51 52.5t-19.5 72.5q0 77 53 118t140 41q25 0 48.5 -6.5t47 -14t48 -13.5t51.5 -6q25 0 46.5 13.5t21.5 47.5q0 21 -14 37t-36.5 28.5t-51 20.5t-58.5 13.5t-58 7.5t-50 2q-44 0 -83 -4t-63 -12l114 396q-168 33 -308.5 113.5t-242.5 211t-159 313.5t-57 422
q0 193 43 349t119.5 278t181 210.5t228.5 146t262.5 85t281.5 27.5q188 0 350.5 -37t305.5 -103z" />
    <glyph glyph-name="cedilla" unicode="&#xb8;" horiz-adv-x="1051" 
d="M661 76l-62 -237q70 -12 134.5 -36.5t113 -66t77.5 -100.5t29 -140q0 -78 -21.5 -137t-58 -102.5t-85.5 -73t-103.5 -47.5t-111.5 -25.5t-110 -7.5q-29 0 -67.5 3t-79.5 11t-81 21.5t-71.5 35.5t-51 52.5t-19.5 72.5q0 77 53 118t140 41q25 0 48.5 -6.5t47 -14t48 -13.5
t51.5 -6q25 0 46.5 13.5t21.5 47.5q0 21 -14 37t-36.5 28.5t-51 20.5t-58.5 13.5t-58 7.5t-50 2q-44 0 -83 -4t-63 -12l145 504h381z" />
    <glyph glyph-name="Ccedilla" unicode="&#xc7;" horiz-adv-x="2260" 
d="M1968 2232q-41 18 -92 34.5t-107.5 29t-116.5 20.5t-118 8q-191 0 -336.5 -65t-244 -187t-149 -298t-50.5 -398q0 -254 51 -438t142.5 -303.5t219.5 -177t283 -57.5q87 0 155 8t128 22q31 7 62.5 18.5t63.5 22t65 18t68 7.5q40 0 74.5 -12t60 -34.5t39.5 -56.5t14 -77
q0 -66 -31 -118q-31 -53 -96 -98.5t-146 -76.5q-59 -22 -122.5 -37t-127 -24t-125 -13.5t-118.5 -4.5l-27 -105q70 -12 134.5 -36.5t113 -66t77.5 -100.5t29 -140q0 -78 -21.5 -137t-58 -102.5t-85.5 -73t-103.5 -47.5t-111.5 -25.5t-110 -7.5q-29 0 -67.5 3t-79.5 11
t-81 21.5t-71.5 35.5t-51 52.5t-19.5 72.5q0 77 53 118t140 41q25 0 48.5 -6.5t47 -14t48 -13.5t51.5 -6q25 0 46.5 13.5t21.5 47.5q0 21 -14 37t-36.5 28.5t-51 20.5t-58.5 13.5t-58 7.5t-50 2q-44 0 -83 -4t-63 -12l119 413q-229 57 -393.5 179.5t-271 301t-157 407.5
t-50.5 499q0 243 49.5 440.5t138.5 352.5t212.5 267.5t273 186.5t319.5 109.5t351 35.5q100 0 188 -7.5t166.5 -21.5t148.5 -34t135 -45z" />
    <glyph glyph-name="less" unicode="&#x3c;" horiz-adv-x="2055" 
d="M1328 2097q36 29 77.5 44t92.5 15q54 0 101 -20t81.5 -53t54.5 -76t20 -90t-21 -95t-69 -86l-857 -673l857 -676q45 -36 67.5 -84.5t22.5 -94.5q0 -50 -21 -93.5t-56 -76t-81.5 -51.5t-98.5 -19q-51 0 -92.5 15.5t-77.5 44.5l-1278 1035z" />
    <glyph glyph-name="greater" unicode="&#x3e;" horiz-adv-x="2055" 
d="M727 27q-36 -29 -77.5 -44t-92.5 -15q-54 0 -101 20t-81.5 53t-54.5 76t-20 90t21 95t69 86l857 673l-857 676q-45 36 -67.5 84.5t-22.5 94.5q0 50 20.5 93.5t56 76t82 51.5t98.5 19q51 0 92.5 -15.5t77.5 -44.5l1278 -1035z" />
    <glyph glyph-name="asciicircum" unicode="^" horiz-adv-x="2307" 
d="M2206 2076q38 -38 56 -83.5t18 -88.5q0 -54 -23 -99.5t-61.5 -79.5t-88 -53t-102.5 -19q-59 0 -111 20t-90 58l-650 656l-650 -656q-38 -38 -90.5 -58t-110.5 -20q-56 0 -106 20t-88 54.5t-60.5 80t-22.5 97.5q0 44 19 88.5t57 82.5l1052 1065z" />
    <glyph glyph-name="divide" unicode="&#xf7;" 
d="M1839 1270q61 0 106 -11t81 -36q37 -25 59 -66.5t22 -102.5q0 -63 -24 -104t-62 -65t-82.5 -33.5t-99.5 -9.5h-1659v428h1659zM1101 596q73 0 137 -22t110.5 -62.5t73.5 -98t27 -129.5q0 -74 -27 -132.5t-73.5 -99t-110.5 -62.5t-137 -22q-71 0 -132.5 22t-108 62.5
t-73 99t-26.5 132.5q0 72 26.5 129.5t73 98t108 62.5t132.5 22zM1102 2111q73 0 137 -22t110.5 -62.5t73.5 -98t27 -129.5q0 -74 -27 -132.5t-73.5 -99t-110.5 -62.5t-137 -22q-71 0 -132.5 22t-108 62.5t-73 99t-26.5 132.5q0 72 26.5 129.5t73 98t108 62.5t132.5 22z" />
    <glyph glyph-name="multiply" unicode="&#xd7;" horiz-adv-x="2307" 
d="M436 2203l714 -781l719 784l360 -372l-744 -764l603 -621q19 -20 39 -44t35.5 -50.5t25.5 -56t10 -61.5q0 -47 -21 -90t-57 -75.5t-83.5 -52t-100.5 -19.5q-76 0 -128 27t-95 74l-562 619l-568 -624q-37 -40 -91.5 -68t-125.5 -28q-51 0 -98.5 19.5t-84 52.5t-58.5 77
t-22 94q0 55 30.5 107t72.5 95l608 628l-736 760z" />
    <glyph glyph-name="plusminus" unicode="&#xb1;" horiz-adv-x="2188" 
d="M1781 428q61 0 106 -11t81 -36q37 -25 59 -66.5t22 -102.5q0 -63 -24 -104t-62 -65t-82.5 -33.5t-99.5 -9.5h-1579v428h1579zM848 1631v642h492v-642h384q62 0 107 -11t81 -36t58 -66.5t22 -102.5q0 -63 -23.5 -104t-62.5 -65q-38 -24 -82 -33.5t-100 -9.5h-384v-398
q0 -9 -0.5 -35t-3.5 -52q-5 -41 -24 -77t-51 -63t-75 -42.5t-94 -15.5q-49 0 -91 15.5t-74 42.5t-51.5 63t-23.5 77q-3 26 -3.5 52t-0.5 35v398h-590v428h590z" />
    <glyph glyph-name="numbersign" unicode="#" horiz-adv-x="2368" 
d="M930 1013h440l92 517h-440zM1213 2562l-113 -635h422l113 635h468l-112 -635h118q7 0 24 -0.5t46 -3.5q39 -5 73 -21.5t60 -43t41 -61.5t15 -76q0 -39 -15 -72.5t-41 -59.5t-60 -42.5t-73 -20.5q-23 -2 -42 -2.5t-28 -0.5h-189l-87 -502h131q6 0 23 -0.5t46 -3.5
q39 -4 73.5 -20.5t60.5 -43t41 -61.5t15 -75q0 -39 -15.5 -73t-42 -60t-61 -42.5t-72.5 -20.5q-8 -1 -18.5 -1.5t-21 -0.5h-18.5h-10h-201l-81 -459q-2 -11 -5.5 -29.5t-11.5 -45.5q-9 -33 -29 -60.5t-49 -48t-65 -32t-77 -11.5q-44 0 -85.5 16t-73.5 44t-51 66.5t-19 84.5
q0 23 2.5 45t7.5 45l67 385h-422l-82 -459q-2 -11 -5.5 -29.5t-11.5 -45.5q-9 -33 -29 -60.5t-49 -48t-65 -32t-77 -11.5q-44 0 -85.5 16t-73.5 44.5t-51 67t-19 84.5q0 22 2.5 44t7.5 45l67 385h-326v402h397l89 502h-342v404h414l111 635h470z" />
    <glyph glyph-name="oslash" unicode="&#xf8;" horiz-adv-x="2348" 
d="M1995 2348l-188 -403q91 -65 165.5 -153t126.5 -201.5t80.5 -251.5t28.5 -303q0 -180 -37 -331t-104.5 -272t-161.5 -213t-209 -153t-246.5 -92t-273.5 -31q-149 0 -289 32l-116 -248h-418l187 402q-91 65 -165 153.5t-126 201.5t-80.5 250.5t-28.5 300.5
q0 181 37.5 332.5t105 272.5t162.5 212.5t210 152.5t247 91.5t274 30.5q147 0 281 -30l117 250h421zM1274 1705q-24 4 -48 5.5t-50 1.5q-102 0 -194 -38.5t-161.5 -120.5t-110.5 -209t-41 -304q0 -149 23 -257.5t65 -186.5zM1074 376q25 -5 50.5 -6.5t51.5 -1.5
q103 0 196 39t163 121.5t111 209t41 302.5q0 153 -24.5 263.5t-67.5 188.5z" />
    <glyph glyph-name="Oslash" unicode="&#xd8;" horiz-adv-x="2748" 
d="M2379 2964l-206 -440q196 -179 295.5 -469t99.5 -691q0 -344 -76.5 -610.5t-226 -449t-371 -277.5t-510.5 -95q-216 0 -396 54l-121 -258h-498l222 477q-201 181 -306 472t-105 687q0 330 80 594.5t234 449.5t378 284.5t512 99.5q211 0 390 -50l103 222h502zM1578 2321
q-49 13 -101.5 18t-108.5 5q-147 0 -263.5 -63.5t-197.5 -188t-123.5 -307.5t-42.5 -421q0 -217 23.5 -373.5t68.5 -266.5zM1184 405q48 -11 100 -16t108 -5q150 0 264 66.5t191.5 192.5t116.5 308t39 413q0 206 -21 358.5t-61 261.5z" />
    <glyph glyph-name="asciitilde" unicode="~" 
d="M106 860q32 111 93 210t146.5 173.5t193.5 118.5t233 44q58 0 108.5 -10t98 -27.5t93.5 -41.5t94 -52q30 -18 63 -39t69 -39t75.5 -30.5t83.5 -12.5q45 0 79 12.5t61.5 32.5t50 45.5t42.5 52.5q15 20 34 40.5t44.5 37.5t58.5 28t77 11q40 0 76 -14t63 -40t43 -63.5
t16 -84.5q0 -76 -25.5 -142t-70 -120.5t-103.5 -97.5t-125.5 -72.5t-137.5 -45t-138 -15.5q-61 0 -116.5 9t-108 26t-103.5 42t-102 57q-28 18 -58 36t-64 33t-72.5 24.5t-82.5 9.5q-63 0 -113.5 -22t-88.5 -57.5t-65.5 -80.5t-44.5 -91l-377 155v0z" />
    <glyph glyph-name="onequarter" unicode="&#xbc;" horiz-adv-x="2957" 
d="M815 2728v-1117h197q29 0 56.5 -7.5t49.5 -23.5t35 -40.5t13 -58.5t-12.5 -58.5t-33.5 -40.5t-49 -24t-59 -8h-849v261h334v715l-149 -90q-16 -10 -38 -19t-52 -9q-31 0 -57 10.5t-44.5 28t-29 40.5t-10.5 48q0 37 22 68.5t57 52.5l448 272h171zM2589 2728l-1851 -2728
h-391l1849 2728h393zM2545 1377v-906h65q28 0 56.5 -7t51 -22t37 -39t14.5 -58q0 -33 -13.5 -56.5t-36 -38.5t-51 -22.5t-58.5 -7.5h-65v-110q0 -33 -11 -60.5t-31.5 -48t-49.5 -31.5t-66 -11q-32 0 -61.5 10t-52 29t-36 47.5t-13.5 64.5v110h-659v172l295 751
q19 48 61 77.5t93 29.5q19 0 46 -6.5t52 -23t42.5 -44.5t17.5 -72q0 -18 -5 -37t-10 -33l-169 -433q-6 -17 -14.5 -36l-17 -38t-17 -35.5t-14.5 -27.5q10 1 25 1.5t32 1.5t34.5 1.5t34.5 0.5h177v908h317z" />
    <glyph glyph-name="onehalf" unicode="&#xbd;" horiz-adv-x="2957" 
d="M815 2728v-1117h197q29 0 56.5 -7.5t49.5 -23.5t35 -40.5t13 -58.5t-12.5 -58.5t-33.5 -40.5t-49 -24t-59 -8h-849v261h334v715l-149 -90q-16 -10 -38 -19t-52 -9q-31 0 -57 10.5t-44.5 28t-29 40.5t-10.5 48q0 37 22 68.5t57 52.5l448 272h171zM2589 2728l-1851 -2728
h-391l1849 2728h393zM1778 220q12 41 39 86t63.5 91t80 92t89.5 88q22 20 48 42t59 49t74 60.5t94 76.5q52 43 86 90t34 109q0 28 -13.5 50t-37.5 38t-58 24.5t-74 8.5q-59 0 -109.5 -12t-93 -30t-77.5 -40t-62 -41l-156 218q37 28 92.5 58t123 54.5t143 40t152.5 15.5
q116 0 206.5 -23.5t153 -72t95.5 -122t33 -172.5q0 -62 -18.5 -115.5t-48.5 -101t-69 -88t-81 -75.5q-41 -33 -83 -65t-84 -65t-82.5 -68t-78.5 -74q-27 -27 -45 -47t-30 -39h529q29 0 57 -7.5t49.5 -23.5t35 -40.5t13.5 -58.5q0 -33 -12.5 -58t-34 -41t-49.5 -24t-59 -8
h-894v221z" />
    <glyph glyph-name="threequarters" unicode="&#xbe;" horiz-adv-x="2963" 
d="M2545 1377v-906h65q28 0 56.5 -7t51 -22t37 -39t14.5 -58q0 -33 -13.5 -56.5t-36 -38.5t-51 -22.5t-58.5 -7.5h-65v-110q0 -33 -11 -60.5t-31.5 -48t-49.5 -31.5t-66 -11q-32 0 -61.5 10t-52 29t-36 47.5t-13.5 64.5v110h-659v172l295 751q19 48 61 77.5t93 29.5
q19 0 46 -6.5t52 -23t42.5 -44.5t17.5 -72q0 -18 -5 -37t-10 -33l-169 -433q-6 -17 -14.5 -36l-17 -38t-17 -35.5t-14.5 -27.5q10 1 25 1.5t32 1.5t34.5 1.5t34.5 0.5h177v908h317zM112 2580q53 34 115 63.5t129.5 52t138.5 35.5t143 13q98 0 189 -17t161 -58.5t112 -112
t42 -177.5q0 -51 -17 -94t-45.5 -78t-65 -62t-76.5 -45q44 -18 88 -45t78.5 -66t56 -91t21.5 -119q0 -82 -25 -147t-68.5 -114.5t-102 -85t-125.5 -57.5t-140 -32.5t-144 -10.5q-75 0 -143.5 7t-126.5 24q-35 10 -67.5 22.5t-57 30t-39 41.5t-14.5 57q0 63 42.5 93.5
t110.5 30.5q35 0 70 -8.5t67 -19.5q39 -14 83 -21.5t88 -7.5q38 0 81 6.5t79 24.5t59.5 51t23.5 87q0 48 -25.5 82t-69 55.5t-100 32t-118.5 10.5h-12.5t-19 -0.5t-20.5 -1t-16 -0.5v238q60 0 121 7t110.5 26.5t81 53t31.5 87.5q0 42 -18 70.5t-47.5 46t-68 25t-79.5 7.5
q-59 0 -109.5 -10t-92.5 -25t-74.5 -32.5t-54.5 -32.5zM2589 2728l-1851 -2728h-391l1849 2728h393z" />
    <glyph glyph-name="onesuperior" unicode="&#xb9;" horiz-adv-x="1320" 
d="M853 3235v-1117h197q29 0 56.5 -7.5t49.5 -23.5t35 -40.5t13 -58.5t-12.5 -58.5t-33.5 -40.5t-49 -24t-59 -8h-849v261h334v715l-149 -90q-16 -10 -38 -19t-52 -9q-31 0 -57 10.5t-44.5 28t-29 40.5t-10.5 48q0 37 22 68.5t57 52.5l448 272h171z" />
    <glyph glyph-name="twosuperior" unicode="&#xb2;" horiz-adv-x="1320" 
d="M151 2078q12 41 39 86t63.5 91t80 92t89.5 88q22 20 48 42t59 49t74 60.5t94 76.5q52 43 86 90t34 109q0 28 -13.5 50t-37.5 38t-58 24.5t-74 8.5q-59 0 -109.5 -12t-93 -30t-77.5 -40t-62 -41l-156 218q37 28 92.5 58t123 54.5t143 40t152.5 15.5q116 0 206.5 -23.5
t153 -72t95.5 -122t33 -172.5q0 -62 -18.5 -115.5t-48.5 -101t-69 -88t-81 -75.5q-41 -33 -83 -65t-84 -65t-82.5 -68t-78.5 -74q-27 -27 -45 -47t-30 -39h529q29 0 57 -7.5t49.5 -23.5t35 -40.5t13.5 -58.5q0 -33 -12.5 -58t-34 -41t-49.5 -24t-59 -8h-894v221z" />
    <glyph glyph-name="threesuperior" unicode="&#xb3;" horiz-adv-x="1320" 
d="M112 3082q53 34 115 63.5t129.5 52t138.5 35.5t143 13q98 0 189 -17t161 -58.5t112 -112t42 -177.5q0 -51 -17 -94t-45.5 -78t-65 -62t-76.5 -45q44 -18 88 -45t78.5 -66t56 -91t21.5 -119q0 -82 -25 -147t-68.5 -114.5t-102 -85t-125.5 -57.5t-140 -32.5t-144 -10.5
q-75 0 -143.5 7t-126.5 24q-35 10 -67.5 22.5t-57 30t-39 41.5t-14.5 57q0 63 42.5 93.5t110.5 30.5q35 0 70 -8.5t67 -19.5q39 -14 83 -21.5t88 -7.5q38 0 81 6.5t79 24.5t59.5 51t23.5 87q0 48 -25.5 82t-69 55.5t-100 32t-118.5 10.5h-12.5t-19 -0.5t-20.5 -1t-16 -0.5
v238q60 0 121 7t110.5 26.5t81 53t31.5 87.5q0 42 -18 70.5t-47.5 46t-68 25t-79.5 7.5q-59 0 -109.5 -10t-92.5 -25t-74.5 -32.5t-54.5 -32.5z" />
    <glyph glyph-name="sterling" unicode="&#xa3;" horiz-adv-x="1977" 
d="M437 1638v148q0 77 4 149.5t13 129.5q30 184 107.5 317t189.5 218.5t251 126.5t291 41q80 0 156.5 -7t145.5 -20.5t128.5 -32t106.5 -40.5l-142 -429q-54 28 -134.5 47.5t-182.5 19.5q-56 0 -113 -11.5t-106.5 -41.5t-86 -81t-49.5 -130q-6 -38 -8.5 -86.5t-2.5 -106.5
v-211h405q35 0 69 -5t66 -17q58 -23 97 -70.5t39 -123.5t-38.5 -124.5t-98.5 -71.5q-30 -12 -64.5 -16.5t-69.5 -4.5h-405v-327q0 -152 -51 -259.5t-173 -162.5h841q43 0 84 -6t79 -26q57 -29 89.5 -79.5t32.5 -116.5t-32.5 -116.5t-89.5 -79.5q-38 -20 -79 -26t-84 -6
h-1477v445q62 16 115.5 42t92.5 67t61.5 99t22.5 138v414h-244v433h244z" />
    <glyph glyph-name="thorn" unicode="&#xfe;" horiz-adv-x="2360" 
d="M771 2960v-1040q40 37 95.5 74t125.5 67t156 48.5t188 18.5q212 0 376.5 -66t277.5 -197t171.5 -327.5t58.5 -457.5q0 -270 -69 -479.5t-193 -352.5t-296.5 -217t-379.5 -74q-74 0 -151.5 9t-150.5 45q-27 13 -51 32t-42 43.5t-28.5 55.5t-10.5 70q0 42 15 77t42.5 60.5
t65.5 40t85 14.5q42 0 86 -8t98 -8q97 0 176.5 36.5t135 116t86 205t30.5 302.5t-31.5 301.5t-89.5 203.5t-139 115t-180 36q-90 0 -168.5 -27.5t-138.5 -73t-99 -104t-51 -119.5v-2004q0 -55 -14 -96t-37 -70.5t-52 -49t-58.5 -31t-57 -16t-47.5 -4.5q-31 0 -76.5 11
t-87.5 40.5t-71.5 81.5t-29.5 134v3584h531z" />
    <glyph glyph-name="Thorn" unicode="&#xde;" horiz-adv-x="2459" 
d="M836 2728v-457h386q33 0 69 -0.5t71.5 -1.5t69 -2.5t61.5 -4.5q109 -11 218.5 -34t209.5 -63.5t186.5 -101t150 -147t100 -200.5t36.5 -261q0 -194 -50.5 -336t-136 -241.5t-198.5 -161.5t-239 -97t-257.5 -47.5t-252.5 -12.5h-30q-49 0 -103 10t-99 37t-74.5 73.5
t-29.5 120.5q0 48 13.5 84t35.5 61.5t50 41.5t57 25t57.5 12.5t50.5 3.5h119q57 0 114.5 7t111 25t100 48t80.5 76t54 110t20 150q0 108 -41 179t-109.5 112t-158 57.5t-186.5 16.5h-456v-1533q0 -76 -16.5 -129t-50.5 -95t-86.5 -67t-124.5 -25t-124.5 25t-86.5 67
t-50.5 95t-16.5 129v2452h556z" />
    <glyph glyph-name="guillemotleft" unicode="&#xab;" horiz-adv-x="2297" 
d="M784 1831q31 34 74.5 56t104.5 22q47 0 89 -17t74 -46.5t50.5 -69t18.5 -84.5q0 -68 -51 -129l-413 -500l413 -502q27 -32 39 -64t12 -64q0 -45 -18.5 -84.5t-50.5 -69t-74 -46.5t-89 -17q-61 0 -104.5 22t-74.5 56l-704 769zM1756 1831q31 34 74.5 56t104.5 22
q47 0 89 -17t74 -46.5t50.5 -69t18.5 -84.5q0 -68 -51 -129l-413 -500l413 -502q27 -32 39 -64t12 -64q0 -45 -18.5 -84.5t-50.5 -69t-74 -46.5t-89 -17q-61 0 -104.5 22t-74.5 56l-704 769z" />
    <glyph glyph-name="guillemotright" unicode="&#xbb;" horiz-adv-x="2297" 
d="M1513 294q-31 -34 -74.5 -56t-104.5 -22q-47 0 -89 17t-74 46.5t-50.5 69t-18.5 84.5q0 68 51 129l413 500l-413 502q-27 32 -39 64t-12 64q0 45 18.5 84.5t50.5 69t74 46.5t89 17q61 0 104.5 -22t74.5 -56l704 -769zM541 294q-31 -34 -74.5 -56t-104.5 -22q-47 0 -89 17
t-74 46.5t-50.5 69t-18.5 84.5q0 68 51 129l413 500l-413 502q-27 32 -39 64t-12 64q0 45 18.5 84.5t50.5 69t74 46.5t89 17q61 0 104.5 -22t74.5 -56l704 -769z" />
    <glyph glyph-name="guilsinglright" unicode="&#x203a;" horiz-adv-x="1325" 
d="M541 294q-31 -34 -74.5 -56t-104.5 -22q-47 0 -89 17t-74 46.5t-50.5 69t-18.5 84.5q0 68 51 129l413 500l-413 502q-27 32 -39 64t-12 64q0 45 18.5 84.5t50.5 69t74 46.5t89 17q61 0 104.5 -22t74.5 -56l704 -769z" />
    <glyph glyph-name="guilsinglleft" unicode="&#x2039;" horiz-adv-x="1325" 
d="M784 1831q31 34 74.5 56t104.5 22q47 0 89 -17t74 -46.5t50.5 -69t18.5 -84.5q0 -68 -51 -129l-413 -500l413 -502q27 -32 39 -64t12 -64q0 -45 -18.5 -84.5t-50.5 -69t-74 -46.5t-89 -17q-61 0 -104.5 22t-74.5 56l-704 769z" />
    <glyph glyph-name="OE" unicode="&#x152;" horiz-adv-x="3832" 
d="M3652 2728v-456h-1124v-640h775q43 0 82 -6t77 -26q57 -29 91.5 -79.5t34.5 -116.5q0 -45 -16 -82t-44 -66q-45 -47 -103.5 -63.5t-121.5 -16.5h-775v-720h864q43 0 82 -6t77 -26q57 -29 91.5 -79.5t34.5 -116.5q0 -45 -16 -82t-44 -66q-45 -47 -103.5 -63.5
t-121.5 -16.5h-1318v176q-260 -244 -701 -244q-288 0 -510.5 99.5t-374 285t-230 450.5t-78.5 597q0 330 78.5 594.5t230 449.5t374 284.5t510.5 99.5q222 0 396 -58.5t305 -179.5v174h1578zM1392 384q150 0 260.5 66.5t183.5 192.5t108.5 308t35.5 413t-39.5 413
t-116.5 308t-191.5 192.5t-264.5 66.5q-147 0 -260 -63.5t-189.5 -188t-115.5 -307.5t-39 -421q0 -231 40.5 -413t120 -308t197 -192.5t270.5 -66.5z" />
    <glyph glyph-name="oe" unicode="&#x153;" horiz-adv-x="3800" 
d="M2605 846q-35 0 -77 9.5t-78.5 33t-61 63t-24.5 100.5q0 60 24.5 99.5t61 63.5t78.5 33.5t77 9.5h533q0 137 -38.5 230t-102.5 149.5t-146 81t-169 24.5q-119 0 -218.5 -43.5t-171.5 -129t-112 -213.5t-40 -297q0 -133 23 -235.5t65 -179t100.5 -128.5t129 -84.5
t150.5 -46.5t166 -14q71 0 133 7t117 18.5t104 26.5t95 32q27 10 66 23.5t87 13.5q37 0 71 -10.5t59.5 -31.5t40.5 -53.5t15 -76.5q0 -52 -28 -102.5t-80 -88.5q-72 -53 -156.5 -89.5t-174 -59t-180 -33t-175.5 -10.5q-131 0 -258 17.5t-241.5 58t-214 107t-176.5 165.5
q-128 -177 -321 -262.5t-438 -85.5q-213 0 -392.5 70.5t-310 208.5t-203.5 343.5t-73 475.5q0 181 37.5 332.5t105 272.5t162.5 212.5t210 152.5t247 91.5t274 30.5q121 0 233.5 -22t211.5 -66t183 -111.5t149 -157.5q69 90 155 157t184.5 111.5t207.5 66.5t224 22
q227 0 402 -68.5t293.5 -208t179.5 -353t61 -502.5v-150h-1055zM1176 1712q-102 0 -194 -38.5t-161.5 -120.5t-110.5 -209t-41 -304q0 -176 41 -302.5t110.5 -209t161.5 -121.5t194 -39q103 0 194 39t159 121.5t107 209t39 302.5q0 177 -39 304t-107 209t-159 120.5
t-194 38.5z" />
    <glyph glyph-name="lslash" unicode="&#x142;" horiz-adv-x="1264" 
d="M864 2960v-957l85 59q40 28 85.5 48.5t97.5 20.5q39 0 75.5 -18t64.5 -47.5t45 -67t17 -77.5q0 -33 -11 -62t-30 -55t-44.5 -49t-53.5 -43l-331 -232v-1256q0 -55 -14.5 -96t-37.5 -71t-52 -49.5t-59 -31t-57.5 -16t-47.5 -4.5q-21 0 -49 4.5t-58 16t-58.5 31t-51.5 49.5
t-37 71t-14 96v881l-303 -213v523l303 212v1333h536z" />
    <glyph glyph-name="Lslash" unicode="&#x141;" horiz-adv-x="1800" 
d="M836 2728v-869l338 237q41 29 86 49t98 20q44 0 85 -21t75 -71q22 -31 31 -60t9 -57q0 -33 -11 -62.5t-29.5 -55.5t-44 -49t-53.5 -43l-584 -409v-881h751q43 0 85 -6.5t78 -24.5q57 -29 89.5 -80t32.5 -117t-32.5 -117t-89.5 -80q-36 -18 -78 -24.5t-85 -6.5h-1307v948
l-326 -229v523l326 228v1258h556z" />
    <glyph glyph-name="currency" unicode="&#xa4;" horiz-adv-x="2307" 
d="M1152 2223q109 0 209 -24.5t188 -69.5l235 235q35 35 83 52.5t101 17.5q51 0 98 -19t83 -51.5t57.5 -76.5t21.5 -94q0 -45 -19 -88.5t-57 -81.5l-242 -241q48 -91 77 -194.5t29 -209.5t-29 -209.5t-77 -194.5l241 -241q38 -38 57.5 -81.5t19.5 -88.5q0 -48 -20.5 -91.5
t-55.5 -77t-82.5 -53t-101.5 -19.5q-53 0 -101 17.5t-83 52.5l-234 235q-89 -45 -189 -69t-209 -24t-208 24t-187 69l-236 -235q-35 -35 -82.5 -52.5t-100.5 -17.5q-51 0 -98 19t-83 51.5t-57.5 76.5t-21.5 94q0 45 19 88.5t56 80.5l241 241q-51 92 -78.5 194t-27.5 211
t27.5 211t78.5 194l-241 240q-38 37 -56.5 81t-18.5 89q0 48 20 92t55.5 77t83 52.5t101.5 19.5q53 0 100.5 -17.5t82.5 -52.5l235 -235q88 45 187.5 69.5t208.5 24.5zM1152 1781q-80 0 -149.5 -32t-121.5 -86.5t-82 -128t-30 -156.5t30 -156.5t82 -128t121.5 -86.5
t149.5 -32q79 0 149 32t122.5 86.5t82.5 128t30 156.5t-30 156.5t-82.5 128t-122.5 86.5t-149 32z" />
    <glyph glyph-name="cent" unicode="&#xa2;" horiz-adv-x="2032" 
d="M1426 2379v-271q67 -7 135.5 -18t135 -27t129 -37t116.5 -46l-180 -412q-40 26 -83 45.5t-86 33t-85.5 23t-81.5 16.5v-954q0 -45 -13.5 -83.5t-39 -67t-62.5 -44.5t-85 -16q-46 0 -83.5 14.5t-64.5 42t-41.5 66.5t-14.5 88v936q-78 -32 -142.5 -88.5t-110.5 -135
t-71.5 -177.5t-25.5 -215q0 -188 45.5 -319t121.5 -212.5t174 -118t203 -36.5q43 0 79.5 4t68.5 10.5t62 15.5t61 20q33 11 60 25t54.5 26t58 20.5t68.5 8.5q37 0 71.5 -12t60 -34.5t41 -56.5t15.5 -77q0 -55 -34.5 -107t-98.5 -97t-154.5 -81.5t-202.5 -60.5v-96
q0 -45 -13.5 -83.5t-39 -67t-62.5 -44.5t-85 -16q-46 0 -83.5 14.5t-64.5 42t-41.5 66.5t-14.5 88v87q-190 19 -351.5 91.5t-279.5 203t-184.5 322.5t-66.5 450q0 166 32 305t90.5 252t139.5 201t179 152.5t209.5 105.5t231.5 61v274h404z" />
    <glyph glyph-name="fraction" unicode="&#x2044;" horiz-adv-x="2242" 
d="M2242 2728l-1851 -2728h-391l1849 2728h393z" />
    <glyph glyph-name="dagger" unicode="&#x2020;" horiz-adv-x="2166" 
d="M1379 3041v-903h507q15 0 35 -1t37 -4q46 -9 84 -28t65.5 -46.5t42.5 -65t15 -84.5t-15 -84.5t-42.5 -65t-65.5 -46.5t-84 -28q-17 -3 -37 -4t-35 -1h-507v-2289q0 -9 -0.5 -30t-4.5 -48q-6 -48 -30.5 -89t-62 -70.5t-85.5 -46t-101 -16.5q-55 0 -103 16t-85 45.5t-61 70
t-30 89.5q-4 29 -4.5 49.5t-0.5 29.5v2289h-711v458h711v903h568z" />
    <glyph glyph-name="daggerdbl" unicode="&#x2021;" horiz-adv-x="2141" 
d="M1355 3041v-903h507q14 0 34.5 -1t37.5 -4q46 -9 84 -28t65 -46.5t42 -65t15 -84.5t-15 -84.5t-42 -65t-65 -46.5t-84 -28q-17 -3 -37.5 -4t-34.5 -1h-507v-1222h711v-458h-711v-609q0 -9 -0.5 -30t-4.5 -48q-7 -48 -31.5 -89t-62 -70.5t-85 -46t-101.5 -16.5
q-55 0 -103 16t-84.5 45.5t-60.5 70t-31 89.5q-4 29 -4.5 49.5t-0.5 29.5v609h-507q-15 0 -35.5 1t-37.5 5q-46 9 -83.5 27.5t-64.5 46.5t-42 65.5t-15 84.5q0 46 15 83.5t42 65t64.5 46t83.5 27.5q17 4 37.5 5t35.5 1h507v1222h-711v458h711v903h569z" />
    <glyph glyph-name="Eth" unicode="&#xd0;" horiz-adv-x="2772" 
d="M1052 2728q55 0 121 -2t132 -6t127 -10t108 -13q152 -23 289 -70t254 -122.5t211 -181t160.5 -245t102 -315t35.5 -391.5q0 -275 -61 -497.5t-176.5 -392t-281 -284t-373.5 -172.5q-97 -27 -200.5 -36.5t-227.5 -9.5q-57 0 -107.5 8t-92.5 29q-45 23 -74.5 65t-29.5 114
q0 67 26.5 108t63.5 63q19 11 39.5 18.5t44 11.5t51.5 5.5t63 1.5q177 0 313.5 56.5t229.5 174t141 297.5t48 428q0 212 -39.5 372t-117.5 273t-194 180t-269 93q-30 5 -73 8.5t-89 5.5t-91 3t-79 1h-152v-670h234q14 0 34.5 -1t37.5 -4q46 -9 84 -28t65 -46.5t42 -65
t15 -84.5t-15 -84.5t-42 -65t-65 -46.5t-84 -28q-17 -3 -37.5 -4t-34.5 -1h-234v-928q0 -55 -13.5 -96t-36 -71t-51.5 -49.5t-59 -31t-59.5 -16t-52.5 -4.5q-24 0 -53.5 4.5t-60 16t-59.5 31t-52 49.5t-37 71t-14 96v928h-291v458h291v1102h716z" />
    <glyph glyph-name="logicalnot" unicode="&#xac;" horiz-adv-x="2307" 
d="M1836 1270q10 0 34 -1t47 -5q41 -7 76 -24.5t60.5 -44.5t39.5 -62t14 -75v-465q0 -36 -5.5 -69.5t-21.5 -65.5q-24 -51 -78 -80t-123 -29q-70 0 -125.5 29.5t-78.5 80.5q-14 31 -20.5 63.5t-6.5 70.5v249h-1468v428h1656z" />
    <glyph glyph-name="glyph218" horiz-adv-x="0" 
 />
    <glyph glyph-name="ordmasculine" unicode="&#xba;" horiz-adv-x="1320" 
d="M663 3248q128 0 229.5 -49.5t172 -141t107.5 -222.5t37 -293q0 -164 -37 -294.5t-107.5 -222.5t-172 -141t-229.5 -49q-131 0 -234 49t-174 141t-108.5 222.5t-37.5 294.5q0 162 37.5 293t108.5 222.5t174 141t234 49.5zM663 3001q-59 0 -103.5 -35t-74.5 -96.5
t-45 -145.5t-15 -182q0 -99 15 -183.5t45 -146t74.5 -96t103.5 -34.5q58 0 101.5 35t72.5 96.5t43.5 146t14.5 182.5t-14.5 182t-43.5 145.5t-72.5 96.5t-101.5 35z" />
    <glyph glyph-name="degree" unicode="&#xb0;" horiz-adv-x="1415" 
d="M66 2483q0 137 51 249.5t138.5 192t204 123t248.5 43.5q131 0 247.5 -43.5t204 -123t138.5 -192t51 -249.5t-51 -249t-138.5 -191.5t-204 -123t-247.5 -43.5q-132 0 -248.5 43.5t-204 123t-138.5 191.5t-51 249zM895 2483q0 55 -15 95.5t-40.5 67.5t-59.5 40t-72 13
t-72 -13t-60 -40t-41.5 -67.5t-15.5 -95.5q0 -56 15 -96.5t40.5 -67t60 -39t73.5 -12.5t73.5 12.5t59.5 39t39.5 67t14.5 96.5z" />
    <glyph glyph-name="mu" unicode="&#xb5;" horiz-adv-x="2296" 
d="M765 2076v-1296q0 -104 26.5 -176.5t72.5 -119t106.5 -67.5t129.5 -21q82 0 152.5 27t125.5 68t92.5 90.5t53.5 94.5v1400h532v-1829q0 -57 -10.5 -108.5t-37 -91.5t-72.5 -63.5t-116 -23.5q-63 0 -107 24.5t-72.5 64.5t-43 90.5t-18.5 102.5q-35 -51 -82 -102.5
t-113 -92t-153 -66t-200 -25.5q-146 0 -266 56v-636q0 -81 -30 -134t-72 -82q-35 -23 -74.5 -37t-85.5 -14q-43 0 -84 12t-79 39q-42 29 -71 81.5t-29 134.5v2700h525z" />
    <glyph glyph-name="mu" unicode="&#x3bc;" horiz-adv-x="2296" 
d="M765 2076v-1296q0 -104 26.5 -176.5t72.5 -119t106.5 -67.5t129.5 -21q82 0 152.5 27t125.5 68t92.5 90.5t53.5 94.5v1400h532v-1829q0 -57 -10.5 -108.5t-37 -91.5t-72.5 -63.5t-116 -23.5q-63 0 -107 24.5t-72.5 64.5t-43 90.5t-18.5 102.5q-35 -51 -82 -102.5
t-113 -92t-153 -66t-200 -25.5q-146 0 -266 56v-636q0 -81 -30 -134t-72 -82q-35 -23 -74.5 -37t-85.5 -14q-43 0 -84 12t-79 39q-42 29 -71 81.5t-29 134.5v2700h525z" />
    <glyph glyph-name="world" horiz-adv-x="5708" 
d="M590 3816l670 240q27 10 58.5 15t61.5 5q32 0 66 -5.5t59 -13.5l2618 -819q115 -36 206 -103t160.5 -152.5t118.5 -183.5t80.5 -196t46 -190t14.5 -166q0 -90 -16.5 -183t-55.5 -175.5t-103.5 -148.5t-160.5 -100l-903 -325q-9 -22 -21 -55t-22 -82t-17 -116t-7 -158
v-1013q0 -80 -12.5 -156t-38 -143.5t-63 -124t-87.5 -97.5t-111.5 -64t-135.5 -23q-97 0 -199 43t-189 126v1125q0 112 16.5 215t52.5 187.5t93.5 146t140.5 90.5l938 334q8 21 19 52.5t20.5 72.5t16.5 91t7 109q0 126 -22.5 248.5t-66 237t-108 216.5t-148.5 186.5
t-186.5 149t-222.5 101.5zM849 3604q-8 -41 -12 -84t-4 -88q0 -104 20.5 -214.5t60 -218.5t98 -210t135 -188.5t170 -153.5t203.5 -106q103 -37 189 -98.5t154.5 -141t120.5 -173t86.5 -194t51.5 -204t17 -202.5v-944q0 -219 49 -414t141.5 -352t225 -268t299.5 -162
l-687 -237q-57 -19 -115 -19q-71 0 -132.5 22.5t-106.5 51.5q-125 80 -220.5 184t-160 234.5t-97 289t-32.5 348.5v990q0 106 -23 214.5t-65.5 212.5t-104 200t-139 177t-168.5 143t-194 99q-85 30 -163 85.5t-146 129.5t-123.5 164t-95 190t-61.5 207t-22 215
q0 180 54.5 313.5t148.5 211.5q57 48 124 72.5t136 24.5q33 0 64.5 -5t58.5 -14z" />
    </font>
</defs>
</svg>
